G04 #@! TF.FileFunction,Legend,Bot*
%FSLAX46Y46*%
G04 Gerber Fmt 4.6, Leading zero omitted, Abs format (unit mm)*
G04 Created by KiCad (PCBNEW 4.0.0-rc2-stable) date 17/02/2016 11:29:29*
%MOMM*%
G01*
G04 APERTURE LIST*
%ADD10C,0.100000*%
%ADD11C,0.250000*%
%ADD12C,0.300000*%
%ADD13C,0.127000*%
%ADD14C,0.150000*%
%ADD15C,0.105000*%
G04 APERTURE END LIST*
D10*
D11*
X55460571Y70163714D02*
X55860571Y70163714D01*
X55860571Y69535143D02*
X55860571Y70735143D01*
X55289142Y70735143D01*
X54374857Y69592286D02*
X54489143Y69535143D01*
X54717714Y69535143D01*
X54832000Y69592286D01*
X54889143Y69706571D01*
X54889143Y70163714D01*
X54832000Y70278000D01*
X54717714Y70335143D01*
X54489143Y70335143D01*
X54374857Y70278000D01*
X54317714Y70163714D01*
X54317714Y70049429D01*
X54889143Y69935143D01*
X53803429Y69535143D02*
X53803429Y70735143D01*
X53803429Y70278000D02*
X53689143Y70335143D01*
X53460572Y70335143D01*
X53346286Y70278000D01*
X53289143Y70220857D01*
X53232000Y70106571D01*
X53232000Y69763714D01*
X53289143Y69649429D01*
X53346286Y69592286D01*
X53460572Y69535143D01*
X53689143Y69535143D01*
X53803429Y69592286D01*
X51860572Y70620857D02*
X51803429Y70678000D01*
X51689143Y70735143D01*
X51403429Y70735143D01*
X51289143Y70678000D01*
X51232000Y70620857D01*
X51174857Y70506571D01*
X51174857Y70392286D01*
X51232000Y70220857D01*
X51917714Y69535143D01*
X51174857Y69535143D01*
X50432000Y70735143D02*
X50317715Y70735143D01*
X50203429Y70678000D01*
X50146286Y70620857D01*
X50089143Y70506571D01*
X50032000Y70278000D01*
X50032000Y69992286D01*
X50089143Y69763714D01*
X50146286Y69649429D01*
X50203429Y69592286D01*
X50317715Y69535143D01*
X50432000Y69535143D01*
X50546286Y69592286D01*
X50603429Y69649429D01*
X50660572Y69763714D01*
X50717715Y69992286D01*
X50717715Y70278000D01*
X50660572Y70506571D01*
X50603429Y70620857D01*
X50546286Y70678000D01*
X50432000Y70735143D01*
X48889143Y69535143D02*
X49574858Y69535143D01*
X49232000Y69535143D02*
X49232000Y70735143D01*
X49346286Y70563714D01*
X49460572Y70449429D01*
X49574858Y70392286D01*
X47860572Y70735143D02*
X48089143Y70735143D01*
X48203429Y70678000D01*
X48260572Y70620857D01*
X48374858Y70449429D01*
X48432001Y70220857D01*
X48432001Y69763714D01*
X48374858Y69649429D01*
X48317715Y69592286D01*
X48203429Y69535143D01*
X47974858Y69535143D01*
X47860572Y69592286D01*
X47803429Y69649429D01*
X47746286Y69763714D01*
X47746286Y70049429D01*
X47803429Y70163714D01*
X47860572Y70220857D01*
X47974858Y70278000D01*
X48203429Y70278000D01*
X48317715Y70220857D01*
X48374858Y70163714D01*
X48432001Y70049429D01*
D12*
X55776000Y71431429D02*
X55776000Y72931429D01*
X55276000Y71860000D01*
X54776000Y72931429D01*
X54776000Y71431429D01*
X54061714Y71431429D02*
X54061714Y72931429D01*
X53561714Y71860000D01*
X53061714Y72931429D01*
X53061714Y71431429D01*
X52347428Y71431429D02*
X52347428Y72931429D01*
X51776000Y72931429D01*
X51633142Y72860000D01*
X51561714Y72788571D01*
X51490285Y72645714D01*
X51490285Y72431429D01*
X51561714Y72288571D01*
X51633142Y72217143D01*
X51776000Y72145714D01*
X52347428Y72145714D01*
X50847428Y72002857D02*
X49704571Y72002857D01*
X48990285Y71431429D02*
X48990285Y72931429D01*
X48347428Y71502857D02*
X48204571Y71431429D01*
X47918856Y71431429D01*
X47775999Y71502857D01*
X47704571Y71645714D01*
X47704571Y71717143D01*
X47775999Y71860000D01*
X47918856Y71931429D01*
X48133142Y71931429D01*
X48275999Y72002857D01*
X48347428Y72145714D01*
X48347428Y72217143D01*
X48275999Y72360000D01*
X48133142Y72431429D01*
X47918856Y72431429D01*
X47775999Y72360000D01*
X46847427Y71431429D02*
X46990285Y71502857D01*
X47061713Y71574286D01*
X47133142Y71717143D01*
X47133142Y72145714D01*
X47061713Y72288571D01*
X46990285Y72360000D01*
X46847427Y72431429D01*
X46633142Y72431429D01*
X46490285Y72360000D01*
X46418856Y72288571D01*
X46347427Y72145714D01*
X46347427Y71717143D01*
X46418856Y71574286D01*
X46490285Y71502857D01*
X46633142Y71431429D01*
X46847427Y71431429D01*
X45490284Y71431429D02*
X45633142Y71502857D01*
X45704570Y71645714D01*
X45704570Y72931429D01*
X44275999Y71431429D02*
X44275999Y72217143D01*
X44347428Y72360000D01*
X44490285Y72431429D01*
X44775999Y72431429D01*
X44918856Y72360000D01*
X44275999Y71502857D02*
X44418856Y71431429D01*
X44775999Y71431429D01*
X44918856Y71502857D01*
X44990285Y71645714D01*
X44990285Y71788571D01*
X44918856Y71931429D01*
X44775999Y72002857D01*
X44418856Y72002857D01*
X44275999Y72074286D01*
X43775999Y72431429D02*
X43204570Y72431429D01*
X43561713Y72931429D02*
X43561713Y71645714D01*
X43490285Y71502857D01*
X43347427Y71431429D01*
X43204570Y71431429D01*
X42133142Y71502857D02*
X42275999Y71431429D01*
X42561713Y71431429D01*
X42704570Y71502857D01*
X42775999Y71645714D01*
X42775999Y72217143D01*
X42704570Y72360000D01*
X42561713Y72431429D01*
X42275999Y72431429D01*
X42133142Y72360000D01*
X42061713Y72217143D01*
X42061713Y72074286D01*
X42775999Y71931429D01*
X40775999Y71431429D02*
X40775999Y72931429D01*
X40775999Y71502857D02*
X40918856Y71431429D01*
X41204570Y71431429D01*
X41347428Y71502857D01*
X41418856Y71574286D01*
X41490285Y71717143D01*
X41490285Y72145714D01*
X41418856Y72288571D01*
X41347428Y72360000D01*
X41204570Y72431429D01*
X40918856Y72431429D01*
X40775999Y72360000D01*
X69671429Y69641715D02*
X69671429Y70570286D01*
X69100000Y70070286D01*
X69100000Y70284572D01*
X69028571Y70427429D01*
X68957143Y70498858D01*
X68814286Y70570286D01*
X68457143Y70570286D01*
X68314286Y70498858D01*
X68242857Y70427429D01*
X68171429Y70284572D01*
X68171429Y69856000D01*
X68242857Y69713143D01*
X68314286Y69641715D01*
X68314286Y71213143D02*
X68242857Y71284571D01*
X68171429Y71213143D01*
X68242857Y71141714D01*
X68314286Y71213143D01*
X68171429Y71213143D01*
X69671429Y71784572D02*
X69671429Y72713143D01*
X69100000Y72213143D01*
X69100000Y72427429D01*
X69028571Y72570286D01*
X68957143Y72641715D01*
X68814286Y72713143D01*
X68457143Y72713143D01*
X68314286Y72641715D01*
X68242857Y72570286D01*
X68171429Y72427429D01*
X68171429Y71998857D01*
X68242857Y71856000D01*
X68314286Y71784572D01*
X69671429Y73141714D02*
X68171429Y73641714D01*
X69671429Y74141714D01*
X59027429Y70824286D02*
X59027429Y69967143D01*
X59027429Y70395715D02*
X60527429Y70395715D01*
X60313143Y70252858D01*
X60170286Y70110000D01*
X60098857Y69967143D01*
X59170286Y71467143D02*
X59098857Y71538571D01*
X59027429Y71467143D01*
X59098857Y71395714D01*
X59170286Y71467143D01*
X59027429Y71467143D01*
X59884571Y72395715D02*
X59956000Y72252857D01*
X60027429Y72181429D01*
X60170286Y72110000D01*
X60241714Y72110000D01*
X60384571Y72181429D01*
X60456000Y72252857D01*
X60527429Y72395715D01*
X60527429Y72681429D01*
X60456000Y72824286D01*
X60384571Y72895715D01*
X60241714Y72967143D01*
X60170286Y72967143D01*
X60027429Y72895715D01*
X59956000Y72824286D01*
X59884571Y72681429D01*
X59884571Y72395715D01*
X59813143Y72252857D01*
X59741714Y72181429D01*
X59598857Y72110000D01*
X59313143Y72110000D01*
X59170286Y72181429D01*
X59098857Y72252857D01*
X59027429Y72395715D01*
X59027429Y72681429D01*
X59098857Y72824286D01*
X59170286Y72895715D01*
X59313143Y72967143D01*
X59598857Y72967143D01*
X59741714Y72895715D01*
X59813143Y72824286D01*
X59884571Y72681429D01*
X60527429Y73395714D02*
X59027429Y73895714D01*
X60527429Y74395714D01*
X64956571Y69967143D02*
X65028000Y70038572D01*
X65099429Y70181429D01*
X65099429Y70538572D01*
X65028000Y70681429D01*
X64956571Y70752858D01*
X64813714Y70824286D01*
X64670857Y70824286D01*
X64456571Y70752858D01*
X63599429Y69895715D01*
X63599429Y70824286D01*
X63742286Y71467143D02*
X63670857Y71538571D01*
X63599429Y71467143D01*
X63670857Y71395714D01*
X63742286Y71467143D01*
X63599429Y71467143D01*
X65099429Y72895715D02*
X65099429Y72181429D01*
X64385143Y72110000D01*
X64456571Y72181429D01*
X64528000Y72324286D01*
X64528000Y72681429D01*
X64456571Y72824286D01*
X64385143Y72895715D01*
X64242286Y72967143D01*
X63885143Y72967143D01*
X63742286Y72895715D01*
X63670857Y72824286D01*
X63599429Y72681429D01*
X63599429Y72324286D01*
X63670857Y72181429D01*
X63742286Y72110000D01*
X65099429Y73395714D02*
X63599429Y73895714D01*
X65099429Y74395714D01*
D13*
X33353500Y72745000D02*
X28667200Y72745000D01*
X33353500Y68935000D02*
X28667200Y68935000D01*
X27486100Y71563900D02*
X28667200Y72745000D01*
X27486100Y70116100D02*
X28667200Y68935000D01*
X27486100Y70116100D02*
G75*
G02X27486100Y71563900I723900J723900D01*
G01*
X34306000Y69887500D02*
X34306000Y71792500D01*
X33353500Y72745000D02*
G75*
G02X34306000Y71792500I0J-952500D01*
G01*
X34306000Y69887500D02*
G75*
G02X33353500Y68935000I-952500J0D01*
G01*
D14*
X32150000Y76620000D02*
X29350000Y76620000D01*
X29350000Y76620000D02*
X29350000Y75220000D01*
X29350000Y75220000D02*
X32150000Y75220000D01*
X32150000Y75220000D02*
X32150000Y76620000D01*
X27750000Y77670000D02*
X27750000Y77020000D01*
X27750000Y74170000D02*
X27750000Y74820000D01*
X33750000Y74820000D02*
X33750000Y74170000D01*
X33750000Y77670000D02*
X33750000Y77020000D01*
X27750000Y77670000D02*
X33750000Y77670000D01*
X33750000Y74170000D02*
X27750000Y74170000D01*
X73578000Y87748000D02*
X73578000Y90748000D01*
X73578000Y90748000D02*
X72178000Y90748000D01*
X72178000Y90748000D02*
X72178000Y96748000D01*
X72178000Y96748000D02*
X73578000Y96748000D01*
X73578000Y96748000D02*
X73578000Y99748000D01*
X73578000Y99748000D02*
X70928000Y99748000D01*
X73578000Y87748000D02*
X70928000Y87748000D01*
X64678000Y99748000D02*
X66828000Y99748000D01*
X64678000Y99748000D02*
X64678000Y97948000D01*
X64678000Y87748000D02*
X66828000Y87748000D01*
X64678000Y87748000D02*
X64678000Y89548000D01*
D15*
X27763927Y72014690D02*
X27763927Y72786850D01*
X27469771Y72786850D01*
X27396232Y72750080D01*
X27359463Y72713310D01*
X27322693Y72639771D01*
X27322693Y72529463D01*
X27359463Y72455924D01*
X27396232Y72419154D01*
X27469771Y72382385D01*
X27763927Y72382385D01*
X27065306Y72786850D02*
X26587303Y72786850D01*
X26844689Y72492693D01*
X26734381Y72492693D01*
X26660842Y72455924D01*
X26624072Y72419154D01*
X26587303Y72345615D01*
X26587303Y72161768D01*
X26624072Y72088229D01*
X26660842Y72051459D01*
X26734381Y72014690D01*
X26954998Y72014690D01*
X27028537Y72051459D01*
X27065306Y72088229D01*
X32679546Y78307459D02*
X32569237Y78270690D01*
X32385390Y78270690D01*
X32311851Y78307459D01*
X32275081Y78344229D01*
X32238312Y78417768D01*
X32238312Y78491307D01*
X32275081Y78564846D01*
X32311851Y78601615D01*
X32385390Y78638385D01*
X32532468Y78675154D01*
X32606007Y78711924D01*
X32642776Y78748693D01*
X32679546Y78822232D01*
X32679546Y78895771D01*
X32642776Y78969310D01*
X32606007Y79006080D01*
X32532468Y79042850D01*
X32348620Y79042850D01*
X32238312Y79006080D01*
X31980925Y79042850D02*
X31797078Y78270690D01*
X31650000Y78822232D01*
X31502922Y78270690D01*
X31319074Y79042850D01*
X31098456Y79042850D02*
X30620453Y79042850D01*
X30877839Y78748693D01*
X30767531Y78748693D01*
X30693992Y78711924D01*
X30657222Y78675154D01*
X30620453Y78601615D01*
X30620453Y78417768D01*
X30657222Y78344229D01*
X30693992Y78307459D01*
X30767531Y78270690D01*
X30988148Y78270690D01*
X31061687Y78307459D01*
X31098456Y78344229D01*
M02*
