G04 #@! TF.FileFunction,Soldermask,Top*
%FSLAX46Y46*%
G04 Gerber Fmt 4.6, Leading zero omitted, Abs format (unit mm)*
G04 Created by KiCad (PCBNEW 4.0.0-rc2-stable) date 17/02/2016 11:29:29*
%MOMM*%
G01*
G04 APERTURE LIST*
%ADD10C,0.100000*%
%ADD11R,1.150000X1.150000*%
%ADD12C,1.150000*%
%ADD13R,0.850000X0.900000*%
%ADD14R,0.900000X0.850000*%
%ADD15O,1.900000X2.600000*%
%ADD16R,1.100760X1.999920*%
%ADD17R,1.100000X1.050000*%
%ADD18R,1.050000X1.100000*%
%ADD19R,0.897560X0.897560*%
%ADD20R,2.401240X0.600380*%
%ADD21R,2.599360X2.098980*%
%ADD22C,0.999160*%
%ADD23R,1.350000X1.100000*%
%ADD24R,1.100000X1.350000*%
%ADD25R,1.400000X0.350000*%
%ADD26R,0.350000X1.400000*%
%ADD27R,1.243000X0.608000*%
%ADD28R,0.900100X0.900100*%
%ADD29R,1.550000X0.550000*%
%ADD30C,1.088060*%
%ADD31C,1.085520*%
%ADD32R,3.757600X2.132000*%
%ADD33R,1.116000X2.132000*%
%ADD34R,1.100000X1.300000*%
%ADD35R,2.100000X1.700000*%
%ADD36R,2.700000X2.000000*%
G04 APERTURE END LIST*
D10*
D11*
X72660000Y81762000D03*
D12*
X72660000Y83032000D03*
X72660000Y84302000D03*
X72660000Y85572000D03*
X72660000Y86842000D03*
X71390000Y83032000D03*
X71390000Y84302000D03*
X71390000Y85572000D03*
X71390000Y86842000D03*
X71390000Y81762000D03*
D13*
X56912000Y78472000D03*
X56912000Y79972000D03*
D14*
X48034000Y86334000D03*
X49534000Y86334000D03*
D15*
X36084000Y94716000D03*
X38624000Y94716000D03*
X41164000Y94716000D03*
X43704000Y94716000D03*
D16*
X42002200Y90652000D03*
X38801800Y90652000D03*
D17*
X56150000Y93662000D03*
X56150000Y95262000D03*
D18*
X39868000Y74142000D03*
X41468000Y74142000D03*
D19*
X71517000Y73392700D03*
X71517000Y74891300D03*
D20*
X31849320Y85902200D03*
X31849320Y85102100D03*
X31849320Y84302000D03*
X31849320Y83501900D03*
X31849320Y82701800D03*
D21*
X31750260Y88752080D03*
X26251160Y88752080D03*
X31750260Y79851920D03*
X26251160Y79851920D03*
D22*
X29250900Y86501640D03*
X29250900Y82102360D03*
D13*
X54372000Y81774000D03*
X54372000Y83274000D03*
X35068000Y77202000D03*
X35068000Y78702000D03*
X54372000Y86576000D03*
X54372000Y85076000D03*
D14*
X45712000Y75158000D03*
X44212000Y75158000D03*
D13*
X36592000Y77202000D03*
X36592000Y78702000D03*
X27448000Y73900000D03*
X27448000Y75400000D03*
X38624000Y85584000D03*
X38624000Y87084000D03*
X32528000Y75400000D03*
X32528000Y73900000D03*
X47768000Y76924000D03*
X47768000Y75424000D03*
X72660000Y96252000D03*
X72660000Y97752000D03*
D14*
X56658000Y99288000D03*
X58158000Y99288000D03*
D13*
X67580000Y97752000D03*
X67580000Y96252000D03*
X66310000Y80988000D03*
X66310000Y79488000D03*
D23*
X36846000Y90160000D03*
X36846000Y92160000D03*
D24*
X62516000Y79476000D03*
X64516000Y79476000D03*
D14*
X49534000Y88366000D03*
X48034000Y88366000D03*
D19*
X29702000Y96049300D03*
X29702000Y94550700D03*
X31384000Y96049300D03*
X31384000Y94550700D03*
X27892000Y96049300D03*
X27892000Y94550700D03*
X26082000Y96049300D03*
X26082000Y94550700D03*
X73295000Y73392700D03*
X73295000Y74891300D03*
D25*
X47546000Y78550000D03*
X47546000Y79050000D03*
X47546000Y79550000D03*
X47546000Y80050000D03*
X47546000Y80550000D03*
X47546000Y81050000D03*
X47546000Y81550000D03*
X47546000Y82050000D03*
X47546000Y82550000D03*
X47546000Y83050000D03*
X47546000Y83550000D03*
X47546000Y84050000D03*
D26*
X45946000Y85650000D03*
X45446000Y85650000D03*
X44946000Y85650000D03*
X44446000Y85650000D03*
X43946000Y85650000D03*
X43446000Y85650000D03*
X42946000Y85650000D03*
X42446000Y85650000D03*
X41946000Y85650000D03*
X41446000Y85650000D03*
X40946000Y85650000D03*
X40446000Y85650000D03*
D25*
X38846000Y84050000D03*
X38846000Y83550000D03*
X38846000Y83050000D03*
X38846000Y82550000D03*
X38846000Y82050000D03*
X38846000Y81550000D03*
X38846000Y81050000D03*
X38846000Y80550000D03*
X38846000Y80050000D03*
X38846000Y79550000D03*
X38846000Y79050000D03*
X38846000Y78550000D03*
D26*
X40446000Y76950000D03*
X40946000Y76950000D03*
X41446000Y76950000D03*
X41946000Y76950000D03*
X42446000Y76950000D03*
X42946000Y76950000D03*
X43446000Y76950000D03*
X43946000Y76950000D03*
X44446000Y76950000D03*
X44946000Y76950000D03*
X45446000Y76950000D03*
X45946000Y76950000D03*
D27*
X55769000Y78333000D03*
X55769000Y75793000D03*
X55769000Y74523000D03*
X55769000Y73253000D03*
X55769000Y71983000D03*
X55769000Y70713000D03*
X55769000Y69443000D03*
X49419000Y69443000D03*
X49419000Y70713000D03*
X49419000Y71983000D03*
X49419000Y73253000D03*
X49419000Y74523000D03*
X49419000Y75793000D03*
X49419000Y77063000D03*
X49419000Y78333000D03*
X55769000Y77063000D03*
X54499000Y99161000D03*
X54499000Y96621000D03*
X54499000Y95351000D03*
X54499000Y94081000D03*
X54499000Y92811000D03*
X54499000Y91541000D03*
X54499000Y90271000D03*
X48149000Y90271000D03*
X48149000Y91541000D03*
X48149000Y92811000D03*
X48149000Y94081000D03*
X48149000Y95351000D03*
X48149000Y96621000D03*
X48149000Y97891000D03*
X48149000Y99161000D03*
X54499000Y97891000D03*
D28*
X30988760Y73700000D03*
X30988760Y75600000D03*
X28989780Y74650000D03*
X71070000Y98002760D03*
X69170000Y98002760D03*
X70120000Y96003780D03*
X64598000Y75427240D03*
X66498000Y75427240D03*
X65548000Y77426220D03*
X69800000Y77428760D03*
X67900000Y77428760D03*
X68850000Y75429780D03*
D29*
X63926000Y92045000D03*
X63926000Y92695000D03*
X63926000Y93345000D03*
X63926000Y93995000D03*
X63926000Y94645000D03*
X63926000Y95295000D03*
X63926000Y95945000D03*
X63926000Y96595000D03*
X63926000Y97245000D03*
X63926000Y97895000D03*
X58026000Y97895000D03*
X58026000Y97245000D03*
X58026000Y96595000D03*
X58026000Y95945000D03*
X58026000Y95295000D03*
X58026000Y94645000D03*
X58026000Y93995000D03*
X58026000Y93345000D03*
X58026000Y92695000D03*
X58026000Y92045000D03*
D30*
X28210000Y70840000D03*
D31*
X33290000Y69824000D03*
X33290000Y71856000D03*
D32*
X61738000Y88366000D03*
D33*
X61738000Y81762000D03*
X64024000Y81762000D03*
X59452000Y81762000D03*
D34*
X60278000Y72840000D03*
X62278000Y72840000D03*
X64278000Y72840000D03*
X68278000Y72840000D03*
D35*
X35886000Y71300000D03*
X42886000Y71300000D03*
D18*
X36884000Y83286000D03*
X35284000Y83286000D03*
X36884000Y81762000D03*
X35284000Y81762000D03*
X35284000Y80238000D03*
X36884000Y80238000D03*
X35284000Y84810000D03*
X36884000Y84810000D03*
X36884000Y86334000D03*
X35284000Y86334000D03*
D17*
X73295000Y76204000D03*
X73295000Y77804000D03*
X29702000Y93100000D03*
X29702000Y91500000D03*
X31512000Y93100000D03*
X31512000Y91500000D03*
X27892000Y93100000D03*
X27892000Y91500000D03*
X26082000Y93100000D03*
X26082000Y91500000D03*
D18*
X44682000Y89382000D03*
X46282000Y89382000D03*
X61014000Y76174000D03*
X59414000Y76174000D03*
X43412000Y73380000D03*
X45012000Y73380000D03*
X61014000Y77952000D03*
X59414000Y77952000D03*
X61026000Y79730000D03*
X59426000Y79730000D03*
D17*
X62754000Y77736000D03*
X62754000Y76136000D03*
D18*
X69396000Y78968000D03*
X67796000Y78968000D03*
D17*
X71517000Y76204000D03*
X71517000Y77804000D03*
X47822000Y73270000D03*
X47822000Y71670000D03*
X57166000Y72148000D03*
X57166000Y70548000D03*
D36*
X51832000Y81136000D03*
X51832000Y85436000D03*
M02*
