G04 #@! TF.FileFunction,Legend,Top*
%FSLAX46Y46*%
G04 Gerber Fmt 4.6, Leading zero omitted, Abs format (unit mm)*
G04 Created by KiCad (PCBNEW 4.0.0-rc2-stable) date 17/02/2016 11:29:29*
%MOMM*%
G01*
G04 APERTURE LIST*
%ADD10C,0.100000*%
%ADD11C,0.200000*%
%ADD12C,0.150000*%
%ADD13C,0.105000*%
G04 APERTURE END LIST*
D10*
D11*
X72670381Y72594761D02*
X73770381Y72594761D01*
X73770381Y72175714D01*
X73718000Y72070952D01*
X73665619Y72018571D01*
X73560857Y71966190D01*
X73403714Y71966190D01*
X73298952Y72018571D01*
X73246571Y72070952D01*
X73194190Y72175714D01*
X73194190Y72594761D01*
X73403714Y71651904D02*
X73403714Y71232856D01*
X73770381Y71494761D02*
X72827524Y71494761D01*
X72722762Y71442380D01*
X72670381Y71337618D01*
X72670381Y71232856D01*
X72670381Y70866190D02*
X73403714Y70866190D01*
X73194190Y70866190D02*
X73298952Y70813809D01*
X73351333Y70761428D01*
X73403714Y70656666D01*
X73403714Y70551905D01*
X73403714Y69713810D02*
X72513238Y69713810D01*
X72408476Y69766191D01*
X72356095Y69818572D01*
X72303714Y69923333D01*
X72303714Y70080476D01*
X72356095Y70185238D01*
X72722762Y69713810D02*
X72670381Y69818572D01*
X72670381Y70028095D01*
X72722762Y70132857D01*
X72775143Y70185238D01*
X72879905Y70237619D01*
X73194190Y70237619D01*
X73298952Y70185238D01*
X73351333Y70132857D01*
X73403714Y70028095D01*
X73403714Y69818572D01*
X73351333Y69713810D01*
X73403714Y69347143D02*
X73403714Y68928095D01*
X73770381Y69190000D02*
X72827524Y69190000D01*
X72722762Y69137619D01*
X72670381Y69032857D01*
X72670381Y68928095D01*
X70892381Y72691618D02*
X71992381Y72691618D01*
X71992381Y72272571D01*
X71940000Y72167809D01*
X71887619Y72115428D01*
X71782857Y72063047D01*
X71625714Y72063047D01*
X71520952Y72115428D01*
X71468571Y72167809D01*
X71416190Y72272571D01*
X71416190Y72691618D01*
X70892381Y71434475D02*
X70944762Y71539237D01*
X70997143Y71591618D01*
X71101905Y71643999D01*
X71416190Y71643999D01*
X71520952Y71591618D01*
X71573333Y71539237D01*
X71625714Y71434475D01*
X71625714Y71277333D01*
X71573333Y71172571D01*
X71520952Y71120190D01*
X71416190Y71067809D01*
X71101905Y71067809D01*
X70997143Y71120190D01*
X70944762Y71172571D01*
X70892381Y71277333D01*
X70892381Y71434475D01*
X71625714Y70124952D02*
X70892381Y70124952D01*
X71625714Y70596380D02*
X71049524Y70596380D01*
X70944762Y70543999D01*
X70892381Y70439237D01*
X70892381Y70282095D01*
X70944762Y70177333D01*
X70997143Y70124952D01*
X71625714Y69758285D02*
X71625714Y69339237D01*
X71992381Y69601142D02*
X71049524Y69601142D01*
X70944762Y69548761D01*
X70892381Y69443999D01*
X70892381Y69339237D01*
X26675619Y96805334D02*
X25575619Y96805334D01*
X25575619Y97224381D01*
X25628000Y97329143D01*
X25680381Y97381524D01*
X25785143Y97433905D01*
X25942286Y97433905D01*
X26047048Y97381524D01*
X26099429Y97329143D01*
X26151810Y97224381D01*
X26151810Y96805334D01*
X25575619Y97800572D02*
X26675619Y98062477D01*
X25889905Y98272000D01*
X26675619Y98481524D01*
X25575619Y98743429D01*
X26675619Y99791048D02*
X26151810Y99424382D01*
X26675619Y99162477D02*
X25575619Y99162477D01*
X25575619Y99581524D01*
X25628000Y99686286D01*
X25680381Y99738667D01*
X25785143Y99791048D01*
X25942286Y99791048D01*
X26047048Y99738667D01*
X26099429Y99686286D01*
X26151810Y99581524D01*
X26151810Y99162477D01*
D12*
X70560000Y80962000D02*
X71360000Y80962000D01*
X70560000Y87612000D02*
X70560000Y80962000D01*
X70560000Y87612000D02*
X73510000Y87612000D01*
X73510000Y87612000D02*
X73510000Y83062000D01*
X72160000Y80962000D02*
X73510000Y80962000D01*
X73510000Y80962000D02*
X73510000Y82262000D01*
X56312000Y78872000D02*
X56312000Y79572000D01*
X57512000Y79572000D02*
X57512000Y78872000D01*
X48434000Y86934000D02*
X49134000Y86934000D01*
X49134000Y85734000D02*
X48434000Y85734000D01*
X33894000Y100216000D02*
X33894000Y93216000D01*
X33894000Y93216000D02*
X45894000Y93216000D01*
X45894000Y93216000D02*
X45894000Y100216000D01*
X45894000Y100216000D02*
X33894000Y100216000D01*
X40902380Y89351520D02*
X39901620Y89351520D01*
X40902380Y91952480D02*
X39901620Y91952480D01*
D10*
X55400000Y95962000D02*
X55400000Y92962000D01*
X55400000Y92962000D02*
X56900000Y92962000D01*
X56900000Y92962000D02*
X56900000Y95962000D01*
X56900000Y95962000D02*
X55400000Y95962000D01*
X42168000Y74892000D02*
X39168000Y74892000D01*
X39168000Y74892000D02*
X39168000Y73392000D01*
X39168000Y73392000D02*
X42168000Y73392000D01*
X42168000Y73392000D02*
X42168000Y74892000D01*
D12*
X70967000Y75242000D02*
X70967000Y73342000D01*
X72067000Y75242000D02*
X72067000Y73342000D01*
X71517000Y74342000D02*
X71517000Y73892000D01*
X71767000Y74392000D02*
X71267000Y74392000D01*
X71517000Y74392000D02*
X71767000Y74142000D01*
X71767000Y74142000D02*
X71267000Y74142000D01*
X71267000Y74142000D02*
X71517000Y74392000D01*
X24800820Y88152640D02*
X24800820Y80451360D01*
X23800060Y88152640D02*
X23800060Y80451360D01*
X23800060Y80451360D02*
X32999940Y80451360D01*
X32999940Y80451360D02*
X32999940Y88152640D01*
X32999940Y88152640D02*
X23800060Y88152640D01*
X53772000Y82174000D02*
X53772000Y82874000D01*
X54972000Y82874000D02*
X54972000Y82174000D01*
X34468000Y77602000D02*
X34468000Y78302000D01*
X35668000Y78302000D02*
X35668000Y77602000D01*
X54972000Y86176000D02*
X54972000Y85476000D01*
X53772000Y85476000D02*
X53772000Y86176000D01*
X45312000Y74558000D02*
X44612000Y74558000D01*
X44612000Y75758000D02*
X45312000Y75758000D01*
X35992000Y77602000D02*
X35992000Y78302000D01*
X37192000Y78302000D02*
X37192000Y77602000D01*
X26848000Y74300000D02*
X26848000Y75000000D01*
X28048000Y75000000D02*
X28048000Y74300000D01*
X38024000Y85984000D02*
X38024000Y86684000D01*
X39224000Y86684000D02*
X39224000Y85984000D01*
X33128000Y75000000D02*
X33128000Y74300000D01*
X31928000Y74300000D02*
X31928000Y75000000D01*
X48368000Y76524000D02*
X48368000Y75824000D01*
X47168000Y75824000D02*
X47168000Y76524000D01*
X72060000Y96652000D02*
X72060000Y97352000D01*
X73260000Y97352000D02*
X73260000Y96652000D01*
X57058000Y99888000D02*
X57758000Y99888000D01*
X57758000Y98688000D02*
X57058000Y98688000D01*
X68180000Y97352000D02*
X68180000Y96652000D01*
X66980000Y96652000D02*
X66980000Y97352000D01*
X66910000Y80588000D02*
X66910000Y79888000D01*
X65710000Y79888000D02*
X65710000Y80588000D01*
X35996000Y91660000D02*
X35996000Y90660000D01*
X37696000Y90660000D02*
X37696000Y91660000D01*
X64016000Y80326000D02*
X63016000Y80326000D01*
X63016000Y78626000D02*
X64016000Y78626000D01*
X49134000Y87766000D02*
X48434000Y87766000D01*
X48434000Y88966000D02*
X49134000Y88966000D01*
X30252000Y94200000D02*
X30252000Y96100000D01*
X29152000Y94200000D02*
X29152000Y96100000D01*
X29702000Y95100000D02*
X29702000Y95550000D01*
X29452000Y95050000D02*
X29952000Y95050000D01*
X29702000Y95050000D02*
X29452000Y95300000D01*
X29452000Y95300000D02*
X29952000Y95300000D01*
X29952000Y95300000D02*
X29702000Y95050000D01*
X31934000Y94200000D02*
X31934000Y96100000D01*
X30834000Y94200000D02*
X30834000Y96100000D01*
X31384000Y95100000D02*
X31384000Y95550000D01*
X31134000Y95050000D02*
X31634000Y95050000D01*
X31384000Y95050000D02*
X31134000Y95300000D01*
X31134000Y95300000D02*
X31634000Y95300000D01*
X31634000Y95300000D02*
X31384000Y95050000D01*
X28442000Y94200000D02*
X28442000Y96100000D01*
X27342000Y94200000D02*
X27342000Y96100000D01*
X27892000Y95100000D02*
X27892000Y95550000D01*
X27642000Y95050000D02*
X28142000Y95050000D01*
X27892000Y95050000D02*
X27642000Y95300000D01*
X27642000Y95300000D02*
X28142000Y95300000D01*
X28142000Y95300000D02*
X27892000Y95050000D01*
X26632000Y94200000D02*
X26632000Y96100000D01*
X25532000Y94200000D02*
X25532000Y96100000D01*
X26082000Y95100000D02*
X26082000Y95550000D01*
X25832000Y95050000D02*
X26332000Y95050000D01*
X26082000Y95050000D02*
X25832000Y95300000D01*
X25832000Y95300000D02*
X26332000Y95300000D01*
X26332000Y95300000D02*
X26082000Y95050000D01*
X72745000Y75242000D02*
X72745000Y73342000D01*
X73845000Y75242000D02*
X73845000Y73342000D01*
X73295000Y74342000D02*
X73295000Y73892000D01*
X73545000Y74392000D02*
X73045000Y74392000D01*
X73295000Y74392000D02*
X73545000Y74142000D01*
X73545000Y74142000D02*
X73045000Y74142000D01*
X73045000Y74142000D02*
X73295000Y74392000D01*
X46821000Y77675000D02*
X46821000Y78200000D01*
X39571000Y77675000D02*
X39571000Y78200000D01*
X39571000Y84925000D02*
X39571000Y84400000D01*
X46821000Y84925000D02*
X46821000Y84400000D01*
X46821000Y77675000D02*
X46296000Y77675000D01*
X46821000Y84925000D02*
X46296000Y84925000D01*
X39571000Y84925000D02*
X40096000Y84925000D01*
X39571000Y77675000D02*
X40096000Y77675000D01*
X46821000Y78200000D02*
X48196000Y78200000D01*
X53356000Y79476000D02*
X53356000Y78714000D01*
X53356000Y78714000D02*
X51832000Y78714000D01*
X51832000Y78714000D02*
X51832000Y79476000D01*
X54880000Y68300000D02*
X50308000Y68300000D01*
X50308000Y68300000D02*
X50308000Y79476000D01*
X50308000Y79476000D02*
X54880000Y79476000D01*
X54880000Y79476000D02*
X54880000Y68300000D01*
X52086000Y100304000D02*
X52086000Y99542000D01*
X52086000Y99542000D02*
X50562000Y99542000D01*
X50562000Y99542000D02*
X50562000Y100304000D01*
X53610000Y89128000D02*
X49038000Y89128000D01*
X49038000Y89128000D02*
X49038000Y100304000D01*
X49038000Y100304000D02*
X53610000Y100304000D01*
X53610000Y100304000D02*
X53610000Y89128000D01*
X29337760Y75949160D02*
X29337760Y75900900D01*
X30038800Y73150180D02*
X29337760Y73150180D01*
X29337760Y73150180D02*
X29337760Y73399100D01*
X29337760Y75949160D02*
X29337760Y76149820D01*
X29337760Y76149820D02*
X30038800Y76149820D01*
X68820840Y96351760D02*
X68869100Y96351760D01*
X71619820Y97052800D02*
X71619820Y96351760D01*
X71619820Y96351760D02*
X71370900Y96351760D01*
X68820840Y96351760D02*
X68620180Y96351760D01*
X68620180Y96351760D02*
X68620180Y97052800D01*
X66847160Y77078240D02*
X66798900Y77078240D01*
X64048180Y76377200D02*
X64048180Y77078240D01*
X64048180Y77078240D02*
X64297100Y77078240D01*
X66847160Y77078240D02*
X67047820Y77078240D01*
X67047820Y77078240D02*
X67047820Y76377200D01*
X67550840Y75777760D02*
X67599100Y75777760D01*
X70349820Y76478800D02*
X70349820Y75777760D01*
X70349820Y75777760D02*
X70100900Y75777760D01*
X67550840Y75777760D02*
X67350180Y75777760D01*
X67350180Y75777760D02*
X67350180Y76478800D01*
X63201000Y98345000D02*
X58751000Y98345000D01*
X64726000Y91595000D02*
X58751000Y91595000D01*
X58182000Y83540000D02*
X58182000Y80492000D01*
X58182000Y80492000D02*
X65294000Y80492000D01*
X65294000Y80492000D02*
X65294000Y83540000D01*
X58182000Y86588000D02*
X58182000Y87350000D01*
X58182000Y87350000D02*
X59706000Y89636000D01*
X59706000Y89636000D02*
X63770000Y89636000D01*
X63770000Y89636000D02*
X65294000Y87350000D01*
X65294000Y87350000D02*
X65294000Y86588000D01*
X69278000Y72340000D02*
X69028000Y72340000D01*
X69278000Y69340000D02*
X69278000Y72340000D01*
X59278000Y69340000D02*
X69278000Y69340000D01*
X59278000Y72340000D02*
X59278000Y69340000D01*
X59528000Y72340000D02*
X59278000Y72340000D01*
X67528000Y72340000D02*
X65028000Y72340000D01*
X61528000Y72340000D02*
X61028000Y72340000D01*
X63528000Y72340000D02*
X63028000Y72340000D01*
X40786000Y70600000D02*
X37986000Y70600000D01*
X37986000Y70600000D02*
X37986000Y72000000D01*
X37986000Y72000000D02*
X40786000Y72000000D01*
X40786000Y72000000D02*
X40786000Y70600000D01*
X36386000Y69550000D02*
X36386000Y70200000D01*
X36386000Y73050000D02*
X36386000Y72400000D01*
X42386000Y72400000D02*
X42386000Y73050000D01*
X42386000Y69550000D02*
X42386000Y70200000D01*
X36386000Y69550000D02*
X42386000Y69550000D01*
X42386000Y73050000D02*
X36386000Y73050000D01*
D10*
X34584000Y82536000D02*
X37584000Y82536000D01*
X37584000Y82536000D02*
X37584000Y84036000D01*
X37584000Y84036000D02*
X34584000Y84036000D01*
X34584000Y84036000D02*
X34584000Y82536000D01*
X34584000Y81012000D02*
X37584000Y81012000D01*
X37584000Y81012000D02*
X37584000Y82512000D01*
X37584000Y82512000D02*
X34584000Y82512000D01*
X34584000Y82512000D02*
X34584000Y81012000D01*
X37584000Y80988000D02*
X34584000Y80988000D01*
X34584000Y80988000D02*
X34584000Y79488000D01*
X34584000Y79488000D02*
X37584000Y79488000D01*
X37584000Y79488000D02*
X37584000Y80988000D01*
X37584000Y85560000D02*
X34584000Y85560000D01*
X34584000Y85560000D02*
X34584000Y84060000D01*
X34584000Y84060000D02*
X37584000Y84060000D01*
X37584000Y84060000D02*
X37584000Y85560000D01*
X34584000Y85584000D02*
X37584000Y85584000D01*
X37584000Y85584000D02*
X37584000Y87084000D01*
X37584000Y87084000D02*
X34584000Y87084000D01*
X34584000Y87084000D02*
X34584000Y85584000D01*
X72545000Y78504000D02*
X72545000Y75504000D01*
X72545000Y75504000D02*
X74045000Y75504000D01*
X74045000Y75504000D02*
X74045000Y78504000D01*
X74045000Y78504000D02*
X72545000Y78504000D01*
X30452000Y90800000D02*
X30452000Y93800000D01*
X30452000Y93800000D02*
X28952000Y93800000D01*
X28952000Y93800000D02*
X28952000Y90800000D01*
X28952000Y90800000D02*
X30452000Y90800000D01*
X32262000Y90800000D02*
X32262000Y93800000D01*
X32262000Y93800000D02*
X30762000Y93800000D01*
X30762000Y93800000D02*
X30762000Y90800000D01*
X30762000Y90800000D02*
X32262000Y90800000D01*
X28642000Y90800000D02*
X28642000Y93800000D01*
X28642000Y93800000D02*
X27142000Y93800000D01*
X27142000Y93800000D02*
X27142000Y90800000D01*
X27142000Y90800000D02*
X28642000Y90800000D01*
X26832000Y90800000D02*
X26832000Y93800000D01*
X26832000Y93800000D02*
X25332000Y93800000D01*
X25332000Y93800000D02*
X25332000Y90800000D01*
X25332000Y90800000D02*
X26832000Y90800000D01*
X46982000Y90132000D02*
X43982000Y90132000D01*
X43982000Y90132000D02*
X43982000Y88632000D01*
X43982000Y88632000D02*
X46982000Y88632000D01*
X46982000Y88632000D02*
X46982000Y90132000D01*
X58714000Y75424000D02*
X61714000Y75424000D01*
X61714000Y75424000D02*
X61714000Y76924000D01*
X61714000Y76924000D02*
X58714000Y76924000D01*
X58714000Y76924000D02*
X58714000Y75424000D01*
X45712000Y74130000D02*
X42712000Y74130000D01*
X42712000Y74130000D02*
X42712000Y72630000D01*
X42712000Y72630000D02*
X45712000Y72630000D01*
X45712000Y72630000D02*
X45712000Y74130000D01*
X58714000Y77202000D02*
X61714000Y77202000D01*
X61714000Y77202000D02*
X61714000Y78702000D01*
X61714000Y78702000D02*
X58714000Y78702000D01*
X58714000Y78702000D02*
X58714000Y77202000D01*
X58726000Y78980000D02*
X61726000Y78980000D01*
X61726000Y78980000D02*
X61726000Y80480000D01*
X61726000Y80480000D02*
X58726000Y80480000D01*
X58726000Y80480000D02*
X58726000Y78980000D01*
X63504000Y75436000D02*
X63504000Y78436000D01*
X63504000Y78436000D02*
X62004000Y78436000D01*
X62004000Y78436000D02*
X62004000Y75436000D01*
X62004000Y75436000D02*
X63504000Y75436000D01*
X67096000Y78218000D02*
X70096000Y78218000D01*
X70096000Y78218000D02*
X70096000Y79718000D01*
X70096000Y79718000D02*
X67096000Y79718000D01*
X67096000Y79718000D02*
X67096000Y78218000D01*
X70767000Y78504000D02*
X70767000Y75504000D01*
X70767000Y75504000D02*
X72267000Y75504000D01*
X72267000Y75504000D02*
X72267000Y78504000D01*
X72267000Y78504000D02*
X70767000Y78504000D01*
X48572000Y70970000D02*
X48572000Y73970000D01*
X48572000Y73970000D02*
X47072000Y73970000D01*
X47072000Y73970000D02*
X47072000Y70970000D01*
X47072000Y70970000D02*
X48572000Y70970000D01*
X57916000Y69848000D02*
X57916000Y72848000D01*
X57916000Y72848000D02*
X56416000Y72848000D01*
X56416000Y72848000D02*
X56416000Y69848000D01*
X56416000Y69848000D02*
X57916000Y69848000D01*
D12*
X53582000Y86036000D02*
X53332000Y86286000D01*
X53582000Y80536000D02*
X53582000Y86036000D01*
X53332000Y80286000D02*
X53582000Y80536000D01*
X50082000Y80536000D02*
X50332000Y80286000D01*
X50082000Y83286000D02*
X50082000Y80536000D01*
X50082000Y86036000D02*
X50332000Y86286000D01*
X50082000Y83286000D02*
X50082000Y86036000D01*
D13*
X71894614Y89296850D02*
X71894614Y88745307D01*
X71857844Y88634998D01*
X71784305Y88561459D01*
X71673997Y88524690D01*
X71600458Y88524690D01*
X72666773Y88524690D02*
X72225539Y88524690D01*
X72446156Y88524690D02*
X72446156Y89296850D01*
X72372617Y89186541D01*
X72299078Y89113002D01*
X72225539Y89076232D01*
X55929771Y79487612D02*
X55966541Y79450842D01*
X56003310Y79340534D01*
X56003310Y79266995D01*
X55966541Y79156686D01*
X55893002Y79083147D01*
X55819463Y79046378D01*
X55672385Y79009608D01*
X55562076Y79009608D01*
X55414998Y79046378D01*
X55341459Y79083147D01*
X55267920Y79156686D01*
X55231150Y79266995D01*
X55231150Y79340534D01*
X55267920Y79450842D01*
X55304690Y79487612D01*
X56003310Y80223002D02*
X56003310Y79781768D01*
X56003310Y80002385D02*
X55231150Y80002385D01*
X55341459Y79928846D01*
X55414998Y79855307D01*
X55451768Y79781768D01*
X56003310Y80590697D02*
X56003310Y80737775D01*
X55966541Y80811314D01*
X55929771Y80848084D01*
X55819463Y80921623D01*
X55672385Y80958392D01*
X55378229Y80958392D01*
X55304690Y80921623D01*
X55267920Y80884853D01*
X55231150Y80811314D01*
X55231150Y80664236D01*
X55267920Y80590697D01*
X55304690Y80553928D01*
X55378229Y80517158D01*
X55562076Y80517158D01*
X55635615Y80553928D01*
X55672385Y80590697D01*
X55709154Y80664236D01*
X55709154Y80811314D01*
X55672385Y80884853D01*
X55635615Y80921623D01*
X55562076Y80958392D01*
X50687307Y86820229D02*
X50650537Y86783459D01*
X50540229Y86746690D01*
X50466690Y86746690D01*
X50356381Y86783459D01*
X50282842Y86856998D01*
X50246073Y86930537D01*
X50209303Y87077615D01*
X50209303Y87187924D01*
X50246073Y87335002D01*
X50282842Y87408541D01*
X50356381Y87482080D01*
X50466690Y87518850D01*
X50540229Y87518850D01*
X50650537Y87482080D01*
X50687307Y87445310D01*
X50944694Y87518850D02*
X51422697Y87518850D01*
X51165311Y87224693D01*
X51275619Y87224693D01*
X51349158Y87187924D01*
X51385928Y87151154D01*
X51422697Y87077615D01*
X51422697Y86893768D01*
X51385928Y86820229D01*
X51349158Y86783459D01*
X51275619Y86746690D01*
X51055002Y86746690D01*
X50981463Y86783459D01*
X50944694Y86820229D01*
X43877688Y92852850D02*
X43877688Y92227768D01*
X43914457Y92154229D01*
X43951227Y92117459D01*
X44024766Y92080690D01*
X44171844Y92080690D01*
X44245383Y92117459D01*
X44282152Y92154229D01*
X44318922Y92227768D01*
X44318922Y92852850D01*
X44649848Y92779310D02*
X44686618Y92816080D01*
X44760157Y92852850D01*
X44944004Y92852850D01*
X45017543Y92816080D01*
X45054313Y92779310D01*
X45091082Y92705771D01*
X45091082Y92632232D01*
X45054313Y92521924D01*
X44613079Y92080690D01*
X45091082Y92080690D01*
X40273307Y88270690D02*
X39905612Y88270690D01*
X39905612Y89042850D01*
X40935158Y88270690D02*
X40493924Y88270690D01*
X40714541Y88270690D02*
X40714541Y89042850D01*
X40641002Y88932541D01*
X40567463Y88859002D01*
X40493924Y88822232D01*
X56367230Y96865082D02*
X55999535Y96607695D01*
X56367230Y96423848D02*
X55595070Y96423848D01*
X55595070Y96718004D01*
X55631840Y96791543D01*
X55668610Y96828312D01*
X55742149Y96865082D01*
X55852457Y96865082D01*
X55925996Y96828312D01*
X55962766Y96791543D01*
X55999535Y96718004D01*
X55999535Y96423848D01*
X56367230Y97600472D02*
X56367230Y97159238D01*
X56367230Y97379855D02*
X55595070Y97379855D01*
X55705379Y97306316D01*
X55778918Y97232777D01*
X55815688Y97159238D01*
X55595070Y97857859D02*
X55595070Y98335862D01*
X55889227Y98078476D01*
X55889227Y98188784D01*
X55925996Y98262323D01*
X55962766Y98299093D01*
X56036305Y98335862D01*
X56220152Y98335862D01*
X56293691Y98299093D01*
X56330461Y98262323D01*
X56367230Y98188784D01*
X56367230Y97968167D01*
X56330461Y97894628D01*
X56293691Y97857859D01*
X39734176Y75077848D02*
X39476789Y75445543D01*
X39292942Y75077848D02*
X39292942Y75850008D01*
X39587098Y75850008D01*
X39660637Y75813238D01*
X39697406Y75776468D01*
X39734176Y75702929D01*
X39734176Y75592621D01*
X39697406Y75519082D01*
X39660637Y75482312D01*
X39587098Y75445543D01*
X39292942Y75445543D01*
X40469566Y75077848D02*
X40028332Y75077848D01*
X40248949Y75077848D02*
X40248949Y75850008D01*
X40175410Y75739699D01*
X40101871Y75666160D01*
X40028332Y75629390D01*
X28402073Y79058690D02*
X28402073Y79830850D01*
X28696229Y79830850D01*
X28769768Y79794080D01*
X28806537Y79757310D01*
X28843307Y79683771D01*
X28843307Y79573463D01*
X28806537Y79499924D01*
X28769768Y79463154D01*
X28696229Y79426385D01*
X28402073Y79426385D01*
X29578697Y79058690D02*
X29137463Y79058690D01*
X29358080Y79058690D02*
X29358080Y79830850D01*
X29284541Y79720541D01*
X29211002Y79647002D01*
X29137463Y79610232D01*
X56171771Y82395307D02*
X56208541Y82358537D01*
X56245310Y82248229D01*
X56245310Y82174690D01*
X56208541Y82064381D01*
X56135002Y81990842D01*
X56061463Y81954073D01*
X55914385Y81917303D01*
X55804076Y81917303D01*
X55656998Y81954073D01*
X55583459Y81990842D01*
X55509920Y82064381D01*
X55473150Y82174690D01*
X55473150Y82248229D01*
X55509920Y82358537D01*
X55546690Y82395307D01*
X56245310Y83130697D02*
X56245310Y82689463D01*
X56245310Y82910080D02*
X55473150Y82910080D01*
X55583459Y82836541D01*
X55656998Y82763002D01*
X55693768Y82689463D01*
X35343771Y75791307D02*
X35380541Y75754537D01*
X35417310Y75644229D01*
X35417310Y75570690D01*
X35380541Y75460381D01*
X35307002Y75386842D01*
X35233463Y75350073D01*
X35086385Y75313303D01*
X34976076Y75313303D01*
X34828998Y75350073D01*
X34755459Y75386842D01*
X34681920Y75460381D01*
X34645150Y75570690D01*
X34645150Y75644229D01*
X34681920Y75754537D01*
X34718690Y75791307D01*
X34718690Y76085463D02*
X34681920Y76122233D01*
X34645150Y76195772D01*
X34645150Y76379619D01*
X34681920Y76453158D01*
X34718690Y76489928D01*
X34792229Y76526697D01*
X34865768Y76526697D01*
X34976076Y76489928D01*
X35417310Y76048694D01*
X35417310Y76526697D01*
X56171771Y85697307D02*
X56208541Y85660537D01*
X56245310Y85550229D01*
X56245310Y85476690D01*
X56208541Y85366381D01*
X56135002Y85292842D01*
X56061463Y85256073D01*
X55914385Y85219303D01*
X55804076Y85219303D01*
X55656998Y85256073D01*
X55583459Y85292842D01*
X55509920Y85366381D01*
X55473150Y85476690D01*
X55473150Y85550229D01*
X55509920Y85660537D01*
X55546690Y85697307D01*
X55730537Y86359158D02*
X56245310Y86359158D01*
X55436381Y86175311D02*
X55987924Y85991463D01*
X55987924Y86469467D01*
X43471771Y75029307D02*
X43508541Y74992537D01*
X43545310Y74882229D01*
X43545310Y74808690D01*
X43508541Y74698381D01*
X43435002Y74624842D01*
X43361463Y74588073D01*
X43214385Y74551303D01*
X43104076Y74551303D01*
X42956998Y74588073D01*
X42883459Y74624842D01*
X42809920Y74698381D01*
X42773150Y74808690D01*
X42773150Y74882229D01*
X42809920Y74992537D01*
X42846690Y75029307D01*
X42773150Y75727928D02*
X42773150Y75360233D01*
X43140846Y75323463D01*
X43104076Y75360233D01*
X43067307Y75433772D01*
X43067307Y75617619D01*
X43104076Y75691158D01*
X43140846Y75727928D01*
X43214385Y75764697D01*
X43398232Y75764697D01*
X43471771Y75727928D01*
X43508541Y75691158D01*
X43545310Y75617619D01*
X43545310Y75433772D01*
X43508541Y75360233D01*
X43471771Y75323463D01*
X36867771Y75791307D02*
X36904541Y75754537D01*
X36941310Y75644229D01*
X36941310Y75570690D01*
X36904541Y75460381D01*
X36831002Y75386842D01*
X36757463Y75350073D01*
X36610385Y75313303D01*
X36500076Y75313303D01*
X36352998Y75350073D01*
X36279459Y75386842D01*
X36205920Y75460381D01*
X36169150Y75570690D01*
X36169150Y75644229D01*
X36205920Y75754537D01*
X36242690Y75791307D01*
X36169150Y76453158D02*
X36169150Y76306080D01*
X36205920Y76232541D01*
X36242690Y76195772D01*
X36352998Y76122233D01*
X36500076Y76085463D01*
X36794232Y76085463D01*
X36867771Y76122233D01*
X36904541Y76159002D01*
X36941310Y76232541D01*
X36941310Y76379619D01*
X36904541Y76453158D01*
X36867771Y76489928D01*
X36794232Y76526697D01*
X36610385Y76526697D01*
X36536846Y76489928D01*
X36500076Y76453158D01*
X36463307Y76379619D01*
X36463307Y76232541D01*
X36500076Y76159002D01*
X36536846Y76122233D01*
X36610385Y76085463D01*
X26453771Y74775307D02*
X26490541Y74738537D01*
X26527310Y74628229D01*
X26527310Y74554690D01*
X26490541Y74444381D01*
X26417002Y74370842D01*
X26343463Y74334073D01*
X26196385Y74297303D01*
X26086076Y74297303D01*
X25938998Y74334073D01*
X25865459Y74370842D01*
X25791920Y74444381D01*
X25755150Y74554690D01*
X25755150Y74628229D01*
X25791920Y74738537D01*
X25828690Y74775307D01*
X25755150Y75032694D02*
X25755150Y75547467D01*
X26527310Y75216541D01*
X40423771Y86459307D02*
X40460541Y86422537D01*
X40497310Y86312229D01*
X40497310Y86238690D01*
X40460541Y86128381D01*
X40387002Y86054842D01*
X40313463Y86018073D01*
X40166385Y85981303D01*
X40056076Y85981303D01*
X39908998Y86018073D01*
X39835459Y86054842D01*
X39761920Y86128381D01*
X39725150Y86238690D01*
X39725150Y86312229D01*
X39761920Y86422537D01*
X39798690Y86459307D01*
X40056076Y86900541D02*
X40019307Y86827002D01*
X39982537Y86790233D01*
X39908998Y86753463D01*
X39872229Y86753463D01*
X39798690Y86790233D01*
X39761920Y86827002D01*
X39725150Y86900541D01*
X39725150Y87047619D01*
X39761920Y87121158D01*
X39798690Y87157928D01*
X39872229Y87194697D01*
X39908998Y87194697D01*
X39982537Y87157928D01*
X40019307Y87121158D01*
X40056076Y87047619D01*
X40056076Y86900541D01*
X40092846Y86827002D01*
X40129615Y86790233D01*
X40203154Y86753463D01*
X40350232Y86753463D01*
X40423771Y86790233D01*
X40460541Y86827002D01*
X40497310Y86900541D01*
X40497310Y87047619D01*
X40460541Y87121158D01*
X40423771Y87157928D01*
X40350232Y87194697D01*
X40203154Y87194697D01*
X40129615Y87157928D01*
X40092846Y87121158D01*
X40056076Y87047619D01*
X34327771Y74267307D02*
X34364541Y74230537D01*
X34401310Y74120229D01*
X34401310Y74046690D01*
X34364541Y73936381D01*
X34291002Y73862842D01*
X34217463Y73826073D01*
X34070385Y73789303D01*
X33960076Y73789303D01*
X33812998Y73826073D01*
X33739459Y73862842D01*
X33665920Y73936381D01*
X33629150Y74046690D01*
X33629150Y74120229D01*
X33665920Y74230537D01*
X33702690Y74267307D01*
X34401310Y74635002D02*
X34401310Y74782080D01*
X34364541Y74855619D01*
X34327771Y74892389D01*
X34217463Y74965928D01*
X34070385Y75002697D01*
X33776229Y75002697D01*
X33702690Y74965928D01*
X33665920Y74929158D01*
X33629150Y74855619D01*
X33629150Y74708541D01*
X33665920Y74635002D01*
X33702690Y74598233D01*
X33776229Y74561463D01*
X33960076Y74561463D01*
X34033615Y74598233D01*
X34070385Y74635002D01*
X34107154Y74708541D01*
X34107154Y74855619D01*
X34070385Y74929158D01*
X34033615Y74965928D01*
X33960076Y75002697D01*
X51345771Y75677612D02*
X51382541Y75640842D01*
X51419310Y75530534D01*
X51419310Y75456995D01*
X51382541Y75346686D01*
X51309002Y75273147D01*
X51235463Y75236378D01*
X51088385Y75199608D01*
X50978076Y75199608D01*
X50830998Y75236378D01*
X50757459Y75273147D01*
X50683920Y75346686D01*
X50647150Y75456995D01*
X50647150Y75530534D01*
X50683920Y75640842D01*
X50720690Y75677612D01*
X51419310Y76413002D02*
X51419310Y75971768D01*
X51419310Y76192385D02*
X50647150Y76192385D01*
X50757459Y76118846D01*
X50830998Y76045307D01*
X50867768Y75971768D01*
X50647150Y76891006D02*
X50647150Y76964545D01*
X50683920Y77038084D01*
X50720690Y77074853D01*
X50794229Y77111623D01*
X50941307Y77148392D01*
X51125154Y77148392D01*
X51272232Y77111623D01*
X51345771Y77074853D01*
X51382541Y77038084D01*
X51419310Y76964545D01*
X51419310Y76891006D01*
X51382541Y76817467D01*
X51345771Y76780697D01*
X51272232Y76743928D01*
X51125154Y76707158D01*
X50941307Y76707158D01*
X50794229Y76743928D01*
X50720690Y76780697D01*
X50683920Y76817467D01*
X50647150Y76891006D01*
X72417612Y94440229D02*
X72380842Y94403459D01*
X72270534Y94366690D01*
X72196995Y94366690D01*
X72086686Y94403459D01*
X72013147Y94476998D01*
X71976378Y94550537D01*
X71939608Y94697615D01*
X71939608Y94807924D01*
X71976378Y94955002D01*
X72013147Y95028541D01*
X72086686Y95102080D01*
X72196995Y95138850D01*
X72270534Y95138850D01*
X72380842Y95102080D01*
X72417612Y95065310D01*
X73153002Y94366690D02*
X72711768Y94366690D01*
X72932385Y94366690D02*
X72932385Y95138850D01*
X72858846Y95028541D01*
X72785307Y94955002D01*
X72711768Y94918232D01*
X73888392Y94366690D02*
X73447158Y94366690D01*
X73667775Y94366690D02*
X73667775Y95138850D01*
X73594236Y95028541D01*
X73520697Y94955002D01*
X73447158Y94918232D01*
X59717612Y99012229D02*
X59680842Y98975459D01*
X59570534Y98938690D01*
X59496995Y98938690D01*
X59386686Y98975459D01*
X59313147Y99048998D01*
X59276378Y99122537D01*
X59239608Y99269615D01*
X59239608Y99379924D01*
X59276378Y99527002D01*
X59313147Y99600541D01*
X59386686Y99674080D01*
X59496995Y99710850D01*
X59570534Y99710850D01*
X59680842Y99674080D01*
X59717612Y99637310D01*
X60453002Y98938690D02*
X60011768Y98938690D01*
X60232385Y98938690D02*
X60232385Y99710850D01*
X60158846Y99600541D01*
X60085307Y99527002D01*
X60011768Y99490232D01*
X60747158Y99637310D02*
X60783928Y99674080D01*
X60857467Y99710850D01*
X61041314Y99710850D01*
X61114853Y99674080D01*
X61151623Y99637310D01*
X61188392Y99563771D01*
X61188392Y99490232D01*
X61151623Y99379924D01*
X60710389Y98938690D01*
X61188392Y98938690D01*
X66331771Y96505612D02*
X66368541Y96468842D01*
X66405310Y96358534D01*
X66405310Y96284995D01*
X66368541Y96174686D01*
X66295002Y96101147D01*
X66221463Y96064378D01*
X66074385Y96027608D01*
X65964076Y96027608D01*
X65816998Y96064378D01*
X65743459Y96101147D01*
X65669920Y96174686D01*
X65633150Y96284995D01*
X65633150Y96358534D01*
X65669920Y96468842D01*
X65706690Y96505612D01*
X66405310Y97241002D02*
X66405310Y96799768D01*
X66405310Y97020385D02*
X65633150Y97020385D01*
X65743459Y96946846D01*
X65816998Y96873307D01*
X65853768Y96799768D01*
X65633150Y97498389D02*
X65633150Y97976392D01*
X65927307Y97719006D01*
X65927307Y97829314D01*
X65964076Y97902853D01*
X66000846Y97939623D01*
X66074385Y97976392D01*
X66258232Y97976392D01*
X66331771Y97939623D01*
X66368541Y97902853D01*
X66405310Y97829314D01*
X66405310Y97608697D01*
X66368541Y97535158D01*
X66331771Y97498389D01*
X66321612Y81740229D02*
X66284842Y81703459D01*
X66174534Y81666690D01*
X66100995Y81666690D01*
X65990686Y81703459D01*
X65917147Y81776998D01*
X65880378Y81850537D01*
X65843608Y81997615D01*
X65843608Y82107924D01*
X65880378Y82255002D01*
X65917147Y82328541D01*
X65990686Y82402080D01*
X66100995Y82438850D01*
X66174534Y82438850D01*
X66284842Y82402080D01*
X66321612Y82365310D01*
X67057002Y81666690D02*
X66615768Y81666690D01*
X66836385Y81666690D02*
X66836385Y82438850D01*
X66762846Y82328541D01*
X66689307Y82255002D01*
X66615768Y82218232D01*
X67718853Y82181463D02*
X67718853Y81666690D01*
X67535006Y82475619D02*
X67351158Y81924076D01*
X67829162Y81924076D01*
X34063612Y92154229D02*
X34026842Y92117459D01*
X33916534Y92080690D01*
X33842995Y92080690D01*
X33732686Y92117459D01*
X33659147Y92190998D01*
X33622378Y92264537D01*
X33585608Y92411615D01*
X33585608Y92521924D01*
X33622378Y92669002D01*
X33659147Y92742541D01*
X33732686Y92816080D01*
X33842995Y92852850D01*
X33916534Y92852850D01*
X34026842Y92816080D01*
X34063612Y92779310D01*
X34799002Y92080690D02*
X34357768Y92080690D01*
X34578385Y92080690D02*
X34578385Y92852850D01*
X34504846Y92742541D01*
X34431307Y92669002D01*
X34357768Y92632232D01*
X35497623Y92852850D02*
X35129928Y92852850D01*
X35093158Y92485154D01*
X35129928Y92521924D01*
X35203467Y92558693D01*
X35387314Y92558693D01*
X35460853Y92521924D01*
X35497623Y92485154D01*
X35534392Y92411615D01*
X35534392Y92227768D01*
X35497623Y92154229D01*
X35460853Y92117459D01*
X35387314Y92080690D01*
X35203467Y92080690D01*
X35129928Y92117459D01*
X35093158Y92154229D01*
X50827612Y88090229D02*
X50790842Y88053459D01*
X50680534Y88016690D01*
X50606995Y88016690D01*
X50496686Y88053459D01*
X50423147Y88126998D01*
X50386378Y88200537D01*
X50349608Y88347615D01*
X50349608Y88457924D01*
X50386378Y88605002D01*
X50423147Y88678541D01*
X50496686Y88752080D01*
X50606995Y88788850D01*
X50680534Y88788850D01*
X50790842Y88752080D01*
X50827612Y88715310D01*
X51563002Y88016690D02*
X51121768Y88016690D01*
X51342385Y88016690D02*
X51342385Y88788850D01*
X51268846Y88678541D01*
X51195307Y88605002D01*
X51121768Y88568232D01*
X52004236Y88457924D02*
X51930697Y88494693D01*
X51893928Y88531463D01*
X51857158Y88605002D01*
X51857158Y88641771D01*
X51893928Y88715310D01*
X51930697Y88752080D01*
X52004236Y88788850D01*
X52151314Y88788850D01*
X52224853Y88752080D01*
X52261623Y88715310D01*
X52298392Y88641771D01*
X52298392Y88605002D01*
X52261623Y88531463D01*
X52224853Y88494693D01*
X52151314Y88457924D01*
X52004236Y88457924D01*
X51930697Y88421154D01*
X51893928Y88384385D01*
X51857158Y88310846D01*
X51857158Y88163768D01*
X51893928Y88090229D01*
X51930697Y88053459D01*
X52004236Y88016690D01*
X52151314Y88016690D01*
X52224853Y88053459D01*
X52261623Y88090229D01*
X52298392Y88163768D01*
X52298392Y88310846D01*
X52261623Y88384385D01*
X52224853Y88421154D01*
X52151314Y88457924D01*
X42188226Y77856690D02*
X42188226Y78628850D01*
X42997155Y77930229D02*
X42960385Y77893459D01*
X42850077Y77856690D01*
X42776538Y77856690D01*
X42666229Y77893459D01*
X42592690Y77966998D01*
X42555921Y78040537D01*
X42519151Y78187615D01*
X42519151Y78297924D01*
X42555921Y78445002D01*
X42592690Y78518541D01*
X42666229Y78592080D01*
X42776538Y78628850D01*
X42850077Y78628850D01*
X42960385Y78592080D01*
X42997155Y78555310D01*
X43732545Y77856690D02*
X43291311Y77856690D01*
X43511928Y77856690D02*
X43511928Y78628850D01*
X43438389Y78518541D01*
X43364850Y78445002D01*
X43291311Y78408232D01*
X54213310Y73007226D02*
X53441150Y73007226D01*
X54139771Y73816155D02*
X54176541Y73779385D01*
X54213310Y73669077D01*
X54213310Y73595538D01*
X54176541Y73485229D01*
X54103002Y73411690D01*
X54029463Y73374921D01*
X53882385Y73338151D01*
X53772076Y73338151D01*
X53624998Y73374921D01*
X53551459Y73411690D01*
X53477920Y73485229D01*
X53441150Y73595538D01*
X53441150Y73669077D01*
X53477920Y73779385D01*
X53514690Y73816155D01*
X53514690Y74110311D02*
X53477920Y74147081D01*
X53441150Y74220620D01*
X53441150Y74404467D01*
X53477920Y74478006D01*
X53514690Y74514776D01*
X53588229Y74551545D01*
X53661768Y74551545D01*
X53772076Y74514776D01*
X54213310Y74073542D01*
X54213310Y74551545D01*
X52943310Y93835226D02*
X52171150Y93835226D01*
X52869771Y94644155D02*
X52906541Y94607385D01*
X52943310Y94497077D01*
X52943310Y94423538D01*
X52906541Y94313229D01*
X52833002Y94239690D01*
X52759463Y94202921D01*
X52612385Y94166151D01*
X52502076Y94166151D01*
X52354998Y94202921D01*
X52281459Y94239690D01*
X52207920Y94313229D01*
X52171150Y94423538D01*
X52171150Y94497077D01*
X52207920Y94607385D01*
X52244690Y94644155D01*
X52171150Y94901542D02*
X52171150Y95379545D01*
X52465307Y95122159D01*
X52465307Y95232467D01*
X52502076Y95306006D01*
X52538846Y95342776D01*
X52612385Y95379545D01*
X52796232Y95379545D01*
X52869771Y95342776D01*
X52906541Y95306006D01*
X52943310Y95232467D01*
X52943310Y95011850D01*
X52906541Y94938311D01*
X52869771Y94901542D01*
X29488226Y76586690D02*
X29488226Y77358850D01*
X30297155Y76660229D02*
X30260385Y76623459D01*
X30150077Y76586690D01*
X30076538Y76586690D01*
X29966229Y76623459D01*
X29892690Y76696998D01*
X29855921Y76770537D01*
X29819151Y76917615D01*
X29819151Y77027924D01*
X29855921Y77175002D01*
X29892690Y77248541D01*
X29966229Y77322080D01*
X30076538Y77358850D01*
X30150077Y77358850D01*
X30260385Y77322080D01*
X30297155Y77285310D01*
X30959006Y77101463D02*
X30959006Y76586690D01*
X30775159Y77395619D02*
X30591311Y76844076D01*
X31069315Y76844076D01*
X69366226Y94366690D02*
X69366226Y95138850D01*
X70175155Y94440229D02*
X70138385Y94403459D01*
X70028077Y94366690D01*
X69954538Y94366690D01*
X69844229Y94403459D01*
X69770690Y94476998D01*
X69733921Y94550537D01*
X69697151Y94697615D01*
X69697151Y94807924D01*
X69733921Y94955002D01*
X69770690Y95028541D01*
X69844229Y95102080D01*
X69954538Y95138850D01*
X70028077Y95138850D01*
X70138385Y95102080D01*
X70175155Y95065310D01*
X70873776Y95138850D02*
X70506081Y95138850D01*
X70469311Y94771154D01*
X70506081Y94807924D01*
X70579620Y94844693D01*
X70763467Y94844693D01*
X70837006Y94807924D01*
X70873776Y94771154D01*
X70910545Y94697615D01*
X70910545Y94513768D01*
X70873776Y94440229D01*
X70837006Y94403459D01*
X70763467Y94366690D01*
X70579620Y94366690D01*
X70506081Y94403459D01*
X70469311Y94440229D01*
X65474461Y76005150D02*
X65400922Y76041920D01*
X65327383Y76115459D01*
X65217074Y76225768D01*
X65143535Y76262537D01*
X65069996Y76262537D01*
X65106766Y76078690D02*
X65033227Y76115459D01*
X64959688Y76188998D01*
X64922918Y76336076D01*
X64922918Y76593463D01*
X64959688Y76740541D01*
X65033227Y76814080D01*
X65106766Y76850850D01*
X65253844Y76850850D01*
X65327383Y76814080D01*
X65400922Y76740541D01*
X65437691Y76593463D01*
X65437691Y76336076D01*
X65400922Y76188998D01*
X65327383Y76115459D01*
X65253844Y76078690D01*
X65106766Y76078690D01*
X66173082Y76078690D02*
X65731848Y76078690D01*
X65952465Y76078690D02*
X65952465Y76850850D01*
X65878926Y76740541D01*
X65805387Y76667002D01*
X65731848Y76630232D01*
X68776461Y76005150D02*
X68702922Y76041920D01*
X68629383Y76115459D01*
X68519074Y76225768D01*
X68445535Y76262537D01*
X68371996Y76262537D01*
X68408766Y76078690D02*
X68335227Y76115459D01*
X68261688Y76188998D01*
X68224918Y76336076D01*
X68224918Y76593463D01*
X68261688Y76740541D01*
X68335227Y76814080D01*
X68408766Y76850850D01*
X68555844Y76850850D01*
X68629383Y76814080D01*
X68702922Y76740541D01*
X68739691Y76593463D01*
X68739691Y76336076D01*
X68702922Y76188998D01*
X68629383Y76115459D01*
X68555844Y76078690D01*
X68408766Y76078690D01*
X69033848Y76777310D02*
X69070618Y76814080D01*
X69144157Y76850850D01*
X69328004Y76850850D01*
X69401543Y76814080D01*
X69438313Y76777310D01*
X69475082Y76703771D01*
X69475082Y76630232D01*
X69438313Y76519924D01*
X68997079Y76078690D01*
X69475082Y76078690D01*
X60222226Y92080690D02*
X60222226Y92852850D01*
X61031155Y92154229D02*
X60994385Y92117459D01*
X60884077Y92080690D01*
X60810538Y92080690D01*
X60700229Y92117459D01*
X60626690Y92190998D01*
X60589921Y92264537D01*
X60553151Y92411615D01*
X60553151Y92521924D01*
X60589921Y92669002D01*
X60626690Y92742541D01*
X60700229Y92816080D01*
X60810538Y92852850D01*
X60884077Y92852850D01*
X60994385Y92816080D01*
X61031155Y92779310D01*
X61693006Y92852850D02*
X61545928Y92852850D01*
X61472389Y92816080D01*
X61435620Y92779310D01*
X61362081Y92669002D01*
X61325311Y92521924D01*
X61325311Y92227768D01*
X61362081Y92154229D01*
X61398850Y92117459D01*
X61472389Y92080690D01*
X61619467Y92080690D01*
X61693006Y92117459D01*
X61729776Y92154229D01*
X61766545Y92227768D01*
X61766545Y92411615D01*
X61729776Y92485154D01*
X61693006Y92521924D01*
X61619467Y92558693D01*
X61472389Y92558693D01*
X61398850Y92521924D01*
X61362081Y92485154D01*
X61325311Y92411615D01*
X60984226Y85476690D02*
X60984226Y86248850D01*
X61793155Y85550229D02*
X61756385Y85513459D01*
X61646077Y85476690D01*
X61572538Y85476690D01*
X61462229Y85513459D01*
X61388690Y85586998D01*
X61351921Y85660537D01*
X61315151Y85807615D01*
X61315151Y85917924D01*
X61351921Y86065002D01*
X61388690Y86138541D01*
X61462229Y86212080D01*
X61572538Y86248850D01*
X61646077Y86248850D01*
X61756385Y86212080D01*
X61793155Y86175310D01*
X62050542Y86248850D02*
X62565315Y86248850D01*
X62234389Y85476690D01*
X65280454Y72813459D02*
X65390763Y72776690D01*
X65574610Y72776690D01*
X65648149Y72813459D01*
X65684919Y72850229D01*
X65721688Y72923768D01*
X65721688Y72997307D01*
X65684919Y73070846D01*
X65648149Y73107615D01*
X65574610Y73144385D01*
X65427532Y73181154D01*
X65353993Y73217924D01*
X65317224Y73254693D01*
X65280454Y73328232D01*
X65280454Y73401771D01*
X65317224Y73475310D01*
X65353993Y73512080D01*
X65427532Y73548850D01*
X65611380Y73548850D01*
X65721688Y73512080D01*
X65979075Y73548850D02*
X66162922Y72776690D01*
X66310000Y73328232D01*
X66457078Y72776690D01*
X66640926Y73548850D01*
X66898313Y73475310D02*
X66935083Y73512080D01*
X67008622Y73548850D01*
X67192469Y73548850D01*
X67266008Y73512080D01*
X67302778Y73475310D01*
X67339547Y73401771D01*
X67339547Y73328232D01*
X67302778Y73217924D01*
X66861544Y72776690D01*
X67339547Y72776690D01*
X42928454Y69511459D02*
X43038763Y69474690D01*
X43222610Y69474690D01*
X43296149Y69511459D01*
X43332919Y69548229D01*
X43369688Y69621768D01*
X43369688Y69695307D01*
X43332919Y69768846D01*
X43296149Y69805615D01*
X43222610Y69842385D01*
X43075532Y69879154D01*
X43001993Y69915924D01*
X42965224Y69952693D01*
X42928454Y70026232D01*
X42928454Y70099771D01*
X42965224Y70173310D01*
X43001993Y70210080D01*
X43075532Y70246850D01*
X43259380Y70246850D01*
X43369688Y70210080D01*
X43627075Y70246850D02*
X43810922Y69474690D01*
X43958000Y70026232D01*
X44105078Y69474690D01*
X44288926Y70246850D01*
X44987547Y69474690D02*
X44546313Y69474690D01*
X44766930Y69474690D02*
X44766930Y70246850D01*
X44693391Y70136541D01*
X44619852Y70063002D01*
X44546313Y70026232D01*
X33661082Y82814770D02*
X33403695Y83182465D01*
X33219848Y82814770D02*
X33219848Y83586930D01*
X33514004Y83586930D01*
X33587543Y83550160D01*
X33624312Y83513390D01*
X33661082Y83439851D01*
X33661082Y83329543D01*
X33624312Y83256004D01*
X33587543Y83219234D01*
X33514004Y83182465D01*
X33219848Y83182465D01*
X33955238Y83513390D02*
X33992008Y83550160D01*
X34065547Y83586930D01*
X34249394Y83586930D01*
X34322933Y83550160D01*
X34359703Y83513390D01*
X34396472Y83439851D01*
X34396472Y83366312D01*
X34359703Y83256004D01*
X33918469Y82814770D01*
X34396472Y82814770D01*
X33661082Y81290770D02*
X33403695Y81658465D01*
X33219848Y81290770D02*
X33219848Y82062930D01*
X33514004Y82062930D01*
X33587543Y82026160D01*
X33624312Y81989390D01*
X33661082Y81915851D01*
X33661082Y81805543D01*
X33624312Y81732004D01*
X33587543Y81695234D01*
X33514004Y81658465D01*
X33219848Y81658465D01*
X33918469Y82062930D02*
X34396472Y82062930D01*
X34139086Y81768773D01*
X34249394Y81768773D01*
X34322933Y81732004D01*
X34359703Y81695234D01*
X34396472Y81621695D01*
X34396472Y81437848D01*
X34359703Y81364309D01*
X34322933Y81327539D01*
X34249394Y81290770D01*
X34028777Y81290770D01*
X33955238Y81327539D01*
X33918469Y81364309D01*
X33661082Y79766770D02*
X33403695Y80134465D01*
X33219848Y79766770D02*
X33219848Y80538930D01*
X33514004Y80538930D01*
X33587543Y80502160D01*
X33624312Y80465390D01*
X33661082Y80391851D01*
X33661082Y80281543D01*
X33624312Y80208004D01*
X33587543Y80171234D01*
X33514004Y80134465D01*
X33219848Y80134465D01*
X34322933Y80281543D02*
X34322933Y79766770D01*
X34139086Y80575699D02*
X33955238Y80024156D01*
X34433242Y80024156D01*
X33661082Y84338770D02*
X33403695Y84706465D01*
X33219848Y84338770D02*
X33219848Y85110930D01*
X33514004Y85110930D01*
X33587543Y85074160D01*
X33624312Y85037390D01*
X33661082Y84963851D01*
X33661082Y84853543D01*
X33624312Y84780004D01*
X33587543Y84743234D01*
X33514004Y84706465D01*
X33219848Y84706465D01*
X34359703Y85110930D02*
X33992008Y85110930D01*
X33955238Y84743234D01*
X33992008Y84780004D01*
X34065547Y84816773D01*
X34249394Y84816773D01*
X34322933Y84780004D01*
X34359703Y84743234D01*
X34396472Y84669695D01*
X34396472Y84485848D01*
X34359703Y84412309D01*
X34322933Y84375539D01*
X34249394Y84338770D01*
X34065547Y84338770D01*
X33992008Y84375539D01*
X33955238Y84412309D01*
X35947082Y87132770D02*
X35689695Y87500465D01*
X35505848Y87132770D02*
X35505848Y87904930D01*
X35800004Y87904930D01*
X35873543Y87868160D01*
X35910312Y87831390D01*
X35947082Y87757851D01*
X35947082Y87647543D01*
X35910312Y87574004D01*
X35873543Y87537234D01*
X35800004Y87500465D01*
X35505848Y87500465D01*
X36608933Y87904930D02*
X36461855Y87904930D01*
X36388316Y87868160D01*
X36351547Y87831390D01*
X36278008Y87721082D01*
X36241238Y87574004D01*
X36241238Y87279848D01*
X36278008Y87206309D01*
X36314777Y87169539D01*
X36388316Y87132770D01*
X36535394Y87132770D01*
X36608933Y87169539D01*
X36645703Y87206309D01*
X36682472Y87279848D01*
X36682472Y87463695D01*
X36645703Y87537234D01*
X36608933Y87574004D01*
X36535394Y87610773D01*
X36388316Y87610773D01*
X36314777Y87574004D01*
X36278008Y87537234D01*
X36241238Y87463695D01*
X73385230Y79352208D02*
X73017535Y79094821D01*
X73385230Y78910974D02*
X72613070Y78910974D01*
X72613070Y79205130D01*
X72649840Y79278669D01*
X72686610Y79315438D01*
X72760149Y79352208D01*
X72870457Y79352208D01*
X72943996Y79315438D01*
X72980766Y79278669D01*
X73017535Y79205130D01*
X73017535Y78910974D01*
X72613070Y79609595D02*
X72613070Y80124368D01*
X73385230Y79793442D01*
X27665230Y86197082D02*
X27297535Y85939695D01*
X27665230Y85755848D02*
X26893070Y85755848D01*
X26893070Y86050004D01*
X26929840Y86123543D01*
X26966610Y86160312D01*
X27040149Y86197082D01*
X27150457Y86197082D01*
X27223996Y86160312D01*
X27260766Y86123543D01*
X27297535Y86050004D01*
X27297535Y85755848D01*
X27223996Y86638316D02*
X27187227Y86564777D01*
X27150457Y86528008D01*
X27076918Y86491238D01*
X27040149Y86491238D01*
X26966610Y86528008D01*
X26929840Y86564777D01*
X26893070Y86638316D01*
X26893070Y86785394D01*
X26929840Y86858933D01*
X26966610Y86895703D01*
X27040149Y86932472D01*
X27076918Y86932472D01*
X27150457Y86895703D01*
X27187227Y86858933D01*
X27223996Y86785394D01*
X27223996Y86638316D01*
X27260766Y86564777D01*
X27297535Y86528008D01*
X27371074Y86491238D01*
X27518152Y86491238D01*
X27591691Y86528008D01*
X27628461Y86564777D01*
X27665230Y86638316D01*
X27665230Y86785394D01*
X27628461Y86858933D01*
X27591691Y86895703D01*
X27518152Y86932472D01*
X27371074Y86932472D01*
X27297535Y86895703D01*
X27260766Y86858933D01*
X27223996Y86785394D01*
X28809230Y86197082D02*
X28441535Y85939695D01*
X28809230Y85755848D02*
X28037070Y85755848D01*
X28037070Y86050004D01*
X28073840Y86123543D01*
X28110610Y86160312D01*
X28184149Y86197082D01*
X28294457Y86197082D01*
X28367996Y86160312D01*
X28404766Y86123543D01*
X28441535Y86050004D01*
X28441535Y85755848D01*
X28809230Y86564777D02*
X28809230Y86711855D01*
X28772461Y86785394D01*
X28735691Y86822164D01*
X28625383Y86895703D01*
X28478305Y86932472D01*
X28184149Y86932472D01*
X28110610Y86895703D01*
X28073840Y86858933D01*
X28037070Y86785394D01*
X28037070Y86638316D01*
X28073840Y86564777D01*
X28110610Y86528008D01*
X28184149Y86491238D01*
X28367996Y86491238D01*
X28441535Y86528008D01*
X28478305Y86564777D01*
X28515074Y86638316D01*
X28515074Y86785394D01*
X28478305Y86858933D01*
X28441535Y86895703D01*
X28367996Y86932472D01*
X26649230Y86197082D02*
X26281535Y85939695D01*
X26649230Y85755848D02*
X25877070Y85755848D01*
X25877070Y86050004D01*
X25913840Y86123543D01*
X25950610Y86160312D01*
X26024149Y86197082D01*
X26134457Y86197082D01*
X26207996Y86160312D01*
X26244766Y86123543D01*
X26281535Y86050004D01*
X26281535Y85755848D01*
X26649230Y86932472D02*
X26649230Y86491238D01*
X26649230Y86711855D02*
X25877070Y86711855D01*
X25987379Y86638316D01*
X26060918Y86564777D01*
X26097688Y86491238D01*
X25877070Y87410476D02*
X25877070Y87484015D01*
X25913840Y87557554D01*
X25950610Y87594323D01*
X26024149Y87631093D01*
X26171227Y87667862D01*
X26355074Y87667862D01*
X26502152Y87631093D01*
X26575691Y87594323D01*
X26612461Y87557554D01*
X26649230Y87484015D01*
X26649230Y87410476D01*
X26612461Y87336937D01*
X26575691Y87300167D01*
X26502152Y87263398D01*
X26355074Y87226628D01*
X26171227Y87226628D01*
X26024149Y87263398D01*
X25950610Y87300167D01*
X25913840Y87336937D01*
X25877070Y87410476D01*
X25633230Y86197082D02*
X25265535Y85939695D01*
X25633230Y85755848D02*
X24861070Y85755848D01*
X24861070Y86050004D01*
X24897840Y86123543D01*
X24934610Y86160312D01*
X25008149Y86197082D01*
X25118457Y86197082D01*
X25191996Y86160312D01*
X25228766Y86123543D01*
X25265535Y86050004D01*
X25265535Y85755848D01*
X25633230Y86932472D02*
X25633230Y86491238D01*
X25633230Y86711855D02*
X24861070Y86711855D01*
X24971379Y86638316D01*
X25044918Y86564777D01*
X25081688Y86491238D01*
X25633230Y87667862D02*
X25633230Y87226628D01*
X25633230Y87447245D02*
X24861070Y87447245D01*
X24971379Y87373706D01*
X25044918Y87300167D01*
X25081688Y87226628D01*
X45091082Y87640770D02*
X44833695Y88008465D01*
X44649848Y87640770D02*
X44649848Y88412930D01*
X44944004Y88412930D01*
X45017543Y88376160D01*
X45054312Y88339390D01*
X45091082Y88265851D01*
X45091082Y88155543D01*
X45054312Y88082004D01*
X45017543Y88045234D01*
X44944004Y88008465D01*
X44649848Y88008465D01*
X45826472Y87640770D02*
X45385238Y87640770D01*
X45605855Y87640770D02*
X45605855Y88412930D01*
X45532316Y88302621D01*
X45458777Y88229082D01*
X45385238Y88192312D01*
X46120628Y88339390D02*
X46157398Y88376160D01*
X46230937Y88412930D01*
X46414784Y88412930D01*
X46488323Y88376160D01*
X46525093Y88339390D01*
X46561862Y88265851D01*
X46561862Y88192312D01*
X46525093Y88082004D01*
X46083859Y87640770D01*
X46561862Y87640770D01*
X59569082Y74432770D02*
X59311695Y74800465D01*
X59127848Y74432770D02*
X59127848Y75204930D01*
X59422004Y75204930D01*
X59495543Y75168160D01*
X59532312Y75131390D01*
X59569082Y75057851D01*
X59569082Y74947543D01*
X59532312Y74874004D01*
X59495543Y74837234D01*
X59422004Y74800465D01*
X59127848Y74800465D01*
X60304472Y74432770D02*
X59863238Y74432770D01*
X60083855Y74432770D02*
X60083855Y75204930D01*
X60010316Y75094621D01*
X59936777Y75021082D01*
X59863238Y74984312D01*
X60966323Y74947543D02*
X60966323Y74432770D01*
X60782476Y75241699D02*
X60598628Y74690156D01*
X61076632Y74690156D01*
X44583082Y71638770D02*
X44325695Y72006465D01*
X44141848Y71638770D02*
X44141848Y72410930D01*
X44436004Y72410930D01*
X44509543Y72374160D01*
X44546312Y72337390D01*
X44583082Y72263851D01*
X44583082Y72153543D01*
X44546312Y72080004D01*
X44509543Y72043234D01*
X44436004Y72006465D01*
X44141848Y72006465D01*
X45318472Y71638770D02*
X44877238Y71638770D01*
X45097855Y71638770D02*
X45097855Y72410930D01*
X45024316Y72300621D01*
X44950777Y72227082D01*
X44877238Y72190312D01*
X46017093Y72410930D02*
X45649398Y72410930D01*
X45612628Y72043234D01*
X45649398Y72080004D01*
X45722937Y72116773D01*
X45906784Y72116773D01*
X45980323Y72080004D01*
X46017093Y72043234D01*
X46053862Y71969695D01*
X46053862Y71785848D01*
X46017093Y71712309D01*
X45980323Y71675539D01*
X45906784Y71638770D01*
X45722937Y71638770D01*
X45649398Y71675539D01*
X45612628Y71712309D01*
X58399230Y77307082D02*
X58031535Y77049695D01*
X58399230Y76865848D02*
X57627070Y76865848D01*
X57627070Y77160004D01*
X57663840Y77233543D01*
X57700610Y77270312D01*
X57774149Y77307082D01*
X57884457Y77307082D01*
X57957996Y77270312D01*
X57994766Y77233543D01*
X58031535Y77160004D01*
X58031535Y76865848D01*
X58399230Y78042472D02*
X58399230Y77601238D01*
X58399230Y77821855D02*
X57627070Y77821855D01*
X57737379Y77748316D01*
X57810918Y77674777D01*
X57847688Y77601238D01*
X57627070Y78704323D02*
X57627070Y78557245D01*
X57663840Y78483706D01*
X57700610Y78446937D01*
X57810918Y78373398D01*
X57957996Y78336628D01*
X58252152Y78336628D01*
X58325691Y78373398D01*
X58362461Y78410167D01*
X58399230Y78483706D01*
X58399230Y78630784D01*
X58362461Y78704323D01*
X58325691Y78741093D01*
X58252152Y78777862D01*
X58068305Y78777862D01*
X57994766Y78741093D01*
X57957996Y78704323D01*
X57921227Y78630784D01*
X57921227Y78483706D01*
X57957996Y78410167D01*
X57994766Y78373398D01*
X58068305Y78336628D01*
X58399230Y79593082D02*
X58031535Y79335695D01*
X58399230Y79151848D02*
X57627070Y79151848D01*
X57627070Y79446004D01*
X57663840Y79519543D01*
X57700610Y79556312D01*
X57774149Y79593082D01*
X57884457Y79593082D01*
X57957996Y79556312D01*
X57994766Y79519543D01*
X58031535Y79446004D01*
X58031535Y79151848D01*
X58399230Y80328472D02*
X58399230Y79887238D01*
X58399230Y80107855D02*
X57627070Y80107855D01*
X57737379Y80034316D01*
X57810918Y79960777D01*
X57847688Y79887238D01*
X57627070Y80585859D02*
X57627070Y81100632D01*
X58399230Y80769706D01*
X62363082Y74432770D02*
X62105695Y74800465D01*
X61921848Y74432770D02*
X61921848Y75204930D01*
X62216004Y75204930D01*
X62289543Y75168160D01*
X62326312Y75131390D01*
X62363082Y75057851D01*
X62363082Y74947543D01*
X62326312Y74874004D01*
X62289543Y74837234D01*
X62216004Y74800465D01*
X61921848Y74800465D01*
X63098472Y74432770D02*
X62657238Y74432770D01*
X62877855Y74432770D02*
X62877855Y75204930D01*
X62804316Y75094621D01*
X62730777Y75021082D01*
X62657238Y74984312D01*
X63539706Y74874004D02*
X63466167Y74910773D01*
X63429398Y74947543D01*
X63392628Y75021082D01*
X63392628Y75057851D01*
X63429398Y75131390D01*
X63466167Y75168160D01*
X63539706Y75204930D01*
X63686784Y75204930D01*
X63760323Y75168160D01*
X63797093Y75131390D01*
X63833862Y75057851D01*
X63833862Y75021082D01*
X63797093Y74947543D01*
X63760323Y74910773D01*
X63686784Y74874004D01*
X63539706Y74874004D01*
X63466167Y74837234D01*
X63429398Y74800465D01*
X63392628Y74726926D01*
X63392628Y74579848D01*
X63429398Y74506309D01*
X63466167Y74469539D01*
X63539706Y74432770D01*
X63686784Y74432770D01*
X63760323Y74469539D01*
X63797093Y74506309D01*
X63833862Y74579848D01*
X63833862Y74726926D01*
X63797093Y74800465D01*
X63760323Y74837234D01*
X63686784Y74874004D01*
X68205082Y80020770D02*
X67947695Y80388465D01*
X67763848Y80020770D02*
X67763848Y80792930D01*
X68058004Y80792930D01*
X68131543Y80756160D01*
X68168312Y80719390D01*
X68205082Y80645851D01*
X68205082Y80535543D01*
X68168312Y80462004D01*
X68131543Y80425234D01*
X68058004Y80388465D01*
X67763848Y80388465D01*
X68940472Y80020770D02*
X68499238Y80020770D01*
X68719855Y80020770D02*
X68719855Y80792930D01*
X68646316Y80682621D01*
X68572777Y80609082D01*
X68499238Y80572312D01*
X69308167Y80020770D02*
X69455245Y80020770D01*
X69528784Y80057539D01*
X69565554Y80094309D01*
X69639093Y80204617D01*
X69675862Y80351695D01*
X69675862Y80645851D01*
X69639093Y80719390D01*
X69602323Y80756160D01*
X69528784Y80792930D01*
X69381706Y80792930D01*
X69308167Y80756160D01*
X69271398Y80719390D01*
X69234628Y80645851D01*
X69234628Y80462004D01*
X69271398Y80388465D01*
X69308167Y80351695D01*
X69381706Y80314926D01*
X69528784Y80314926D01*
X69602323Y80351695D01*
X69639093Y80388465D01*
X69675862Y80462004D01*
X72115230Y79098208D02*
X71747535Y78840821D01*
X72115230Y78656974D02*
X71343070Y78656974D01*
X71343070Y78951130D01*
X71379840Y79024669D01*
X71416610Y79061438D01*
X71490149Y79098208D01*
X71600457Y79098208D01*
X71673996Y79061438D01*
X71710766Y79024669D01*
X71747535Y78951130D01*
X71747535Y78656974D01*
X71416610Y79392364D02*
X71379840Y79429134D01*
X71343070Y79502673D01*
X71343070Y79686520D01*
X71379840Y79760059D01*
X71416610Y79796829D01*
X71490149Y79833598D01*
X71563688Y79833598D01*
X71673996Y79796829D01*
X72115230Y79355595D01*
X72115230Y79833598D01*
X71343070Y80311602D02*
X71343070Y80385141D01*
X71379840Y80458680D01*
X71416610Y80495449D01*
X71490149Y80532219D01*
X71637227Y80568988D01*
X71821074Y80568988D01*
X71968152Y80532219D01*
X72041691Y80495449D01*
X72078461Y80458680D01*
X72115230Y80385141D01*
X72115230Y80311602D01*
X72078461Y80238063D01*
X72041691Y80201293D01*
X71968152Y80164524D01*
X71821074Y80127754D01*
X71637227Y80127754D01*
X71490149Y80164524D01*
X71416610Y80201293D01*
X71379840Y80238063D01*
X71343070Y80311602D01*
X48293230Y69539082D02*
X47925535Y69281695D01*
X48293230Y69097848D02*
X47521070Y69097848D01*
X47521070Y69392004D01*
X47557840Y69465543D01*
X47594610Y69502312D01*
X47668149Y69539082D01*
X47778457Y69539082D01*
X47851996Y69502312D01*
X47888766Y69465543D01*
X47925535Y69392004D01*
X47925535Y69097848D01*
X47594610Y69833238D02*
X47557840Y69870008D01*
X47521070Y69943547D01*
X47521070Y70127394D01*
X47557840Y70200933D01*
X47594610Y70237703D01*
X47668149Y70274472D01*
X47741688Y70274472D01*
X47851996Y70237703D01*
X48293230Y69796469D01*
X48293230Y70274472D01*
X48293230Y71009862D02*
X48293230Y70568628D01*
X48293230Y70789245D02*
X47521070Y70789245D01*
X47631379Y70715706D01*
X47704918Y70642167D01*
X47741688Y70568628D01*
X58907230Y70957082D02*
X58539535Y70699695D01*
X58907230Y70515848D02*
X58135070Y70515848D01*
X58135070Y70810004D01*
X58171840Y70883543D01*
X58208610Y70920312D01*
X58282149Y70957082D01*
X58392457Y70957082D01*
X58465996Y70920312D01*
X58502766Y70883543D01*
X58539535Y70810004D01*
X58539535Y70515848D01*
X58208610Y71251238D02*
X58171840Y71288008D01*
X58135070Y71361547D01*
X58135070Y71545394D01*
X58171840Y71618933D01*
X58208610Y71655703D01*
X58282149Y71692472D01*
X58355688Y71692472D01*
X58465996Y71655703D01*
X58907230Y71214469D01*
X58907230Y71692472D01*
X58208610Y71986628D02*
X58171840Y72023398D01*
X58135070Y72096937D01*
X58135070Y72280784D01*
X58171840Y72354323D01*
X58208610Y72391093D01*
X58282149Y72427862D01*
X58355688Y72427862D01*
X58465996Y72391093D01*
X58907230Y71949859D01*
X58907230Y72427862D01*
X52829615Y82918306D02*
X53197310Y82918306D01*
X52425150Y82660919D02*
X52829615Y82918306D01*
X52425150Y83175692D01*
X53197310Y83837543D02*
X53197310Y83396309D01*
X53197310Y83616926D02*
X52425150Y83616926D01*
X52535459Y83543387D01*
X52608998Y83469848D01*
X52645768Y83396309D01*
M02*
