M48
;DRILL file {KiCad 4.0.0-rc2-stable} date 16/02/2016 17:08:07
;FORMAT={-:-/ absolute / metric / decimal}
FMAT,2
METRIC,TZ
T1C0.400
T2C0.650
T3C1.000
%
G90
G05
M71
T1
X26.307Y77.449
X26.473Y74.235
X26.994Y90.802
X28.518Y89.958
X28.752Y69.855
X29.141Y79.857
X29.39Y72.455
X30.099Y84.047
X30.126Y83.132
X30.55Y90.974
X30.634Y72.431
X31.512Y73.126
X32.436Y73.238
X33.6Y88.68
X34.306Y78.714
X34.4Y91.986
X34.412Y71.095
X34.585Y87.27
X35.469Y75.751
X36.838Y73.15
X39.261Y77.825
X39.468Y87.058
X39.469Y70.452
X41.218Y78.274
X41.327Y75.7
X41.852Y79.048
X42.688Y73.126
X43.468Y75.121
X44.282Y87.421
X44.488Y71.65
X45.134Y87.945
X45.265Y81.305
X45.803Y70.146
X46.22Y72.465
X46.401Y86.633
X46.803Y70.193
X47.162Y75.468
X47.301Y85.351
X48.076Y87.418
X48.276Y89.636
X49.312Y81.794
X49.403Y79.059
X50.362Y87.164
X55.168Y84.72
X55.183Y83.807
X55.896Y90.652
X56.412Y97.687
X56.503Y91.573
X56.658Y74.396
X56.754Y69.468
X56.966Y80.814
X59.358Y79.052
X59.379Y97.133
X59.96Y89.704
X60.004Y98.062
X60.014Y87.164
X60.836Y96.959
X60.976Y89.704
X61.03Y87.164
X61.517Y99.437
X61.931Y89.704
X62.046Y87.164
X62.399Y98.505
X62.608Y94.331
X62.777Y93.345
X63.062Y87.164
X64.078Y88.434
X64.078Y87.418
X64.453Y78.457
X65.04Y81.424
X65.294Y78.46
X65.463Y75.089
X66.31Y78.714
X66.804Y82.798
X66.875Y96.297
X67.326Y75.258
X68.495Y86.325
X68.596Y97.002
X69.739Y85.164
X70.512Y80.36
X71.111Y96.679
X71.594Y78.662
X73.422Y78.46
T2
X71.39Y86.842
X71.39Y85.572
X71.39Y84.302
X71.39Y83.032
X71.39Y81.762
X72.66Y86.842
X72.66Y85.572
X72.66Y84.302
X72.66Y83.032
X72.66Y81.762
T3
X36.084Y94.716
X38.624Y94.716
X41.164Y94.716
X43.704Y94.716
T0
M30
