G04 #@! TF.FileFunction,Legend,Bot*
%FSLAX46Y46*%
G04 Gerber Fmt 4.6, Leading zero omitted, Abs format (unit mm)*
G04 Created by KiCad (PCBNEW 4.0.0-rc2-stable) date 17/02/2016 11:29:09*
%MOMM*%
G01*
G04 APERTURE LIST*
%ADD10C,0.100000*%
%ADD11C,0.250000*%
%ADD12C,0.300000*%
%ADD13C,0.150000*%
%ADD14C,0.105000*%
G04 APERTURE END LIST*
D10*
D11*
X89167789Y67804090D02*
X89167789Y68142756D01*
X89699979Y68142756D02*
X88683979Y68142756D01*
X88683979Y67658947D01*
X89651598Y66884852D02*
X89699979Y66981614D01*
X89699979Y67175137D01*
X89651598Y67271899D01*
X89554836Y67320280D01*
X89167789Y67320280D01*
X89071027Y67271899D01*
X89022646Y67175137D01*
X89022646Y66981614D01*
X89071027Y66884852D01*
X89167789Y66836471D01*
X89264550Y66836471D01*
X89361312Y67320280D01*
X89699979Y66401042D02*
X88683979Y66401042D01*
X89071027Y66401042D02*
X89022646Y66304280D01*
X89022646Y66110757D01*
X89071027Y66013995D01*
X89119408Y65965614D01*
X89216170Y65917233D01*
X89506455Y65917233D01*
X89603217Y65965614D01*
X89651598Y66013995D01*
X89699979Y66110757D01*
X89699979Y66304280D01*
X89651598Y66401042D01*
X88780741Y64756090D02*
X88732360Y64707709D01*
X88683979Y64610947D01*
X88683979Y64369043D01*
X88732360Y64272281D01*
X88780741Y64223900D01*
X88877503Y64175519D01*
X88974265Y64175519D01*
X89119408Y64223900D01*
X89699979Y64804471D01*
X89699979Y64175519D01*
X88683979Y63546566D02*
X88683979Y63449805D01*
X88732360Y63353043D01*
X88780741Y63304662D01*
X88877503Y63256281D01*
X89071027Y63207900D01*
X89312931Y63207900D01*
X89506455Y63256281D01*
X89603217Y63304662D01*
X89651598Y63353043D01*
X89699979Y63449805D01*
X89699979Y63546566D01*
X89651598Y63643328D01*
X89603217Y63691709D01*
X89506455Y63740090D01*
X89312931Y63788471D01*
X89071027Y63788471D01*
X88877503Y63740090D01*
X88780741Y63691709D01*
X88732360Y63643328D01*
X88683979Y63546566D01*
X89699979Y62240281D02*
X89699979Y62820852D01*
X89699979Y62530566D02*
X88683979Y62530566D01*
X88829122Y62627328D01*
X88925884Y62724090D01*
X88974265Y62820852D01*
X88683979Y61369424D02*
X88683979Y61562947D01*
X88732360Y61659709D01*
X88780741Y61708090D01*
X88925884Y61804852D01*
X89119408Y61853233D01*
X89506455Y61853233D01*
X89603217Y61804852D01*
X89651598Y61756471D01*
X89699979Y61659709D01*
X89699979Y61466186D01*
X89651598Y61369424D01*
X89603217Y61321043D01*
X89506455Y61272662D01*
X89264550Y61272662D01*
X89167789Y61321043D01*
X89119408Y61369424D01*
X89071027Y61466186D01*
X89071027Y61659709D01*
X89119408Y61756471D01*
X89167789Y61804852D01*
X89264550Y61853233D01*
D12*
X87897789Y68033899D02*
X86373789Y68033899D01*
X87462360Y67525899D01*
X86373789Y67017899D01*
X87897789Y67017899D01*
X87897789Y66292185D02*
X86373789Y66292185D01*
X87462360Y65784185D01*
X86373789Y65276185D01*
X87897789Y65276185D01*
X87897789Y64550471D02*
X86373789Y64550471D01*
X86373789Y63969899D01*
X86446360Y63824757D01*
X86518931Y63752185D01*
X86664074Y63679614D01*
X86881789Y63679614D01*
X87026931Y63752185D01*
X87099503Y63824757D01*
X87172074Y63969899D01*
X87172074Y64550471D01*
X87317217Y63026471D02*
X87317217Y61865328D01*
X87897789Y61139614D02*
X86373789Y61139614D01*
X87825217Y60486471D02*
X87897789Y60341328D01*
X87897789Y60051043D01*
X87825217Y59905900D01*
X87680074Y59833328D01*
X87607503Y59833328D01*
X87462360Y59905900D01*
X87389789Y60051043D01*
X87389789Y60268757D01*
X87317217Y60413900D01*
X87172074Y60486471D01*
X87099503Y60486471D01*
X86954360Y60413900D01*
X86881789Y60268757D01*
X86881789Y60051043D01*
X86954360Y59905900D01*
X87897789Y58962472D02*
X87825217Y59107614D01*
X87752646Y59180186D01*
X87607503Y59252757D01*
X87172074Y59252757D01*
X87026931Y59180186D01*
X86954360Y59107614D01*
X86881789Y58962472D01*
X86881789Y58744757D01*
X86954360Y58599614D01*
X87026931Y58527043D01*
X87172074Y58454472D01*
X87607503Y58454472D01*
X87752646Y58527043D01*
X87825217Y58599614D01*
X87897789Y58744757D01*
X87897789Y58962472D01*
X87897789Y57583615D02*
X87825217Y57728757D01*
X87680074Y57801329D01*
X86373789Y57801329D01*
X87897789Y56349900D02*
X87099503Y56349900D01*
X86954360Y56422471D01*
X86881789Y56567614D01*
X86881789Y56857900D01*
X86954360Y57003043D01*
X87825217Y56349900D02*
X87897789Y56495043D01*
X87897789Y56857900D01*
X87825217Y57003043D01*
X87680074Y57075614D01*
X87534931Y57075614D01*
X87389789Y57003043D01*
X87317217Y56857900D01*
X87317217Y56495043D01*
X87244646Y56349900D01*
X86881789Y55841900D02*
X86881789Y55261329D01*
X86373789Y55624186D02*
X87680074Y55624186D01*
X87825217Y55551614D01*
X87897789Y55406472D01*
X87897789Y55261329D01*
X87825217Y54172757D02*
X87897789Y54317900D01*
X87897789Y54608186D01*
X87825217Y54753329D01*
X87680074Y54825900D01*
X87099503Y54825900D01*
X86954360Y54753329D01*
X86881789Y54608186D01*
X86881789Y54317900D01*
X86954360Y54172757D01*
X87099503Y54100186D01*
X87244646Y54100186D01*
X87389789Y54825900D01*
X87897789Y52793900D02*
X86373789Y52793900D01*
X87825217Y52793900D02*
X87897789Y52939043D01*
X87897789Y53229329D01*
X87825217Y53374471D01*
X87752646Y53447043D01*
X87607503Y53519614D01*
X87172074Y53519614D01*
X87026931Y53447043D01*
X86954360Y53374471D01*
X86881789Y53229329D01*
X86881789Y52939043D01*
X86954360Y52793900D01*
D13*
X97625360Y56933900D02*
X97625360Y54133900D01*
X97625360Y54133900D02*
X99025360Y54133900D01*
X99025360Y54133900D02*
X99025360Y56933900D01*
X99025360Y56933900D02*
X97625360Y56933900D01*
X96575360Y52533900D02*
X97225360Y52533900D01*
X100075360Y52533900D02*
X99425360Y52533900D01*
X99425360Y58533900D02*
X100075360Y58533900D01*
X96575360Y58533900D02*
X97225360Y58533900D01*
X96575360Y52533900D02*
X96575360Y58533900D01*
X100075360Y58533900D02*
X100075360Y52533900D01*
X98526360Y100701900D02*
X95526360Y100701900D01*
X95526360Y100701900D02*
X95526360Y99301900D01*
X95526360Y99301900D02*
X89526360Y99301900D01*
X89526360Y99301900D02*
X89526360Y100701900D01*
X89526360Y100701900D02*
X86526360Y100701900D01*
X86526360Y100701900D02*
X86526360Y98051900D01*
X98526360Y100701900D02*
X98526360Y98051900D01*
X86526360Y91801900D02*
X86526360Y93951900D01*
X86526360Y91801900D02*
X88326360Y91801900D01*
X98526360Y91801900D02*
X98526360Y93951900D01*
X98526360Y91801900D02*
X96726360Y91801900D01*
D14*
X95937901Y57463446D02*
X95974670Y57353137D01*
X95974670Y57169290D01*
X95937901Y57095751D01*
X95901131Y57058981D01*
X95827592Y57022212D01*
X95754053Y57022212D01*
X95680514Y57058981D01*
X95643745Y57095751D01*
X95606975Y57169290D01*
X95570206Y57316368D01*
X95533436Y57389907D01*
X95496667Y57426676D01*
X95423128Y57463446D01*
X95349589Y57463446D01*
X95276050Y57426676D01*
X95239280Y57389907D01*
X95202510Y57316368D01*
X95202510Y57132520D01*
X95239280Y57022212D01*
X95202510Y56764825D02*
X95974670Y56580978D01*
X95423128Y56433900D01*
X95974670Y56286822D01*
X95202510Y56102974D01*
X95974670Y55404353D02*
X95974670Y55845587D01*
X95974670Y55624970D02*
X95202510Y55624970D01*
X95312819Y55698509D01*
X95386358Y55772048D01*
X95423128Y55845587D01*
M02*
