G04 #@! TF.FileFunction,Soldermask,Top*
%FSLAX46Y46*%
G04 Gerber Fmt 4.6, Leading zero omitted, Abs format (unit mm)*
G04 Created by KiCad (PCBNEW 4.0.0-rc2-stable) date 17/02/2016 11:29:09*
%MOMM*%
G01*
G04 APERTURE LIST*
%ADD10C,0.100000*%
%ADD11R,0.608000X1.243000*%
%ADD12R,1.100000X1.050000*%
%ADD13R,0.900000X0.850000*%
%ADD14R,0.850000X0.900000*%
%ADD15R,2.000000X2.700000*%
%ADD16R,0.350000X1.400000*%
%ADD17R,1.400000X0.350000*%
%ADD18R,0.897560X0.897560*%
%ADD19R,0.600380X2.401240*%
%ADD20R,2.098980X2.599360*%
%ADD21C,0.999160*%
%ADD22R,0.900100X0.900100*%
%ADD23R,1.700000X2.100000*%
%ADD24R,1.050000X1.100000*%
%ADD25R,0.840000X2.890000*%
G04 APERTURE END LIST*
D10*
D11*
X86133360Y92290900D03*
X88673360Y92290900D03*
X89943360Y92290900D03*
X91213360Y92290900D03*
X92483360Y92290900D03*
X93753360Y92290900D03*
X95023360Y92290900D03*
X95023360Y85940900D03*
X93753360Y85940900D03*
X92483360Y85940900D03*
X91213360Y85940900D03*
X89943360Y85940900D03*
X88673360Y85940900D03*
X87403360Y85940900D03*
X86133360Y85940900D03*
X87403360Y92290900D03*
D12*
X97622360Y94157900D03*
X97622360Y95757900D03*
D13*
X93003360Y80679900D03*
X94503360Y80679900D03*
D14*
X92356360Y78635900D03*
X92356360Y77135900D03*
D15*
X98824360Y78012900D03*
X94524360Y78012900D03*
D16*
X94820360Y74262900D03*
X94320360Y74262900D03*
X93820360Y74262900D03*
X93320360Y74262900D03*
X92820360Y74262900D03*
X92320360Y74262900D03*
X91820360Y74262900D03*
X91320360Y74262900D03*
X90820360Y74262900D03*
X90320360Y74262900D03*
X89820360Y74262900D03*
X89320360Y74262900D03*
D17*
X87720360Y72662900D03*
X87720360Y72162900D03*
X87720360Y71662900D03*
X87720360Y71162900D03*
X87720360Y70662900D03*
X87720360Y70162900D03*
X87720360Y69662900D03*
X87720360Y69162900D03*
X87720360Y68662900D03*
X87720360Y68162900D03*
X87720360Y67662900D03*
X87720360Y67162900D03*
D16*
X89320360Y65562900D03*
X89820360Y65562900D03*
X90320360Y65562900D03*
X90820360Y65562900D03*
X91320360Y65562900D03*
X91820360Y65562900D03*
X92320360Y65562900D03*
X92820360Y65562900D03*
X93320360Y65562900D03*
X93820360Y65562900D03*
X94320360Y65562900D03*
X94820360Y65562900D03*
D17*
X96420360Y67162900D03*
X96420360Y67662900D03*
X96420360Y68162900D03*
X96420360Y68662900D03*
X96420360Y69162900D03*
X96420360Y69662900D03*
X96420360Y70162900D03*
X96420360Y70662900D03*
X96420360Y71162900D03*
X96420360Y71662900D03*
X96420360Y72162900D03*
X96420360Y72662900D03*
D13*
X97702360Y63915900D03*
X99202360Y63915900D03*
D18*
X86146060Y77123900D03*
X87644660Y77123900D03*
D19*
X90888240Y58338060D03*
X91688340Y58338060D03*
X92488440Y58338060D03*
X93288540Y58338060D03*
X94088640Y58338060D03*
D20*
X88038360Y58239000D03*
X88038360Y52739900D03*
X96938520Y58239000D03*
X96938520Y52739900D03*
D21*
X90288800Y55739640D03*
X94688080Y55739640D03*
D13*
X97424360Y80679900D03*
X95924360Y80679900D03*
X98313360Y65947900D03*
X96813360Y65947900D03*
D14*
X98706360Y73047900D03*
X98706360Y71547900D03*
D13*
X97805360Y74202900D03*
X96305360Y74202900D03*
D14*
X99214360Y57577900D03*
X99214360Y59077900D03*
D13*
X87645360Y65312900D03*
X86145360Y65312900D03*
X86145360Y84362900D03*
X87645360Y84362900D03*
X86145360Y94522900D03*
X87645360Y94522900D03*
D18*
X86146060Y80171900D03*
X87644660Y80171900D03*
X86146060Y81695900D03*
X87644660Y81695900D03*
X86146060Y78647900D03*
X87644660Y78647900D03*
X97690360Y98599046D03*
X97690360Y97100446D03*
D22*
X99275360Y62503660D03*
X97375360Y62503660D03*
X98325360Y60504680D03*
D23*
X98198360Y83273900D03*
X98198360Y90273900D03*
D12*
X87149360Y61972900D03*
X87149360Y63572900D03*
X91848360Y63572900D03*
X91848360Y61972900D03*
X93372360Y63572900D03*
X93372360Y61972900D03*
X94896360Y61972900D03*
X94896360Y63572900D03*
X90324360Y61972900D03*
X90324360Y63572900D03*
X88800360Y63572900D03*
X88800360Y61972900D03*
X99146360Y95703900D03*
X99146360Y94103900D03*
D24*
X88762360Y80171900D03*
X90362360Y80171900D03*
X88762360Y81695900D03*
X90362360Y81695900D03*
X88765360Y78647900D03*
X90365360Y78647900D03*
X88765360Y77123900D03*
X90365360Y77123900D03*
X91810360Y84362900D03*
X93410360Y84362900D03*
D12*
X98706360Y70049900D03*
X98706360Y68449900D03*
D25*
X95082360Y99024900D03*
X95082360Y94954900D03*
X93812360Y99024900D03*
X93812360Y94954900D03*
X92542360Y99024900D03*
X92542360Y94954900D03*
X91272360Y99024900D03*
X91272360Y94954900D03*
X90002360Y99024900D03*
X90002360Y94954900D03*
M02*
