G04 #@! TF.FileFunction,Copper,L2,Bot,Signal*
%FSLAX46Y46*%
G04 Gerber Fmt 4.6, Leading zero omitted, Abs format (unit mm)*
G04 Created by KiCad (PCBNEW 4.0.0-rc2-stable) date 17/02/2016 11:29:09*
%MOMM*%
G01*
G04 APERTURE LIST*
%ADD10C,0.100000*%
%ADD11R,1.600000X2.000000*%
%ADD12R,1.800000X3.800000*%
%ADD13R,1.000000X3.000000*%
%ADD14C,0.800000*%
%ADD15C,0.250000*%
%ADD16C,0.609600*%
%ADD17C,0.203200*%
%ADD18C,0.254000*%
G04 APERTURE END LIST*
D10*
D11*
X98325360Y52033900D03*
X98325360Y59033900D03*
D12*
X87176360Y96001900D03*
X97876360Y96001900D03*
D13*
X89526360Y91401900D03*
X91526360Y91401900D03*
X93526360Y91401900D03*
X95526360Y91401900D03*
D14*
X93853000Y60375800D03*
X92710000Y56438800D03*
X93472000Y56438800D03*
X94638308Y81488702D03*
X95890887Y81488702D03*
X86006360Y64423900D03*
X89240360Y61048900D03*
X95830397Y64537846D03*
X96053700Y65987868D03*
X90374277Y82577238D03*
X96954938Y83470008D03*
X88392344Y83936083D03*
X95738727Y85941233D03*
X91497338Y73032402D03*
X95170394Y71530457D03*
X98638360Y63207900D03*
X96352360Y74891900D03*
X87760127Y74147517D03*
X97887808Y64980348D03*
X97805360Y73147900D03*
X87716360Y83019900D03*
X97114360Y60413900D03*
X96098360Y93941900D03*
X88676362Y94703900D03*
X88986360Y98513900D03*
X96352360Y99021900D03*
X88732360Y99783900D03*
X86195859Y79646692D03*
X88970430Y69495846D03*
X86470344Y70212336D03*
X85975340Y82965900D03*
X91269348Y85142401D03*
X88968897Y70495856D03*
X97729042Y75622001D03*
X98214603Y84994384D03*
X93753552Y72414354D03*
X94043701Y75504788D03*
X98965271Y67725254D03*
X94320360Y90700290D03*
X92177661Y91121619D03*
X98534909Y79971900D03*
X98029383Y67372921D03*
X96996712Y84865623D03*
X99208277Y75724244D03*
D15*
X90510360Y92417900D02*
X90405361Y92417900D01*
D16*
X93472000Y56438800D02*
X92710000Y56438800D01*
D15*
X96954938Y82535355D02*
X96954938Y83470008D01*
X97343154Y82147139D02*
X96954938Y82535355D01*
X95238916Y85441422D02*
X95738727Y85941233D01*
X87716360Y83019900D02*
X87403465Y82707005D01*
X87403465Y82707005D02*
X87403465Y74504179D01*
X87403465Y74504179D02*
X87760127Y74147517D01*
X97805360Y73147900D02*
X97805360Y68885606D01*
X97805360Y68885606D02*
X97304381Y68384627D01*
X97304381Y68384627D02*
X97304381Y65563775D01*
X97304381Y65563775D02*
X97887808Y64980348D01*
X97114360Y60413900D02*
X97114360Y60244900D01*
X97114360Y60244900D02*
X98325360Y59033900D01*
D16*
X89526360Y91401900D02*
X89526360Y93853902D01*
X89526360Y93853902D02*
X88676362Y94703900D01*
X95526360Y91401900D02*
X96985002Y91401900D01*
X99281161Y93698059D02*
X99281161Y98887099D01*
X96985002Y91401900D02*
X99281161Y93698059D01*
X99281161Y98887099D02*
X98384360Y99783900D01*
X98384360Y99783900D02*
X97114360Y99783900D01*
X97114360Y99783900D02*
X96352360Y99021900D01*
X88732360Y99783900D02*
X95590360Y99783900D01*
X95590360Y99783900D02*
X96352360Y99021900D01*
D15*
X86195859Y79646692D02*
X86195859Y71704732D01*
X88404745Y69495846D02*
X88970430Y69495846D01*
X86195859Y71704732D02*
X88404745Y69495846D01*
X85975340Y82965900D02*
X85470641Y82461201D01*
X85470641Y82461201D02*
X85470641Y71212039D01*
X85470641Y71212039D02*
X86470344Y70212336D01*
X89889849Y86521900D02*
X87276360Y86521900D01*
X91269348Y85142401D02*
X89889849Y86521900D01*
X86700360Y85945900D02*
X86700360Y80217537D01*
X86700360Y80217537D02*
X86923203Y79994694D01*
X86923203Y79994694D02*
X86923203Y71655891D01*
X87276360Y86521900D02*
X86700360Y85945900D01*
X86923203Y71655891D02*
X88067606Y70511488D01*
X88067606Y70511488D02*
X88953265Y70511488D01*
X88953265Y70511488D02*
X88968897Y70495856D01*
X98214603Y84994384D02*
X98715390Y84493597D01*
X98715390Y84493597D02*
X98715390Y81282617D01*
X98715390Y81282617D02*
X97802073Y80369300D01*
X97802073Y80369300D02*
X97802073Y76260717D01*
X97802073Y76260717D02*
X97729042Y76187686D01*
X97729042Y76187686D02*
X97729042Y75622001D01*
X94043701Y72704503D02*
X93753552Y72414354D01*
X94043701Y75504788D02*
X94043701Y72704503D01*
X98998951Y67723704D02*
X98966821Y67723704D01*
X98966821Y67723704D02*
X98965271Y67725254D01*
X98325360Y52452900D02*
X98947350Y52452900D01*
X99453784Y67268871D02*
X98998951Y67723704D01*
X98947350Y52452900D02*
X99453784Y52959334D01*
X99453784Y52959334D02*
X99453784Y67268871D01*
D17*
X94320360Y90700290D02*
X94227970Y90700290D01*
X94227970Y90700290D02*
X93526360Y91401900D01*
X94066360Y91401900D02*
X93526360Y91401900D01*
X91777662Y91521618D02*
X92177661Y91121619D01*
X91526360Y91401900D02*
X91646078Y91521618D01*
X91646078Y91521618D02*
X91777662Y91521618D01*
D15*
X98534909Y79406215D02*
X98534909Y79971900D01*
X98029383Y67372921D02*
X98029383Y68235725D01*
X98454062Y79325368D02*
X98534909Y79406215D01*
X98454062Y75361637D02*
X98454062Y79325368D01*
X99217577Y74598122D02*
X98454062Y75361637D01*
X98029383Y68235725D02*
X99217577Y69423919D01*
X99217577Y69423919D02*
X99217577Y74598122D01*
X99208277Y75724244D02*
X99259929Y75775896D01*
X99259929Y75775896D02*
X99259929Y85391282D01*
X97883097Y85752008D02*
X96996712Y84865623D01*
X99259929Y85391282D02*
X98899203Y85752008D01*
X98899203Y85752008D02*
X97883097Y85752008D01*
D18*
G36*
X87697540Y99990677D02*
X87697181Y99578929D01*
X87854418Y99198385D01*
X88145314Y98906981D01*
X88525583Y98749080D01*
X88937331Y98748721D01*
X89168167Y98844100D01*
X95201082Y98844100D01*
X95379798Y98665384D01*
X95474418Y98436385D01*
X95765314Y98144981D01*
X96145583Y97987080D01*
X96346134Y97986905D01*
X96328920Y97901900D01*
X96328920Y94101900D01*
X96373198Y93866583D01*
X96512270Y93650459D01*
X96724470Y93505469D01*
X96976360Y93454460D01*
X97708484Y93454460D01*
X97252924Y92998900D01*
X96655548Y92998900D01*
X96629522Y93137217D01*
X96490450Y93353341D01*
X96278250Y93498331D01*
X96026360Y93549340D01*
X95026360Y93549340D01*
X94791043Y93505062D01*
X94574919Y93365990D01*
X94527226Y93296189D01*
X94490450Y93353341D01*
X94278250Y93498331D01*
X94026360Y93549340D01*
X93026360Y93549340D01*
X92791043Y93505062D01*
X92574919Y93365990D01*
X92527226Y93296189D01*
X92490450Y93353341D01*
X92278250Y93498331D01*
X92026360Y93549340D01*
X91026360Y93549340D01*
X90791043Y93505062D01*
X90574919Y93365990D01*
X90528391Y93297894D01*
X90386058Y93440227D01*
X90152669Y93536900D01*
X89812110Y93536900D01*
X89653360Y93378150D01*
X89653360Y92458113D01*
X89645361Y92417900D01*
X89653360Y92377687D01*
X89653360Y91782613D01*
X89399360Y91782722D01*
X89399360Y93378150D01*
X89240610Y93536900D01*
X88900051Y93536900D01*
X88666662Y93440227D01*
X88488033Y93261599D01*
X88391360Y93028210D01*
X88391360Y91687650D01*
X88550110Y91528900D01*
X88679754Y91528900D01*
X88388557Y91237703D01*
X88360694Y91195689D01*
X88351360Y91147900D01*
X88351360Y89242900D01*
X85690360Y89242900D01*
X85690360Y93839912D01*
X85812270Y93650459D01*
X86024470Y93505469D01*
X86276360Y93454460D01*
X88076360Y93454460D01*
X88311677Y93498738D01*
X88527801Y93637810D01*
X88672791Y93850010D01*
X88723800Y94101900D01*
X88723800Y97901900D01*
X88679522Y98137217D01*
X88540450Y98353341D01*
X88328250Y98498331D01*
X88076360Y98549340D01*
X86276360Y98549340D01*
X86041043Y98505062D01*
X85824919Y98365990D01*
X85690360Y98169056D01*
X85690360Y98637969D01*
X85801406Y99196238D01*
X86078029Y99610233D01*
X86492020Y99886853D01*
X87050291Y99997900D01*
X87700539Y99997900D01*
X87697540Y99990677D01*
X87697540Y99990677D01*
G37*
X87697540Y99990677D02*
X87697181Y99578929D01*
X87854418Y99198385D01*
X88145314Y98906981D01*
X88525583Y98749080D01*
X88937331Y98748721D01*
X89168167Y98844100D01*
X95201082Y98844100D01*
X95379798Y98665384D01*
X95474418Y98436385D01*
X95765314Y98144981D01*
X96145583Y97987080D01*
X96346134Y97986905D01*
X96328920Y97901900D01*
X96328920Y94101900D01*
X96373198Y93866583D01*
X96512270Y93650459D01*
X96724470Y93505469D01*
X96976360Y93454460D01*
X97708484Y93454460D01*
X97252924Y92998900D01*
X96655548Y92998900D01*
X96629522Y93137217D01*
X96490450Y93353341D01*
X96278250Y93498331D01*
X96026360Y93549340D01*
X95026360Y93549340D01*
X94791043Y93505062D01*
X94574919Y93365990D01*
X94527226Y93296189D01*
X94490450Y93353341D01*
X94278250Y93498331D01*
X94026360Y93549340D01*
X93026360Y93549340D01*
X92791043Y93505062D01*
X92574919Y93365990D01*
X92527226Y93296189D01*
X92490450Y93353341D01*
X92278250Y93498331D01*
X92026360Y93549340D01*
X91026360Y93549340D01*
X90791043Y93505062D01*
X90574919Y93365990D01*
X90528391Y93297894D01*
X90386058Y93440227D01*
X90152669Y93536900D01*
X89812110Y93536900D01*
X89653360Y93378150D01*
X89653360Y92458113D01*
X89645361Y92417900D01*
X89653360Y92377687D01*
X89653360Y91782613D01*
X89399360Y91782722D01*
X89399360Y93378150D01*
X89240610Y93536900D01*
X88900051Y93536900D01*
X88666662Y93440227D01*
X88488033Y93261599D01*
X88391360Y93028210D01*
X88391360Y91687650D01*
X88550110Y91528900D01*
X88679754Y91528900D01*
X88388557Y91237703D01*
X88360694Y91195689D01*
X88351360Y91147900D01*
X88351360Y89242900D01*
X85690360Y89242900D01*
X85690360Y93839912D01*
X85812270Y93650459D01*
X86024470Y93505469D01*
X86276360Y93454460D01*
X88076360Y93454460D01*
X88311677Y93498738D01*
X88527801Y93637810D01*
X88672791Y93850010D01*
X88723800Y94101900D01*
X88723800Y97901900D01*
X88679522Y98137217D01*
X88540450Y98353341D01*
X88328250Y98498331D01*
X88076360Y98549340D01*
X86276360Y98549340D01*
X86041043Y98505062D01*
X85824919Y98365990D01*
X85690360Y98169056D01*
X85690360Y98637969D01*
X85801406Y99196238D01*
X86078029Y99610233D01*
X86492020Y99886853D01*
X87050291Y99997900D01*
X87700539Y99997900D01*
X87697540Y99990677D01*
G36*
X97489380Y86145725D02*
X97041039Y85697384D01*
X96831983Y85697567D01*
X96526151Y85571200D01*
X96291957Y85337415D01*
X96165057Y85031804D01*
X96164768Y84700894D01*
X96291135Y84395062D01*
X96524920Y84160868D01*
X96830531Y84033968D01*
X97161441Y84033679D01*
X97467273Y84160046D01*
X97670074Y84362493D01*
X97742811Y84289629D01*
X98048422Y84162729D01*
X98158590Y84162633D01*
X98158590Y81513251D01*
X97408356Y80763017D01*
X97287657Y80582378D01*
X97245273Y80369300D01*
X97245273Y76446631D01*
X97214626Y76400764D01*
X97185596Y76254820D01*
X97024287Y76093793D01*
X96897387Y75788182D01*
X96897098Y75457272D01*
X97023465Y75151440D01*
X97257250Y74917246D01*
X97562861Y74790346D01*
X97893771Y74790057D01*
X98137501Y74890764D01*
X98660777Y74367488D01*
X98660777Y69654553D01*
X98362160Y69355936D01*
X98362160Y72528411D01*
X98510115Y72676108D01*
X98637015Y72981719D01*
X98637304Y73312629D01*
X98510937Y73618461D01*
X98277152Y73852655D01*
X97971541Y73979555D01*
X97640631Y73979844D01*
X97334799Y73853477D01*
X97100605Y73619692D01*
X96973705Y73314081D01*
X96973416Y72983171D01*
X97099783Y72677339D01*
X97248560Y72528302D01*
X97248560Y69116240D01*
X96910664Y68778344D01*
X96789965Y68597705D01*
X96747581Y68384627D01*
X96747581Y65563775D01*
X96789965Y65350697D01*
X96910664Y65170058D01*
X97056047Y65024675D01*
X97055864Y64815619D01*
X97182231Y64509787D01*
X97416016Y64275593D01*
X97721627Y64148693D01*
X98052537Y64148404D01*
X98358369Y64274771D01*
X98592563Y64508556D01*
X98719463Y64814167D01*
X98719752Y65145077D01*
X98593385Y65450909D01*
X98359600Y65685103D01*
X98053989Y65812003D01*
X97861181Y65812171D01*
X97861181Y66542105D01*
X97863202Y66541266D01*
X98194112Y66540977D01*
X98499944Y66667344D01*
X98734138Y66901129D01*
X98741023Y66917710D01*
X98799090Y66893599D01*
X98896984Y66893514D01*
X98896984Y60474159D01*
X97946213Y60474159D01*
X97946304Y60578629D01*
X97819937Y60884461D01*
X97586152Y61118655D01*
X97280541Y61245555D01*
X96949631Y61245844D01*
X96643799Y61119477D01*
X96409605Y60885692D01*
X96282705Y60580081D01*
X96282416Y60249171D01*
X96408783Y59943339D01*
X96642568Y59709145D01*
X96948179Y59582245D01*
X96989617Y59582209D01*
X97085101Y59486725D01*
X97085101Y58033900D01*
X97115210Y57873885D01*
X97209779Y57726920D01*
X97354075Y57628327D01*
X97525360Y57593641D01*
X98896984Y57593641D01*
X98896984Y53474159D01*
X97525360Y53474159D01*
X97365345Y53444050D01*
X97218380Y53349481D01*
X97119787Y53205185D01*
X97085101Y53033900D01*
X97085101Y51214700D01*
X87030275Y51214700D01*
X86412735Y51337536D01*
X85931529Y51659068D01*
X85609996Y52140277D01*
X85487160Y52757816D01*
X85487160Y55565092D01*
X89407268Y55565092D01*
X89541167Y55241031D01*
X89788887Y54992878D01*
X90112714Y54858414D01*
X90463348Y54858108D01*
X90787409Y54992007D01*
X91035562Y55239727D01*
X91170026Y55563554D01*
X91170027Y55565092D01*
X93806548Y55565092D01*
X93940447Y55241031D01*
X94188167Y54992878D01*
X94511994Y54858414D01*
X94862628Y54858108D01*
X95186689Y54992007D01*
X95434842Y55239727D01*
X95569306Y55563554D01*
X95569612Y55914188D01*
X95435713Y56238249D01*
X95187993Y56486402D01*
X94864166Y56620866D01*
X94513532Y56621172D01*
X94189471Y56487273D01*
X93941318Y56239553D01*
X93806854Y55915726D01*
X93806548Y55565092D01*
X91170027Y55565092D01*
X91170332Y55914188D01*
X91036433Y56238249D01*
X90788713Y56486402D01*
X90464886Y56620866D01*
X90114252Y56621172D01*
X89790191Y56487273D01*
X89542038Y56239553D01*
X89407574Y55915726D01*
X89407268Y55565092D01*
X85487160Y55565092D01*
X85487160Y70408086D01*
X85638583Y70256663D01*
X85638400Y70047607D01*
X85764767Y69741775D01*
X85998552Y69507581D01*
X86304163Y69380681D01*
X86635073Y69380392D01*
X86940905Y69506759D01*
X87175099Y69740544D01*
X87233050Y69880107D01*
X88011028Y69102129D01*
X88191667Y68981430D01*
X88337611Y68952400D01*
X88498638Y68791091D01*
X88804249Y68664191D01*
X89135159Y68663902D01*
X89440991Y68790269D01*
X89675185Y69024054D01*
X89802085Y69329665D01*
X89802374Y69660575D01*
X89676007Y69966407D01*
X89646003Y69996463D01*
X89673652Y70024064D01*
X89800552Y70329675D01*
X89800841Y70660585D01*
X89674474Y70966417D01*
X89440689Y71200611D01*
X89135078Y71327511D01*
X88804168Y71327800D01*
X88498336Y71201433D01*
X88364958Y71068288D01*
X88298240Y71068288D01*
X87480003Y71886525D01*
X87480003Y72249625D01*
X92921608Y72249625D01*
X93047975Y71943793D01*
X93281760Y71709599D01*
X93587371Y71582699D01*
X93918281Y71582410D01*
X94224113Y71708777D01*
X94458307Y71942562D01*
X94585207Y72248173D01*
X94585496Y72579083D01*
X94578784Y72595326D01*
X94600501Y72704503D01*
X94600501Y74885299D01*
X94748456Y75032996D01*
X94875356Y75338607D01*
X94875645Y75669517D01*
X94749278Y75975349D01*
X94515493Y76209543D01*
X94209882Y76336443D01*
X93878972Y76336732D01*
X93573140Y76210365D01*
X93338946Y75976580D01*
X93212046Y75670969D01*
X93211757Y75340059D01*
X93338124Y75034227D01*
X93486901Y74885190D01*
X93486901Y73204185D01*
X93282991Y73119931D01*
X93048797Y72886146D01*
X92921897Y72580535D01*
X92921608Y72249625D01*
X87480003Y72249625D01*
X87480003Y73363175D01*
X87593946Y73315862D01*
X87924856Y73315573D01*
X88230688Y73441940D01*
X88464882Y73675725D01*
X88591782Y73981336D01*
X88592071Y74312246D01*
X88465704Y74618078D01*
X88231919Y74852272D01*
X87960265Y74965072D01*
X87960265Y82220671D01*
X88186921Y82314323D01*
X88421115Y82548108D01*
X88548015Y82853719D01*
X88548304Y83184629D01*
X88421937Y83490461D01*
X88188152Y83724655D01*
X87882541Y83851555D01*
X87551631Y83851844D01*
X87257160Y83730171D01*
X87257160Y85715266D01*
X87506994Y85965100D01*
X89659215Y85965100D01*
X90437587Y85186728D01*
X90437404Y84977672D01*
X90563771Y84671840D01*
X90797556Y84437646D01*
X91103167Y84310746D01*
X91434077Y84310457D01*
X91739909Y84436824D01*
X91974103Y84670609D01*
X92101003Y84976220D01*
X92101292Y85307130D01*
X91974925Y85612962D01*
X91741140Y85847156D01*
X91435529Y85974056D01*
X91224943Y85974240D01*
X91004283Y86194900D01*
X97562976Y86194900D01*
X97489380Y86145725D01*
X97489380Y86145725D01*
G37*
X97489380Y86145725D02*
X97041039Y85697384D01*
X96831983Y85697567D01*
X96526151Y85571200D01*
X96291957Y85337415D01*
X96165057Y85031804D01*
X96164768Y84700894D01*
X96291135Y84395062D01*
X96524920Y84160868D01*
X96830531Y84033968D01*
X97161441Y84033679D01*
X97467273Y84160046D01*
X97670074Y84362493D01*
X97742811Y84289629D01*
X98048422Y84162729D01*
X98158590Y84162633D01*
X98158590Y81513251D01*
X97408356Y80763017D01*
X97287657Y80582378D01*
X97245273Y80369300D01*
X97245273Y76446631D01*
X97214626Y76400764D01*
X97185596Y76254820D01*
X97024287Y76093793D01*
X96897387Y75788182D01*
X96897098Y75457272D01*
X97023465Y75151440D01*
X97257250Y74917246D01*
X97562861Y74790346D01*
X97893771Y74790057D01*
X98137501Y74890764D01*
X98660777Y74367488D01*
X98660777Y69654553D01*
X98362160Y69355936D01*
X98362160Y72528411D01*
X98510115Y72676108D01*
X98637015Y72981719D01*
X98637304Y73312629D01*
X98510937Y73618461D01*
X98277152Y73852655D01*
X97971541Y73979555D01*
X97640631Y73979844D01*
X97334799Y73853477D01*
X97100605Y73619692D01*
X96973705Y73314081D01*
X96973416Y72983171D01*
X97099783Y72677339D01*
X97248560Y72528302D01*
X97248560Y69116240D01*
X96910664Y68778344D01*
X96789965Y68597705D01*
X96747581Y68384627D01*
X96747581Y65563775D01*
X96789965Y65350697D01*
X96910664Y65170058D01*
X97056047Y65024675D01*
X97055864Y64815619D01*
X97182231Y64509787D01*
X97416016Y64275593D01*
X97721627Y64148693D01*
X98052537Y64148404D01*
X98358369Y64274771D01*
X98592563Y64508556D01*
X98719463Y64814167D01*
X98719752Y65145077D01*
X98593385Y65450909D01*
X98359600Y65685103D01*
X98053989Y65812003D01*
X97861181Y65812171D01*
X97861181Y66542105D01*
X97863202Y66541266D01*
X98194112Y66540977D01*
X98499944Y66667344D01*
X98734138Y66901129D01*
X98741023Y66917710D01*
X98799090Y66893599D01*
X98896984Y66893514D01*
X98896984Y60474159D01*
X97946213Y60474159D01*
X97946304Y60578629D01*
X97819937Y60884461D01*
X97586152Y61118655D01*
X97280541Y61245555D01*
X96949631Y61245844D01*
X96643799Y61119477D01*
X96409605Y60885692D01*
X96282705Y60580081D01*
X96282416Y60249171D01*
X96408783Y59943339D01*
X96642568Y59709145D01*
X96948179Y59582245D01*
X96989617Y59582209D01*
X97085101Y59486725D01*
X97085101Y58033900D01*
X97115210Y57873885D01*
X97209779Y57726920D01*
X97354075Y57628327D01*
X97525360Y57593641D01*
X98896984Y57593641D01*
X98896984Y53474159D01*
X97525360Y53474159D01*
X97365345Y53444050D01*
X97218380Y53349481D01*
X97119787Y53205185D01*
X97085101Y53033900D01*
X97085101Y51214700D01*
X87030275Y51214700D01*
X86412735Y51337536D01*
X85931529Y51659068D01*
X85609996Y52140277D01*
X85487160Y52757816D01*
X85487160Y55565092D01*
X89407268Y55565092D01*
X89541167Y55241031D01*
X89788887Y54992878D01*
X90112714Y54858414D01*
X90463348Y54858108D01*
X90787409Y54992007D01*
X91035562Y55239727D01*
X91170026Y55563554D01*
X91170027Y55565092D01*
X93806548Y55565092D01*
X93940447Y55241031D01*
X94188167Y54992878D01*
X94511994Y54858414D01*
X94862628Y54858108D01*
X95186689Y54992007D01*
X95434842Y55239727D01*
X95569306Y55563554D01*
X95569612Y55914188D01*
X95435713Y56238249D01*
X95187993Y56486402D01*
X94864166Y56620866D01*
X94513532Y56621172D01*
X94189471Y56487273D01*
X93941318Y56239553D01*
X93806854Y55915726D01*
X93806548Y55565092D01*
X91170027Y55565092D01*
X91170332Y55914188D01*
X91036433Y56238249D01*
X90788713Y56486402D01*
X90464886Y56620866D01*
X90114252Y56621172D01*
X89790191Y56487273D01*
X89542038Y56239553D01*
X89407574Y55915726D01*
X89407268Y55565092D01*
X85487160Y55565092D01*
X85487160Y70408086D01*
X85638583Y70256663D01*
X85638400Y70047607D01*
X85764767Y69741775D01*
X85998552Y69507581D01*
X86304163Y69380681D01*
X86635073Y69380392D01*
X86940905Y69506759D01*
X87175099Y69740544D01*
X87233050Y69880107D01*
X88011028Y69102129D01*
X88191667Y68981430D01*
X88337611Y68952400D01*
X88498638Y68791091D01*
X88804249Y68664191D01*
X89135159Y68663902D01*
X89440991Y68790269D01*
X89675185Y69024054D01*
X89802085Y69329665D01*
X89802374Y69660575D01*
X89676007Y69966407D01*
X89646003Y69996463D01*
X89673652Y70024064D01*
X89800552Y70329675D01*
X89800841Y70660585D01*
X89674474Y70966417D01*
X89440689Y71200611D01*
X89135078Y71327511D01*
X88804168Y71327800D01*
X88498336Y71201433D01*
X88364958Y71068288D01*
X88298240Y71068288D01*
X87480003Y71886525D01*
X87480003Y72249625D01*
X92921608Y72249625D01*
X93047975Y71943793D01*
X93281760Y71709599D01*
X93587371Y71582699D01*
X93918281Y71582410D01*
X94224113Y71708777D01*
X94458307Y71942562D01*
X94585207Y72248173D01*
X94585496Y72579083D01*
X94578784Y72595326D01*
X94600501Y72704503D01*
X94600501Y74885299D01*
X94748456Y75032996D01*
X94875356Y75338607D01*
X94875645Y75669517D01*
X94749278Y75975349D01*
X94515493Y76209543D01*
X94209882Y76336443D01*
X93878972Y76336732D01*
X93573140Y76210365D01*
X93338946Y75976580D01*
X93212046Y75670969D01*
X93211757Y75340059D01*
X93338124Y75034227D01*
X93486901Y74885190D01*
X93486901Y73204185D01*
X93282991Y73119931D01*
X93048797Y72886146D01*
X92921897Y72580535D01*
X92921608Y72249625D01*
X87480003Y72249625D01*
X87480003Y73363175D01*
X87593946Y73315862D01*
X87924856Y73315573D01*
X88230688Y73441940D01*
X88464882Y73675725D01*
X88591782Y73981336D01*
X88592071Y74312246D01*
X88465704Y74618078D01*
X88231919Y74852272D01*
X87960265Y74965072D01*
X87960265Y82220671D01*
X88186921Y82314323D01*
X88421115Y82548108D01*
X88548015Y82853719D01*
X88548304Y83184629D01*
X88421937Y83490461D01*
X88188152Y83724655D01*
X87882541Y83851555D01*
X87551631Y83851844D01*
X87257160Y83730171D01*
X87257160Y85715266D01*
X87506994Y85965100D01*
X89659215Y85965100D01*
X90437587Y85186728D01*
X90437404Y84977672D01*
X90563771Y84671840D01*
X90797556Y84437646D01*
X91103167Y84310746D01*
X91434077Y84310457D01*
X91739909Y84436824D01*
X91974103Y84670609D01*
X92101003Y84976220D01*
X92101292Y85307130D01*
X91974925Y85612962D01*
X91741140Y85847156D01*
X91435529Y85974056D01*
X91224943Y85974240D01*
X91004283Y86194900D01*
X97562976Y86194900D01*
X97489380Y86145725D01*
M02*
