G04 #@! TF.FileFunction,Copper,L1,Top,Signal*
%FSLAX46Y46*%
G04 Gerber Fmt 4.6, Leading zero omitted, Abs format (unit mm)*
G04 Created by KiCad (PCBNEW 4.0.0-rc2-stable) date 17/02/2016 11:29:09*
%MOMM*%
G01*
G04 APERTURE LIST*
%ADD10C,0.100000*%
%ADD11R,0.508000X1.143000*%
%ADD12R,1.000000X0.950000*%
%ADD13R,0.800000X0.750000*%
%ADD14R,0.750000X0.800000*%
%ADD15R,1.900000X2.600000*%
%ADD16R,0.250000X1.300000*%
%ADD17R,1.300000X0.250000*%
%ADD18R,0.797560X0.797560*%
%ADD19R,0.500380X2.301240*%
%ADD20R,1.998980X2.499360*%
%ADD21R,0.800100X0.800100*%
%ADD22R,1.600000X2.000000*%
%ADD23R,0.950000X1.000000*%
%ADD24R,0.740000X2.790000*%
%ADD25C,0.800000*%
%ADD26C,0.250000*%
%ADD27C,0.609600*%
%ADD28C,0.203200*%
%ADD29C,0.210000*%
G04 APERTURE END LIST*
D10*
D11*
X86133360Y92290900D03*
X88673360Y92290900D03*
X89943360Y92290900D03*
X91213360Y92290900D03*
X92483360Y92290900D03*
X93753360Y92290900D03*
X95023360Y92290900D03*
X95023360Y85940900D03*
X93753360Y85940900D03*
X92483360Y85940900D03*
X91213360Y85940900D03*
X89943360Y85940900D03*
X88673360Y85940900D03*
X87403360Y85940900D03*
X86133360Y85940900D03*
X87403360Y92290900D03*
D12*
X97622360Y94157900D03*
X97622360Y95757900D03*
D13*
X93003360Y80679900D03*
X94503360Y80679900D03*
D14*
X92356360Y78635900D03*
X92356360Y77135900D03*
D15*
X98824360Y78012900D03*
X94524360Y78012900D03*
D16*
X94820360Y74262900D03*
X94320360Y74262900D03*
X93820360Y74262900D03*
X93320360Y74262900D03*
X92820360Y74262900D03*
X92320360Y74262900D03*
X91820360Y74262900D03*
X91320360Y74262900D03*
X90820360Y74262900D03*
X90320360Y74262900D03*
X89820360Y74262900D03*
X89320360Y74262900D03*
D17*
X87720360Y72662900D03*
X87720360Y72162900D03*
X87720360Y71662900D03*
X87720360Y71162900D03*
X87720360Y70662900D03*
X87720360Y70162900D03*
X87720360Y69662900D03*
X87720360Y69162900D03*
X87720360Y68662900D03*
X87720360Y68162900D03*
X87720360Y67662900D03*
X87720360Y67162900D03*
D16*
X89320360Y65562900D03*
X89820360Y65562900D03*
X90320360Y65562900D03*
X90820360Y65562900D03*
X91320360Y65562900D03*
X91820360Y65562900D03*
X92320360Y65562900D03*
X92820360Y65562900D03*
X93320360Y65562900D03*
X93820360Y65562900D03*
X94320360Y65562900D03*
X94820360Y65562900D03*
D17*
X96420360Y67162900D03*
X96420360Y67662900D03*
X96420360Y68162900D03*
X96420360Y68662900D03*
X96420360Y69162900D03*
X96420360Y69662900D03*
X96420360Y70162900D03*
X96420360Y70662900D03*
X96420360Y71162900D03*
X96420360Y71662900D03*
X96420360Y72162900D03*
X96420360Y72662900D03*
D13*
X97702360Y63915900D03*
X99202360Y63915900D03*
D18*
X86146060Y77123900D03*
X87644660Y77123900D03*
D19*
X90888240Y58338060D03*
X91688340Y58338060D03*
X92488440Y58338060D03*
X93288540Y58338060D03*
X94088640Y58338060D03*
D20*
X88038360Y58239000D03*
X88038360Y52739900D03*
X96938520Y58239000D03*
X96938520Y52739900D03*
D13*
X97424360Y80679900D03*
X95924360Y80679900D03*
X98313360Y65947900D03*
X96813360Y65947900D03*
D14*
X98706360Y73047900D03*
X98706360Y71547900D03*
D13*
X97805360Y74202900D03*
X96305360Y74202900D03*
D14*
X99214360Y57577900D03*
X99214360Y59077900D03*
D13*
X87645360Y65312900D03*
X86145360Y65312900D03*
X86145360Y84362900D03*
X87645360Y84362900D03*
X86145360Y94522900D03*
X87645360Y94522900D03*
D18*
X86146060Y80171900D03*
X87644660Y80171900D03*
X86146060Y81695900D03*
X87644660Y81695900D03*
X86146060Y78647900D03*
X87644660Y78647900D03*
X97690360Y98599046D03*
X97690360Y97100446D03*
D21*
X99275360Y62503660D03*
X97375360Y62503660D03*
X98325360Y60504680D03*
D22*
X98198360Y83273900D03*
X98198360Y90273900D03*
D12*
X87149360Y61972900D03*
X87149360Y63572900D03*
X91848360Y63572900D03*
X91848360Y61972900D03*
X93372360Y63572900D03*
X93372360Y61972900D03*
X94896360Y61972900D03*
X94896360Y63572900D03*
X90324360Y61972900D03*
X90324360Y63572900D03*
X88800360Y63572900D03*
X88800360Y61972900D03*
X99146360Y95703900D03*
X99146360Y94103900D03*
D23*
X88762360Y80171900D03*
X90362360Y80171900D03*
X88762360Y81695900D03*
X90362360Y81695900D03*
X88765360Y78647900D03*
X90365360Y78647900D03*
X88765360Y77123900D03*
X90365360Y77123900D03*
X91810360Y84362900D03*
X93410360Y84362900D03*
D12*
X98706360Y70049900D03*
X98706360Y68449900D03*
D24*
X95082360Y99024900D03*
X95082360Y94954900D03*
X93812360Y99024900D03*
X93812360Y94954900D03*
X92542360Y99024900D03*
X92542360Y94954900D03*
X91272360Y99024900D03*
X91272360Y94954900D03*
X90002360Y99024900D03*
X90002360Y94954900D03*
D25*
X93853000Y60375800D03*
X92710000Y56438800D03*
X93472000Y56438800D03*
X94638308Y81488702D03*
X95890887Y81488702D03*
X86006360Y64423900D03*
X89240360Y61048900D03*
X95830397Y64537846D03*
X96053700Y65987868D03*
X90374277Y82577238D03*
X96954938Y83470008D03*
X88392344Y83936083D03*
X95738727Y85941233D03*
X91497338Y73032402D03*
X95170394Y71530457D03*
X98638360Y63207900D03*
X96352360Y74891900D03*
X87760127Y74147517D03*
X97887808Y64980348D03*
X97805360Y73147900D03*
X87716360Y83019900D03*
X97114360Y60413900D03*
X96098360Y93941900D03*
X88676362Y94703900D03*
X88986360Y98513900D03*
X96352360Y99021900D03*
X88732360Y99783900D03*
X86195859Y79646692D03*
X88970430Y69495846D03*
X86470344Y70212336D03*
X85975340Y82965900D03*
X91269348Y85142401D03*
X88968897Y70495856D03*
X97729042Y75622001D03*
X98214603Y84994384D03*
X93753552Y72414354D03*
X94043701Y75504788D03*
X98965271Y67725254D03*
X94320360Y90700290D03*
X92177661Y91121619D03*
X98534909Y79971900D03*
X98029383Y67372921D03*
X96996712Y84865623D03*
X99208277Y75724244D03*
D26*
X97424360Y80679900D02*
X97424360Y78212900D01*
X97424360Y78212900D02*
X97624360Y78012900D01*
X97624360Y78012900D02*
X98824360Y78012900D01*
X95951141Y76378901D02*
X97925589Y78353349D01*
X93844812Y76378901D02*
X95951141Y76378901D01*
X92820360Y74262900D02*
X92820360Y75354449D01*
X92820360Y75354449D02*
X93844812Y76378901D01*
D27*
X94088640Y56577840D02*
X93891760Y56577840D01*
X93983199Y56537201D02*
X93878400Y56642000D01*
X93786961Y56591200D02*
X92532200Y56591200D01*
X92557600Y56583581D02*
X92557600Y56517542D01*
X92532200Y56578500D02*
X92710000Y56400700D01*
X94088640Y58338060D02*
X94088640Y60140160D01*
X94088640Y60140160D02*
X93853000Y60375800D01*
X94088640Y58338060D02*
X94088640Y56577840D01*
X94088640Y56577840D02*
X93949600Y56438800D01*
X93949600Y56438800D02*
X93472000Y56438800D01*
D26*
X94503360Y80679900D02*
X94503360Y81353754D01*
X94503360Y81353754D02*
X94638308Y81488702D01*
X95924360Y80679900D02*
X95924360Y81455229D01*
X95924360Y81455229D02*
X95890887Y81488702D01*
X92356360Y77135900D02*
X92356360Y76282076D01*
X92356360Y76282076D02*
X91320360Y75246076D01*
X91320360Y75246076D02*
X91320360Y74262900D01*
X86145360Y65312900D02*
X86145360Y64562900D01*
X86145360Y64562900D02*
X86006360Y64423900D01*
X87720360Y67662900D02*
X86820360Y67662900D01*
X86820360Y67662900D02*
X86006360Y66848900D01*
X86006360Y66848900D02*
X86006360Y64423900D01*
X88800360Y61972900D02*
X88800360Y61488900D01*
X88800360Y61488900D02*
X89240360Y61048900D01*
X94603827Y64537846D02*
X95830397Y64537846D01*
X94320360Y65562900D02*
X94320360Y64821313D01*
X94320360Y64821313D02*
X94603827Y64537846D01*
X96093668Y65947900D02*
X96053700Y65987868D01*
X96813360Y65947900D02*
X96093668Y65947900D01*
X98706360Y71547900D02*
X98706360Y70049900D01*
X96420360Y72162900D02*
X98091360Y72162900D01*
X98091360Y72162900D02*
X98706360Y71547900D01*
X90342349Y81406032D02*
X90374277Y81437960D01*
X90374277Y82011553D02*
X90374277Y82577238D01*
X90374277Y81437960D02*
X90374277Y82011553D01*
X90362360Y80171900D02*
X90362360Y81695900D01*
X90365360Y77842135D02*
X90365360Y81692900D01*
X90365360Y77123900D02*
X90365360Y77842135D01*
X90365360Y77842135D02*
X90365360Y78647900D01*
X90365360Y81692900D02*
X90362360Y81695900D01*
X96954938Y83470008D02*
X98042252Y83470008D01*
X98042252Y83470008D02*
X98198360Y83313900D01*
D27*
X99275360Y62503660D02*
X99275360Y59138900D01*
X99275360Y59138900D02*
X99214360Y59077900D01*
D26*
X95023360Y86267900D02*
X95412060Y86267900D01*
X95412060Y86267900D02*
X95738727Y85941233D01*
X88392344Y84265916D02*
X88392344Y83936083D01*
X87645360Y84362900D02*
X88295360Y84362900D01*
X88295360Y84362900D02*
X88392344Y84265916D01*
X91320360Y73209380D02*
X91497338Y73032402D01*
X91320360Y74262900D02*
X91320360Y73209380D01*
X95520360Y72162900D02*
X95170394Y71812934D01*
X96420360Y72162900D02*
X95520360Y72162900D01*
X95170394Y71812934D02*
X95170394Y71530457D01*
X99275360Y62503660D02*
X99275360Y62570900D01*
X99275360Y62570900D02*
X98638360Y63207900D01*
X96305360Y74202900D02*
X96305360Y74844900D01*
X96305360Y74844900D02*
X96352360Y74891900D01*
D27*
X99075360Y64042900D02*
X99075360Y62703660D01*
X99075360Y62703660D02*
X99275360Y62503660D01*
D26*
X88160126Y73747518D02*
X87760127Y74147517D01*
X89839148Y72034112D02*
X89839148Y72068496D01*
X89839148Y72068496D02*
X88160126Y73747518D01*
X92356360Y78610900D02*
X92356360Y78635900D01*
X91615372Y76177499D02*
X91615372Y77869912D01*
X90820360Y75586310D02*
X91082938Y75848888D01*
X90820360Y74262900D02*
X90820360Y75586310D01*
X91615372Y77869912D02*
X92356360Y78610900D01*
X91082938Y75848888D02*
X91286761Y75848888D01*
X91286761Y75848888D02*
X91615372Y76177499D01*
X86920879Y83022797D02*
X86920879Y77249939D01*
X86146060Y77123900D02*
X86794840Y77123900D01*
X86794840Y77123900D02*
X86920879Y77249939D01*
X87276360Y63572900D02*
X87276360Y64943900D01*
X87276360Y64943900D02*
X87645360Y65312900D01*
X95495394Y65262866D02*
X96160537Y65262866D01*
X95195360Y65562900D02*
X95495394Y65262866D01*
X94820360Y65562900D02*
X95195360Y65562900D01*
X96755503Y64667900D02*
X97575360Y64667900D01*
X96160537Y65262866D02*
X96755503Y64667900D01*
X98706360Y73047900D02*
X97905360Y73047900D01*
X97905360Y73047900D02*
X97805360Y73147900D01*
X86869841Y83073835D02*
X86920879Y83022797D01*
X96420360Y69162900D02*
X95395360Y69162900D01*
X95395360Y69162900D02*
X95351859Y69206401D01*
X95520360Y72662900D02*
X95229833Y72662900D01*
X95229833Y72662900D02*
X94445392Y71878459D01*
X94445392Y71878459D02*
X94445392Y71100154D01*
X94445392Y71100154D02*
X95351859Y70193687D01*
X95351859Y70193687D02*
X95351859Y69206401D01*
X95351859Y69206401D02*
X95895360Y68662900D01*
X95895360Y68662900D02*
X96420360Y68662900D01*
X86133360Y86267900D02*
X86133360Y84374900D01*
X86133360Y84374900D02*
X86145360Y84362900D01*
X94820360Y73267517D02*
X92910743Y73267517D01*
X91941126Y72297900D02*
X91206507Y72297900D01*
X92910743Y73267517D02*
X91941126Y72297900D01*
X91206507Y72297900D02*
X90770361Y72734046D01*
X94820360Y73267517D02*
X94820360Y73058083D01*
X94820360Y74262900D02*
X94820360Y73267517D01*
X94820360Y73058083D02*
X95215543Y72662900D01*
X95215543Y72662900D02*
X95520360Y72662900D01*
X98345903Y65438443D02*
X97887808Y64980348D01*
X97887808Y64980348D02*
X97575360Y64667900D01*
X96420360Y72662900D02*
X96945360Y72662900D01*
X96945360Y72662900D02*
X97430360Y73147900D01*
X97430360Y73147900D02*
X97805360Y73147900D01*
X86869841Y83663419D02*
X86869841Y83073835D01*
X86869841Y83073835D02*
X87662425Y83073835D01*
X87662425Y83073835D02*
X87716360Y83019900D01*
X86145360Y84362900D02*
X86170360Y84362900D01*
X86170360Y84362900D02*
X86869841Y83663419D01*
X90820360Y74262900D02*
X90820360Y73677900D01*
X90770361Y72734046D02*
X90070427Y72034112D01*
X90820360Y73677900D02*
X90770361Y73627901D01*
X90770361Y73627901D02*
X90770361Y72734046D01*
X90070427Y72034112D02*
X89839148Y72034112D01*
X90002360Y68648493D02*
X88516767Y67162900D01*
X90002360Y71870900D02*
X90002360Y68648493D01*
X88516767Y67162900D02*
X87720360Y67162900D01*
X89839148Y72034112D02*
X90002360Y71870900D01*
X98313360Y65947900D02*
X98313360Y65658312D01*
X98313360Y65658312D02*
X98345903Y65625769D01*
X98345903Y65625769D02*
X98345903Y65438443D01*
X97575360Y64667900D02*
X97575360Y64042900D01*
X97375360Y62503660D02*
X97375360Y60674900D01*
X97375360Y60674900D02*
X97114360Y60413900D01*
X87645360Y65312900D02*
X87645360Y67087900D01*
X87645360Y67087900D02*
X87720360Y67162900D01*
D27*
X97375360Y62503660D02*
X97375360Y63842900D01*
X97375360Y63842900D02*
X97575360Y64042900D01*
D26*
X95520360Y72662900D02*
X96420360Y72662900D01*
X97805360Y73147900D02*
X97805360Y74202900D01*
X94524360Y78012900D02*
X94524360Y78362900D01*
X93003360Y79883900D02*
X93003360Y80679900D01*
X94524360Y78362900D02*
X93003360Y79883900D01*
X92320360Y74262900D02*
X92320360Y75609665D01*
X92320360Y75609665D02*
X94524360Y77813665D01*
X94524360Y77813665D02*
X94524360Y78012900D01*
X98325360Y60504680D02*
X98325360Y57841900D01*
X98325360Y57841900D02*
X98589360Y57577900D01*
X98589360Y57577900D02*
X99214360Y57577900D01*
D27*
X99214360Y57395830D02*
X99214360Y55655900D01*
X99214360Y55655900D02*
X98343719Y54785259D01*
X98343719Y54785259D02*
X92680821Y54785259D01*
X92680821Y54785259D02*
X90888240Y56577840D01*
X90888240Y56577840D02*
X90888240Y58338060D01*
D26*
X90888240Y58338060D02*
X90888240Y61405020D01*
X90888240Y61405020D02*
X90270360Y62022900D01*
X90270360Y62022900D02*
X90070360Y62022900D01*
D28*
X93140759Y97325299D02*
X92542360Y97325299D01*
X92542360Y97325299D02*
X90174961Y97325299D01*
X92542360Y99021900D02*
X92542360Y97325299D01*
X93812360Y99021900D02*
X93812360Y97996900D01*
X93812360Y97996900D02*
X93140759Y97325299D01*
X90174961Y97325299D02*
X89386359Y98113901D01*
X89386359Y98113901D02*
X88986360Y98513900D01*
D26*
X96606360Y94957900D02*
X96606360Y94449900D01*
X96606360Y94449900D02*
X96098360Y93941900D01*
D29*
X98267360Y94957900D02*
X96606360Y94957900D01*
D26*
X99146360Y94103900D02*
X99121360Y94103900D01*
X99121360Y94103900D02*
X98267360Y94957900D01*
D27*
X95023360Y92617900D02*
X95422002Y92617900D01*
X96098360Y93294258D02*
X96098360Y93941900D01*
X95422002Y92617900D02*
X96098360Y93294258D01*
X87645360Y94522900D02*
X88495362Y94522900D01*
X88495362Y94522900D02*
X88676362Y94703900D01*
X90002360Y99021900D02*
X89494360Y99021900D01*
X89494360Y99021900D02*
X88986360Y98513900D01*
X95082360Y99021900D02*
X96352360Y99021900D01*
X96352360Y99021900D02*
X97267506Y99021900D01*
X87462360Y99529900D02*
X87716360Y99783900D01*
X87716360Y99783900D02*
X88732360Y99783900D01*
X86145360Y98212900D02*
X87462360Y99529900D01*
X86145360Y95041202D02*
X86145360Y98212900D01*
X97267506Y99021900D02*
X97690360Y98599046D01*
X86145360Y94522900D02*
X86145360Y95041202D01*
X86145360Y94522900D02*
X86145360Y92629900D01*
X86145360Y92629900D02*
X86133360Y92617900D01*
X86133360Y92617900D02*
X86133360Y93132987D01*
D26*
X86146060Y80139900D02*
X86146060Y79696491D01*
X86146060Y79696491D02*
X86195859Y79646692D01*
X88637484Y69162900D02*
X88970430Y69495846D01*
X87720360Y69162900D02*
X88637484Y69162900D01*
X87644660Y80171900D02*
X88762360Y80171900D01*
X86470344Y69165516D02*
X86470344Y70212336D01*
X87720360Y68662900D02*
X86972960Y68662900D01*
X86972960Y68662900D02*
X86470344Y69165516D01*
X86146060Y82795180D02*
X85975340Y82965900D01*
X86146060Y81821900D02*
X86146060Y82795180D01*
X87644660Y81695900D02*
X88762360Y81695900D01*
X86146060Y78647900D02*
X85497280Y78647900D01*
X85497280Y78647900D02*
X85411749Y78562369D01*
X85411749Y78562369D02*
X85411749Y69571511D01*
X85411749Y69571511D02*
X86820360Y68162900D01*
X86820360Y68162900D02*
X87720360Y68162900D01*
X87644660Y78647900D02*
X88765360Y78647900D01*
X87644660Y77123900D02*
X88765360Y77123900D01*
X97690360Y97100446D02*
X98142073Y97100446D01*
X98142073Y97100446D02*
X99146360Y96096159D01*
X99146360Y96096159D02*
X99146360Y95703900D01*
X90456359Y76298899D02*
X89320360Y75162900D01*
X91165361Y78081312D02*
X91165361Y76363899D01*
X91165361Y76363899D02*
X91100361Y76298899D01*
X91210939Y82765908D02*
X91210938Y78126889D01*
X90560348Y83416499D02*
X91210939Y82765908D01*
X91210938Y78126889D02*
X91165361Y78081312D01*
X89177360Y85114900D02*
X90560348Y83731912D01*
X89177360Y85446400D02*
X89177360Y85114900D01*
X88673360Y85950400D02*
X89177360Y85446400D01*
X90560348Y83731912D02*
X90560348Y83416499D01*
X91100361Y76298899D02*
X90456359Y76298899D01*
X88673360Y86267900D02*
X88673360Y85950400D01*
X89320360Y75162900D02*
X89320360Y74262900D01*
X91860360Y84551389D02*
X91269348Y85142401D01*
X91213360Y86267900D02*
X91213360Y85198389D01*
X91860360Y84362900D02*
X91860360Y84551389D01*
X91213360Y85198389D02*
X91269348Y85142401D01*
X88968897Y71814363D02*
X88968897Y70495856D01*
X87720360Y72162900D02*
X88620360Y72162900D01*
X88620360Y72162900D02*
X88968897Y71814363D01*
X87403360Y86267900D02*
X87403360Y85885196D01*
X87403360Y85885196D02*
X88428457Y84860099D01*
X88728086Y84860099D02*
X88735864Y84867877D01*
X88428457Y84860099D02*
X88728086Y84860099D01*
D28*
X89541961Y76338990D02*
X89541961Y83982598D01*
X89541961Y83982598D02*
X88735864Y84788695D01*
X88735864Y84788695D02*
X88735864Y84867877D01*
D26*
X87720360Y71662900D02*
X86980371Y71662900D01*
X86980371Y71662900D02*
X86745359Y71897912D01*
X86745359Y71897912D02*
X86745359Y75068899D01*
X86745359Y75068899D02*
X87784360Y76107900D01*
X87784360Y76107900D02*
X89310871Y76107900D01*
X89310871Y76107900D02*
X89541961Y76338990D01*
X98198360Y85010627D02*
X98198360Y90275900D01*
X89320360Y65562900D02*
X89320360Y65037900D01*
X89320360Y65037900D02*
X88945360Y64662900D01*
X88945360Y64662900D02*
X88420360Y64662900D01*
X88420360Y64662900D02*
X87975359Y64217899D01*
X87174360Y61972900D02*
X87149360Y61972900D01*
X87975359Y64217899D02*
X87975359Y62773899D01*
X87975359Y62773899D02*
X87174360Y61972900D01*
X94043701Y75504788D02*
X94609386Y75504788D01*
X94609386Y75504788D02*
X94726599Y75622001D01*
X94726599Y75622001D02*
X97729042Y75622001D01*
X98198360Y85010627D02*
X98214603Y84994384D01*
X93753552Y71763275D02*
X93753552Y72414354D01*
X89320360Y67330083D02*
X93753552Y71763275D01*
X89320360Y65562900D02*
X89320360Y67330083D01*
X88800360Y63572900D02*
X89570301Y63572900D01*
X89570301Y63572900D02*
X90324360Y63572900D01*
X89820360Y65562900D02*
X89820360Y64662900D01*
X89820360Y64662900D02*
X89570301Y64412841D01*
X89570301Y64412841D02*
X89570301Y63572900D01*
X91848360Y63522900D02*
X91848360Y64276900D01*
X91848360Y64276900D02*
X91320360Y64804900D01*
X91320360Y64804900D02*
X91320360Y65562900D01*
X93626360Y63522900D02*
X93626360Y63576900D01*
X93626360Y63576900D02*
X92820360Y64382900D01*
X92820360Y64382900D02*
X92820360Y65562900D01*
X93426360Y63522900D02*
X93626360Y63522900D01*
X94896360Y63572900D02*
X94813947Y63572900D01*
X94813947Y63572900D02*
X94197361Y64189486D01*
X93320360Y65562900D02*
X93320360Y64662900D01*
X93320360Y64662900D02*
X93610359Y64372901D01*
X93610359Y64372901D02*
X94132361Y64372901D01*
X94132361Y64372901D02*
X94197361Y64307901D01*
X94197361Y64307901D02*
X94197361Y64189486D01*
X97881359Y68809166D02*
X98565272Y68125253D01*
X97881359Y70101901D02*
X97881359Y68809166D01*
X97320360Y70662900D02*
X97881359Y70101901D01*
X96420360Y70662900D02*
X97320360Y70662900D01*
X98565272Y68125253D02*
X98965271Y67725254D01*
X90002360Y94951900D02*
X88673360Y93622900D01*
X88673360Y93622900D02*
X88673360Y92617900D01*
D28*
X96860360Y93420900D02*
X97597360Y94157900D01*
X96860360Y93198666D02*
X96860360Y93420900D01*
X95844360Y92182666D02*
X96860360Y93198666D01*
X97597360Y94157900D02*
X97622360Y94157900D01*
X92497656Y90420018D02*
X93479538Y91401900D01*
X91840892Y90420018D02*
X92497656Y90420018D01*
X91213360Y91047550D02*
X91840892Y90420018D01*
X91213360Y92290900D02*
X91213360Y91047550D01*
X93479538Y91401900D02*
X95502742Y91401900D01*
X95502742Y91401900D02*
X95844360Y91743518D01*
X95844360Y91743518D02*
X95844360Y92182666D01*
X92483360Y92290900D02*
X92483360Y93065600D01*
X92483360Y93065600D02*
X92676059Y93258299D01*
X92676059Y93258299D02*
X94410759Y93258299D01*
X94410759Y93258299D02*
X95082360Y93929900D01*
X95082360Y93929900D02*
X95082360Y94954900D01*
D26*
X97622360Y95757900D02*
X95888360Y95757900D01*
X95888360Y95757900D02*
X95082360Y94951900D01*
X92483360Y86267900D02*
X92483360Y85663759D01*
X92483360Y85663759D02*
X93360360Y84786759D01*
X93360360Y84786759D02*
X93360360Y84362900D01*
X93360360Y84362900D02*
X93245360Y84477900D01*
X91688340Y58338060D02*
X91688340Y60019132D01*
X91688340Y60019132D02*
X93626360Y61957152D01*
X93626360Y61957152D02*
X93626360Y62022900D01*
D28*
X91848360Y61972900D02*
X91848360Y62651100D01*
X91848360Y62651100D02*
X91946761Y62749501D01*
X91946761Y62749501D02*
X94094759Y62749501D01*
X94094759Y62749501D02*
X94871360Y61972900D01*
X94871360Y61972900D02*
X94896360Y61972900D01*
D26*
X93430595Y61121900D02*
X94770360Y61121900D01*
X94896360Y61247900D02*
X94770360Y61121900D01*
X94896360Y61972900D02*
X94896360Y61247900D01*
X92488440Y58338060D02*
X92488440Y60179745D01*
X92488440Y60179745D02*
X93430595Y61121900D01*
X87403360Y92617900D02*
X87403360Y92935400D01*
X86920359Y93418401D02*
X86920359Y95157901D01*
X87403360Y92935400D02*
X86920359Y93418401D01*
X86920359Y95157901D02*
X88498358Y96735900D01*
X88498358Y96735900D02*
X93053360Y96735900D01*
X93812360Y95976900D02*
X93812360Y94951900D01*
X93053360Y96735900D02*
X93812360Y95976900D01*
D28*
X93636877Y90016807D02*
X93920361Y90300291D01*
X91558530Y90016807D02*
X93636877Y90016807D01*
X90083860Y91655900D02*
X90083860Y91491477D01*
X90083860Y91491477D02*
X91558530Y90016807D01*
X93920361Y90300291D02*
X94320360Y90700290D01*
D26*
X89943360Y92617900D02*
X89943360Y91796400D01*
X89943360Y91796400D02*
X90083860Y91655900D01*
D28*
X93753360Y92617900D02*
X93753360Y92305882D01*
X92569097Y91121619D02*
X92177661Y91121619D01*
X93753360Y92305882D02*
X92569097Y91121619D01*
D26*
X89943360Y86267900D02*
X89943360Y84994898D01*
X89943360Y84994898D02*
X91010359Y83927899D01*
X91010359Y83927899D02*
X91010359Y83602899D01*
X91010359Y83602899D02*
X91593358Y83019900D01*
X91593358Y83019900D02*
X95707944Y83019900D01*
X95707944Y83019900D02*
X96919947Y81807897D01*
X98534909Y81394785D02*
X98534909Y79971900D01*
X96919947Y81807897D02*
X98121797Y81807897D01*
X98121797Y81807897D02*
X98534909Y81394785D01*
X96420360Y67162900D02*
X97819362Y67162900D01*
X97819362Y67162900D02*
X98029383Y67372921D01*
X91820360Y66559313D02*
X91820360Y65562900D01*
X92423947Y67162900D02*
X91820360Y66559313D01*
X96420360Y67162900D02*
X92423947Y67162900D01*
X93753360Y86267900D02*
X93753360Y85950400D01*
X93753360Y85950400D02*
X94306044Y85397716D01*
X94306044Y85397716D02*
X94306044Y84860098D01*
X94306044Y84860098D02*
X94598237Y84567905D01*
X94598237Y84567905D02*
X96698994Y84567905D01*
X96698994Y84567905D02*
X97001566Y84870477D01*
X97001566Y84870477D02*
X96996712Y84865623D01*
X92320360Y65562900D02*
X92320360Y66422902D01*
X92320360Y66422902D02*
X92553274Y66655816D01*
X96468032Y66647901D02*
X98986604Y66647901D01*
X98986604Y66647901D02*
X99690278Y67351575D01*
X99690278Y67351575D02*
X99690278Y75242243D01*
X96403043Y66712890D02*
X96468032Y66647901D01*
X93745359Y66537901D02*
X93920348Y66712890D01*
X99690278Y75242243D02*
X99208277Y75724244D01*
X93920348Y66712890D02*
X96403043Y66712890D01*
X92553274Y66655816D02*
X93627444Y66655816D01*
X93627444Y66655816D02*
X93745359Y66537901D01*
X93745359Y66537901D02*
X93820360Y66462900D01*
X93820360Y66462900D02*
X93820360Y65562900D01*
M02*
