G04 #@! TF.FileFunction,Legend,Top*
%FSLAX46Y46*%
G04 Gerber Fmt 4.6, Leading zero omitted, Abs format (unit mm)*
G04 Created by KiCad (PCBNEW 4.0.0-rc2-stable) date 17/02/2016 11:29:09*
%MOMM*%
G01*
G04 APERTURE LIST*
%ADD10C,0.100000*%
%ADD11C,0.150000*%
%ADD12C,0.105000*%
G04 APERTURE END LIST*
D10*
D11*
X84990360Y89877900D02*
X85752360Y89877900D01*
X85752360Y89877900D02*
X85752360Y88353900D01*
X85752360Y88353900D02*
X84990360Y88353900D01*
X96166360Y91401900D02*
X96166360Y86829900D01*
X96166360Y86829900D02*
X84990360Y86829900D01*
X84990360Y86829900D02*
X84990360Y91401900D01*
X84990360Y91401900D02*
X96166360Y91401900D01*
D10*
X96872360Y96457900D02*
X96872360Y93457900D01*
X96872360Y93457900D02*
X98372360Y93457900D01*
X98372360Y93457900D02*
X98372360Y96457900D01*
X98372360Y96457900D02*
X96872360Y96457900D01*
D11*
X93403360Y81279900D02*
X94103360Y81279900D01*
X94103360Y80079900D02*
X93403360Y80079900D01*
X92956360Y78235900D02*
X92956360Y77535900D01*
X91756360Y77535900D02*
X91756360Y78235900D01*
X93924360Y79762900D02*
X93674360Y79512900D01*
X99424360Y79762900D02*
X93924360Y79762900D01*
X99674360Y79512900D02*
X99424360Y79762900D01*
X99424360Y76262900D02*
X99674360Y76512900D01*
X96674360Y76262900D02*
X99424360Y76262900D01*
X93924360Y76262900D02*
X93674360Y76512900D01*
X96674360Y76262900D02*
X93924360Y76262900D01*
X95695360Y73537900D02*
X95170360Y73537900D01*
X95695360Y66287900D02*
X95170360Y66287900D01*
X88445360Y66287900D02*
X88970360Y66287900D01*
X88445360Y73537900D02*
X88970360Y73537900D01*
X95695360Y73537900D02*
X95695360Y73012900D01*
X88445360Y73537900D02*
X88445360Y73012900D01*
X88445360Y66287900D02*
X88445360Y66812900D01*
X95695360Y66287900D02*
X95695360Y66812900D01*
X95170360Y73537900D02*
X95170360Y74912900D01*
X98102360Y64515900D02*
X98802360Y64515900D01*
X98802360Y63315900D02*
X98102360Y63315900D01*
X87995360Y77673900D02*
X86095360Y77673900D01*
X87995360Y76573900D02*
X86095360Y76573900D01*
X87095360Y77123900D02*
X86645360Y77123900D01*
X87145360Y76873900D02*
X87145360Y77373900D01*
X87145360Y77123900D02*
X86895360Y76873900D01*
X86895360Y76873900D02*
X86895360Y77373900D01*
X86895360Y77373900D02*
X87145360Y77123900D01*
X88637800Y51289560D02*
X96339080Y51289560D01*
X88637800Y50288800D02*
X96339080Y50288800D01*
X96339080Y50288800D02*
X96339080Y59488680D01*
X96339080Y59488680D02*
X88637800Y59488680D01*
X88637800Y59488680D02*
X88637800Y50288800D01*
X97024360Y80079900D02*
X96324360Y80079900D01*
X96324360Y81279900D02*
X97024360Y81279900D01*
X97913360Y65347900D02*
X97213360Y65347900D01*
X97213360Y66547900D02*
X97913360Y66547900D01*
X99306360Y72647900D02*
X99306360Y71947900D01*
X98106360Y71947900D02*
X98106360Y72647900D01*
X97405360Y73602900D02*
X96705360Y73602900D01*
X96705360Y74802900D02*
X97405360Y74802900D01*
X98614360Y57977900D02*
X98614360Y58677900D01*
X99814360Y58677900D02*
X99814360Y57977900D01*
X87245360Y64712900D02*
X86545360Y64712900D01*
X86545360Y65912900D02*
X87245360Y65912900D01*
X86545360Y84962900D02*
X87245360Y84962900D01*
X87245360Y83762900D02*
X86545360Y83762900D01*
X86545360Y95122900D02*
X87245360Y95122900D01*
X87245360Y93922900D02*
X86545360Y93922900D01*
X87995360Y80721900D02*
X86095360Y80721900D01*
X87995360Y79621900D02*
X86095360Y79621900D01*
X87095360Y80171900D02*
X86645360Y80171900D01*
X87145360Y79921900D02*
X87145360Y80421900D01*
X87145360Y80171900D02*
X86895360Y79921900D01*
X86895360Y79921900D02*
X86895360Y80421900D01*
X86895360Y80421900D02*
X87145360Y80171900D01*
X87995360Y82245900D02*
X86095360Y82245900D01*
X87995360Y81145900D02*
X86095360Y81145900D01*
X87095360Y81695900D02*
X86645360Y81695900D01*
X87145360Y81445900D02*
X87145360Y81945900D01*
X87145360Y81695900D02*
X86895360Y81445900D01*
X86895360Y81445900D02*
X86895360Y81945900D01*
X86895360Y81945900D02*
X87145360Y81695900D01*
X87995360Y79197900D02*
X86095360Y79197900D01*
X87995360Y78097900D02*
X86095360Y78097900D01*
X87095360Y78647900D02*
X86645360Y78647900D01*
X87145360Y78397900D02*
X87145360Y78897900D01*
X87145360Y78647900D02*
X86895360Y78397900D01*
X86895360Y78397900D02*
X86895360Y78897900D01*
X86895360Y78897900D02*
X87145360Y78647900D01*
X98240360Y96749746D02*
X98240360Y98649746D01*
X97140360Y96749746D02*
X97140360Y98649746D01*
X97690360Y97649746D02*
X97690360Y98099746D01*
X97440360Y97599746D02*
X97940360Y97599746D01*
X97690360Y97599746D02*
X97440360Y97849746D01*
X97440360Y97849746D02*
X97940360Y97849746D01*
X97940360Y97849746D02*
X97690360Y97599746D01*
X97026200Y60852660D02*
X97074460Y60852660D01*
X99825180Y61553700D02*
X99825180Y60852660D01*
X99825180Y60852660D02*
X99576260Y60852660D01*
X97026200Y60852660D02*
X96825540Y60852660D01*
X96825540Y60852660D02*
X96825540Y61553700D01*
X98898360Y88173900D02*
X98898360Y85373900D01*
X98898360Y85373900D02*
X97498360Y85373900D01*
X97498360Y85373900D02*
X97498360Y88173900D01*
X97498360Y88173900D02*
X98898360Y88173900D01*
X99948360Y83773900D02*
X99298360Y83773900D01*
X96448360Y83773900D02*
X97098360Y83773900D01*
X97098360Y89773900D02*
X96448360Y89773900D01*
X99948360Y89773900D02*
X99298360Y89773900D01*
X99948360Y83773900D02*
X99948360Y89773900D01*
X96448360Y89773900D02*
X96448360Y83773900D01*
D10*
X86399360Y64272900D02*
X86399360Y61272900D01*
X86399360Y61272900D02*
X87899360Y61272900D01*
X87899360Y61272900D02*
X87899360Y64272900D01*
X87899360Y64272900D02*
X86399360Y64272900D01*
X92598360Y61272900D02*
X92598360Y64272900D01*
X92598360Y64272900D02*
X91098360Y64272900D01*
X91098360Y64272900D02*
X91098360Y61272900D01*
X91098360Y61272900D02*
X92598360Y61272900D01*
X94122360Y61272900D02*
X94122360Y64272900D01*
X94122360Y64272900D02*
X92622360Y64272900D01*
X92622360Y64272900D02*
X92622360Y61272900D01*
X92622360Y61272900D02*
X94122360Y61272900D01*
X94146360Y64272900D02*
X94146360Y61272900D01*
X94146360Y61272900D02*
X95646360Y61272900D01*
X95646360Y61272900D02*
X95646360Y64272900D01*
X95646360Y64272900D02*
X94146360Y64272900D01*
X89574360Y64272900D02*
X89574360Y61272900D01*
X89574360Y61272900D02*
X91074360Y61272900D01*
X91074360Y61272900D02*
X91074360Y64272900D01*
X91074360Y64272900D02*
X89574360Y64272900D01*
X89550360Y61272900D02*
X89550360Y64272900D01*
X89550360Y64272900D02*
X88050360Y64272900D01*
X88050360Y64272900D02*
X88050360Y61272900D01*
X88050360Y61272900D02*
X89550360Y61272900D01*
X99896360Y93403900D02*
X99896360Y96403900D01*
X99896360Y96403900D02*
X98396360Y96403900D01*
X98396360Y96403900D02*
X98396360Y93403900D01*
X98396360Y93403900D02*
X99896360Y93403900D01*
X91062360Y80921900D02*
X88062360Y80921900D01*
X88062360Y80921900D02*
X88062360Y79421900D01*
X88062360Y79421900D02*
X91062360Y79421900D01*
X91062360Y79421900D02*
X91062360Y80921900D01*
X91062360Y82445900D02*
X88062360Y82445900D01*
X88062360Y82445900D02*
X88062360Y80945900D01*
X88062360Y80945900D02*
X91062360Y80945900D01*
X91062360Y80945900D02*
X91062360Y82445900D01*
X91065360Y79397900D02*
X88065360Y79397900D01*
X88065360Y79397900D02*
X88065360Y77897900D01*
X88065360Y77897900D02*
X91065360Y77897900D01*
X91065360Y77897900D02*
X91065360Y79397900D01*
X91065360Y77873900D02*
X88065360Y77873900D01*
X88065360Y77873900D02*
X88065360Y76373900D01*
X88065360Y76373900D02*
X91065360Y76373900D01*
X91065360Y76373900D02*
X91065360Y77873900D01*
X94110360Y85112900D02*
X91110360Y85112900D01*
X91110360Y85112900D02*
X91110360Y83612900D01*
X91110360Y83612900D02*
X94110360Y83612900D01*
X94110360Y83612900D02*
X94110360Y85112900D01*
X99456360Y67749900D02*
X99456360Y70749900D01*
X99456360Y70749900D02*
X97956360Y70749900D01*
X97956360Y70749900D02*
X97956360Y67749900D01*
X97956360Y67749900D02*
X99456360Y67749900D01*
D11*
X95642360Y96489900D02*
X95642360Y97389900D01*
X89442360Y96489900D02*
X89442360Y97389900D01*
X89442360Y97389900D02*
X91442360Y97389900D01*
X95642360Y97389900D02*
X93642360Y97389900D01*
X95642360Y96489900D02*
X89442360Y96489900D01*
D12*
X86863670Y88489126D02*
X86091510Y88489126D01*
X86790131Y89298055D02*
X86826901Y89261285D01*
X86863670Y89150977D01*
X86863670Y89077438D01*
X86826901Y88967129D01*
X86753362Y88893590D01*
X86679823Y88856821D01*
X86532745Y88820051D01*
X86422436Y88820051D01*
X86275358Y88856821D01*
X86201819Y88893590D01*
X86128280Y88967129D01*
X86091510Y89077438D01*
X86091510Y89150977D01*
X86128280Y89261285D01*
X86165050Y89298055D01*
X86091510Y89555442D02*
X86091510Y90033445D01*
X86385667Y89776059D01*
X86385667Y89886367D01*
X86422436Y89959906D01*
X86459206Y89996676D01*
X86532745Y90033445D01*
X86716592Y90033445D01*
X86790131Y89996676D01*
X86826901Y89959906D01*
X86863670Y89886367D01*
X86863670Y89665750D01*
X86826901Y89592211D01*
X86790131Y89555442D01*
X95934590Y96852982D02*
X95566895Y96595595D01*
X95934590Y96411748D02*
X95162430Y96411748D01*
X95162430Y96705904D01*
X95199200Y96779443D01*
X95235970Y96816212D01*
X95309509Y96852982D01*
X95419817Y96852982D01*
X95493356Y96816212D01*
X95530126Y96779443D01*
X95566895Y96705904D01*
X95566895Y96411748D01*
X95934590Y97588372D02*
X95934590Y97147138D01*
X95934590Y97367755D02*
X95162430Y97367755D01*
X95272739Y97294216D01*
X95346278Y97220677D01*
X95383048Y97147138D01*
X95162430Y97845759D02*
X95162430Y98323762D01*
X95456587Y98066376D01*
X95456587Y98176684D01*
X95493356Y98250223D01*
X95530126Y98286993D01*
X95603665Y98323762D01*
X95787512Y98323762D01*
X95861051Y98286993D01*
X95897821Y98250223D01*
X95934590Y98176684D01*
X95934590Y97956067D01*
X95897821Y97882528D01*
X95861051Y97845759D01*
X93624667Y81928129D02*
X93587897Y81891359D01*
X93477589Y81854590D01*
X93404050Y81854590D01*
X93293741Y81891359D01*
X93220202Y81964898D01*
X93183433Y82038437D01*
X93146663Y82185515D01*
X93146663Y82295824D01*
X93183433Y82442902D01*
X93220202Y82516441D01*
X93293741Y82589980D01*
X93404050Y82626750D01*
X93477589Y82626750D01*
X93587897Y82589980D01*
X93624667Y82553210D01*
X94286518Y82369363D02*
X94286518Y81854590D01*
X94102671Y82663519D02*
X93918823Y82111976D01*
X94396827Y82111976D01*
X92227667Y75578129D02*
X92190897Y75541359D01*
X92080589Y75504590D01*
X92007050Y75504590D01*
X91896741Y75541359D01*
X91823202Y75614898D01*
X91786433Y75688437D01*
X91749663Y75835515D01*
X91749663Y75945824D01*
X91786433Y76092902D01*
X91823202Y76166441D01*
X91896741Y76239980D01*
X92007050Y76276750D01*
X92080589Y76276750D01*
X92190897Y76239980D01*
X92227667Y76203210D01*
X92485054Y76276750D02*
X92963057Y76276750D01*
X92705671Y75982593D01*
X92815979Y75982593D01*
X92889518Y75945824D01*
X92926288Y75909054D01*
X92963057Y75835515D01*
X92963057Y75651668D01*
X92926288Y75578129D01*
X92889518Y75541359D01*
X92815979Y75504590D01*
X92595362Y75504590D01*
X92521823Y75541359D01*
X92485054Y75578129D01*
X96056666Y78158285D02*
X96056666Y77790590D01*
X95799279Y78562750D02*
X96056666Y78158285D01*
X96314052Y78562750D01*
X96975903Y77790590D02*
X96534669Y77790590D01*
X96755286Y77790590D02*
X96755286Y78562750D01*
X96681747Y78452441D01*
X96608208Y78378902D01*
X96534669Y78342132D01*
X95513670Y68905126D02*
X94741510Y68905126D01*
X95440131Y69714055D02*
X95476901Y69677285D01*
X95513670Y69566977D01*
X95513670Y69493438D01*
X95476901Y69383129D01*
X95403362Y69309590D01*
X95329823Y69272821D01*
X95182745Y69236051D01*
X95072436Y69236051D01*
X94925358Y69272821D01*
X94851819Y69309590D01*
X94778280Y69383129D01*
X94741510Y69493438D01*
X94741510Y69566977D01*
X94778280Y69677285D01*
X94815050Y69714055D01*
X95513670Y70449445D02*
X95513670Y70008211D01*
X95513670Y70228828D02*
X94741510Y70228828D01*
X94851819Y70155289D01*
X94925358Y70081750D01*
X94962128Y70008211D01*
X96882131Y63841207D02*
X96918901Y63804437D01*
X96955670Y63694129D01*
X96955670Y63620590D01*
X96918901Y63510281D01*
X96845362Y63436742D01*
X96771823Y63399973D01*
X96624745Y63363203D01*
X96514436Y63363203D01*
X96367358Y63399973D01*
X96293819Y63436742D01*
X96220280Y63510281D01*
X96183510Y63620590D01*
X96183510Y63694129D01*
X96220280Y63804437D01*
X96257050Y63841207D01*
X96955670Y64208902D02*
X96955670Y64355980D01*
X96918901Y64429519D01*
X96882131Y64466289D01*
X96771823Y64539828D01*
X96624745Y64576597D01*
X96330589Y64576597D01*
X96257050Y64539828D01*
X96220280Y64503058D01*
X96183510Y64429519D01*
X96183510Y64282441D01*
X96220280Y64208902D01*
X96257050Y64172133D01*
X96330589Y64135363D01*
X96514436Y64135363D01*
X96587975Y64172133D01*
X96624745Y64208902D01*
X96661514Y64282441D01*
X96661514Y64429519D01*
X96624745Y64503058D01*
X96587975Y64539828D01*
X96514436Y64576597D01*
X88138750Y54890813D02*
X87366590Y54890813D01*
X87366590Y55184969D01*
X87403360Y55258508D01*
X87440130Y55295277D01*
X87513669Y55332047D01*
X87623977Y55332047D01*
X87697516Y55295277D01*
X87734286Y55258508D01*
X87771055Y55184969D01*
X87771055Y54890813D01*
X88138750Y56067437D02*
X88138750Y55626203D01*
X88138750Y55846820D02*
X87366590Y55846820D01*
X87476899Y55773281D01*
X87550438Y55699742D01*
X87587208Y55626203D01*
X96164667Y81928129D02*
X96127897Y81891359D01*
X96017589Y81854590D01*
X95944050Y81854590D01*
X95833741Y81891359D01*
X95760202Y81964898D01*
X95723433Y82038437D01*
X95686663Y82185515D01*
X95686663Y82295824D01*
X95723433Y82442902D01*
X95760202Y82516441D01*
X95833741Y82589980D01*
X95944050Y82626750D01*
X96017589Y82626750D01*
X96127897Y82589980D01*
X96164667Y82553210D01*
X96900057Y81854590D02*
X96458823Y81854590D01*
X96679440Y81854590D02*
X96679440Y82626750D01*
X96605901Y82516441D01*
X96532362Y82442902D01*
X96458823Y82406132D01*
X99930131Y65873207D02*
X99966901Y65836437D01*
X100003670Y65726129D01*
X100003670Y65652590D01*
X99966901Y65542281D01*
X99893362Y65468742D01*
X99819823Y65431973D01*
X99672745Y65395203D01*
X99562436Y65395203D01*
X99415358Y65431973D01*
X99341819Y65468742D01*
X99268280Y65542281D01*
X99231510Y65652590D01*
X99231510Y65726129D01*
X99268280Y65836437D01*
X99305050Y65873207D01*
X99305050Y66167363D02*
X99268280Y66204133D01*
X99231510Y66277672D01*
X99231510Y66461519D01*
X99268280Y66535058D01*
X99305050Y66571828D01*
X99378589Y66608597D01*
X99452128Y66608597D01*
X99562436Y66571828D01*
X100003670Y66130594D01*
X100003670Y66608597D01*
X97898131Y72223207D02*
X97934901Y72186437D01*
X97971670Y72076129D01*
X97971670Y72002590D01*
X97934901Y71892281D01*
X97861362Y71818742D01*
X97787823Y71781973D01*
X97640745Y71745203D01*
X97530436Y71745203D01*
X97383358Y71781973D01*
X97309819Y71818742D01*
X97236280Y71892281D01*
X97199510Y72002590D01*
X97199510Y72076129D01*
X97236280Y72186437D01*
X97273050Y72223207D01*
X97199510Y72921828D02*
X97199510Y72554133D01*
X97567206Y72517363D01*
X97530436Y72554133D01*
X97493667Y72627672D01*
X97493667Y72811519D01*
X97530436Y72885058D01*
X97567206Y72921828D01*
X97640745Y72958597D01*
X97824592Y72958597D01*
X97898131Y72921828D01*
X97934901Y72885058D01*
X97971670Y72811519D01*
X97971670Y72627672D01*
X97934901Y72554133D01*
X97898131Y72517363D01*
X99422131Y74255207D02*
X99458901Y74218437D01*
X99495670Y74108129D01*
X99495670Y74034590D01*
X99458901Y73924281D01*
X99385362Y73850742D01*
X99311823Y73813973D01*
X99164745Y73777203D01*
X99054436Y73777203D01*
X98907358Y73813973D01*
X98833819Y73850742D01*
X98760280Y73924281D01*
X98723510Y74034590D01*
X98723510Y74108129D01*
X98760280Y74218437D01*
X98797050Y74255207D01*
X98723510Y74917058D02*
X98723510Y74769980D01*
X98760280Y74696441D01*
X98797050Y74659672D01*
X98907358Y74586133D01*
X99054436Y74549363D01*
X99348592Y74549363D01*
X99422131Y74586133D01*
X99458901Y74622902D01*
X99495670Y74696441D01*
X99495670Y74843519D01*
X99458901Y74917058D01*
X99422131Y74953828D01*
X99348592Y74990597D01*
X99164745Y74990597D01*
X99091206Y74953828D01*
X99054436Y74917058D01*
X99017667Y74843519D01*
X99017667Y74696441D01*
X99054436Y74622902D01*
X99091206Y74586133D01*
X99164745Y74549363D01*
X99490131Y55786207D02*
X99526901Y55749437D01*
X99563670Y55639129D01*
X99563670Y55565590D01*
X99526901Y55455281D01*
X99453362Y55381742D01*
X99379823Y55344973D01*
X99232745Y55308203D01*
X99122436Y55308203D01*
X98975358Y55344973D01*
X98901819Y55381742D01*
X98828280Y55455281D01*
X98791510Y55565590D01*
X98791510Y55639129D01*
X98828280Y55749437D01*
X98865050Y55786207D01*
X98791510Y56043594D02*
X98791510Y56558367D01*
X99563670Y56227441D01*
X86282131Y66635207D02*
X86318901Y66598437D01*
X86355670Y66488129D01*
X86355670Y66414590D01*
X86318901Y66304281D01*
X86245362Y66230742D01*
X86171823Y66193973D01*
X86024745Y66157203D01*
X85914436Y66157203D01*
X85767358Y66193973D01*
X85693819Y66230742D01*
X85620280Y66304281D01*
X85583510Y66414590D01*
X85583510Y66488129D01*
X85620280Y66598437D01*
X85657050Y66635207D01*
X85914436Y67076441D02*
X85877667Y67002902D01*
X85840897Y66966133D01*
X85767358Y66929363D01*
X85730589Y66929363D01*
X85657050Y66966133D01*
X85620280Y67002902D01*
X85583510Y67076441D01*
X85583510Y67223519D01*
X85620280Y67297058D01*
X85657050Y67333828D01*
X85730589Y67370597D01*
X85767358Y67370597D01*
X85840897Y67333828D01*
X85877667Y67297058D01*
X85914436Y67223519D01*
X85914436Y67076441D01*
X85951206Y67002902D01*
X85987975Y66966133D01*
X86061514Y66929363D01*
X86208592Y66929363D01*
X86282131Y66966133D01*
X86318901Y67002902D01*
X86355670Y67076441D01*
X86355670Y67223519D01*
X86318901Y67297058D01*
X86282131Y67333828D01*
X86208592Y67370597D01*
X86061514Y67370597D01*
X85987975Y67333828D01*
X85951206Y67297058D01*
X85914436Y67223519D01*
X89330131Y83739512D02*
X89366901Y83702742D01*
X89403670Y83592434D01*
X89403670Y83518895D01*
X89366901Y83408586D01*
X89293362Y83335047D01*
X89219823Y83298278D01*
X89072745Y83261508D01*
X88962436Y83261508D01*
X88815358Y83298278D01*
X88741819Y83335047D01*
X88668280Y83408586D01*
X88631510Y83518895D01*
X88631510Y83592434D01*
X88668280Y83702742D01*
X88705050Y83739512D01*
X89403670Y84474902D02*
X89403670Y84033668D01*
X89403670Y84254285D02*
X88631510Y84254285D01*
X88741819Y84180746D01*
X88815358Y84107207D01*
X88852128Y84033668D01*
X88631510Y84952906D02*
X88631510Y85026445D01*
X88668280Y85099984D01*
X88705050Y85136753D01*
X88778589Y85173523D01*
X88925667Y85210292D01*
X89109514Y85210292D01*
X89256592Y85173523D01*
X89330131Y85136753D01*
X89366901Y85099984D01*
X89403670Y85026445D01*
X89403670Y84952906D01*
X89366901Y84879367D01*
X89330131Y84842597D01*
X89256592Y84805828D01*
X89109514Y84769058D01*
X88925667Y84769058D01*
X88778589Y84805828D01*
X88705050Y84842597D01*
X88668280Y84879367D01*
X88631510Y84952906D01*
X86398972Y95618729D02*
X86362202Y95581959D01*
X86251894Y95545190D01*
X86178355Y95545190D01*
X86068046Y95581959D01*
X85994507Y95655498D01*
X85957738Y95729037D01*
X85920968Y95876115D01*
X85920968Y95986424D01*
X85957738Y96133502D01*
X85994507Y96207041D01*
X86068046Y96280580D01*
X86178355Y96317350D01*
X86251894Y96317350D01*
X86362202Y96280580D01*
X86398972Y96243810D01*
X87134362Y95545190D02*
X86693128Y95545190D01*
X86913745Y95545190D02*
X86913745Y96317350D01*
X86840206Y96207041D01*
X86766667Y96133502D01*
X86693128Y96096732D01*
X87869752Y95545190D02*
X87428518Y95545190D01*
X87649135Y95545190D02*
X87649135Y96317350D01*
X87575596Y96207041D01*
X87502057Y96133502D01*
X87428518Y96096732D01*
X97571586Y61280590D02*
X97571586Y62052750D01*
X98380515Y61354129D02*
X98343745Y61317359D01*
X98233437Y61280590D01*
X98159898Y61280590D01*
X98049589Y61317359D01*
X97976050Y61390898D01*
X97939281Y61464437D01*
X97902511Y61611515D01*
X97902511Y61721824D01*
X97939281Y61868902D01*
X97976050Y61942441D01*
X98049589Y62015980D01*
X98159898Y62052750D01*
X98233437Y62052750D01*
X98343745Y62015980D01*
X98380515Y61979210D01*
X98674671Y61979210D02*
X98711441Y62015980D01*
X98784980Y62052750D01*
X98968827Y62052750D01*
X99042366Y62015980D01*
X99079136Y61979210D01*
X99115905Y61905671D01*
X99115905Y61832132D01*
X99079136Y61721824D01*
X98637902Y61280590D01*
X99115905Y61280590D01*
X99712901Y85544354D02*
X99749670Y85654663D01*
X99749670Y85838510D01*
X99712901Y85912049D01*
X99676131Y85948819D01*
X99602592Y85985588D01*
X99529053Y85985588D01*
X99455514Y85948819D01*
X99418745Y85912049D01*
X99381975Y85838510D01*
X99345206Y85691432D01*
X99308436Y85617893D01*
X99271667Y85581124D01*
X99198128Y85544354D01*
X99124589Y85544354D01*
X99051050Y85581124D01*
X99014280Y85617893D01*
X98977510Y85691432D01*
X98977510Y85875280D01*
X99014280Y85985588D01*
X98977510Y86242975D02*
X99749670Y86426822D01*
X99198128Y86573900D01*
X99749670Y86720978D01*
X98977510Y86904826D01*
X99051050Y87162213D02*
X99014280Y87198983D01*
X98977510Y87272522D01*
X98977510Y87456369D01*
X99014280Y87529908D01*
X99051050Y87566678D01*
X99124589Y87603447D01*
X99198128Y87603447D01*
X99308436Y87566678D01*
X99749670Y87125444D01*
X99749670Y87603447D01*
X87620590Y60276982D02*
X87252895Y60019595D01*
X87620590Y59835748D02*
X86848430Y59835748D01*
X86848430Y60129904D01*
X86885200Y60203443D01*
X86921970Y60240212D01*
X86995509Y60276982D01*
X87105817Y60276982D01*
X87179356Y60240212D01*
X87216126Y60203443D01*
X87252895Y60129904D01*
X87252895Y59835748D01*
X86848430Y60938833D02*
X86848430Y60791755D01*
X86885200Y60718216D01*
X86921970Y60681447D01*
X87032278Y60607908D01*
X87179356Y60571138D01*
X87473512Y60571138D01*
X87547051Y60607908D01*
X87583821Y60644677D01*
X87620590Y60718216D01*
X87620590Y60865294D01*
X87583821Y60938833D01*
X87547051Y60975603D01*
X87473512Y61012372D01*
X87289665Y61012372D01*
X87216126Y60975603D01*
X87179356Y60938833D01*
X87142587Y60865294D01*
X87142587Y60718216D01*
X87179356Y60644677D01*
X87216126Y60607908D01*
X87289665Y60571138D01*
X92251590Y60276982D02*
X91883895Y60019595D01*
X92251590Y59835748D02*
X91479430Y59835748D01*
X91479430Y60129904D01*
X91516200Y60203443D01*
X91552970Y60240212D01*
X91626509Y60276982D01*
X91736817Y60276982D01*
X91810356Y60240212D01*
X91847126Y60203443D01*
X91883895Y60129904D01*
X91883895Y59835748D01*
X91479430Y60534369D02*
X91479430Y61049142D01*
X92251590Y60718216D01*
X93775590Y60276982D02*
X93407895Y60019595D01*
X93775590Y59835748D02*
X93003430Y59835748D01*
X93003430Y60129904D01*
X93040200Y60203443D01*
X93076970Y60240212D01*
X93150509Y60276982D01*
X93260817Y60276982D01*
X93334356Y60240212D01*
X93371126Y60203443D01*
X93407895Y60129904D01*
X93407895Y59835748D01*
X93334356Y60718216D02*
X93297587Y60644677D01*
X93260817Y60607908D01*
X93187278Y60571138D01*
X93150509Y60571138D01*
X93076970Y60607908D01*
X93040200Y60644677D01*
X93003430Y60718216D01*
X93003430Y60865294D01*
X93040200Y60938833D01*
X93076970Y60975603D01*
X93150509Y61012372D01*
X93187278Y61012372D01*
X93260817Y60975603D01*
X93297587Y60938833D01*
X93334356Y60865294D01*
X93334356Y60718216D01*
X93371126Y60644677D01*
X93407895Y60607908D01*
X93481434Y60571138D01*
X93628512Y60571138D01*
X93702051Y60607908D01*
X93738821Y60644677D01*
X93775590Y60718216D01*
X93775590Y60865294D01*
X93738821Y60938833D01*
X93702051Y60975603D01*
X93628512Y61012372D01*
X93481434Y61012372D01*
X93407895Y60975603D01*
X93371126Y60938833D01*
X93334356Y60865294D01*
X95113590Y60337982D02*
X94745895Y60080595D01*
X95113590Y59896748D02*
X94341430Y59896748D01*
X94341430Y60190904D01*
X94378200Y60264443D01*
X94414970Y60301212D01*
X94488509Y60337982D01*
X94598817Y60337982D01*
X94672356Y60301212D01*
X94709126Y60264443D01*
X94745895Y60190904D01*
X94745895Y59896748D01*
X95113590Y60705677D02*
X95113590Y60852755D01*
X95076821Y60926294D01*
X95040051Y60963064D01*
X94929743Y61036603D01*
X94782665Y61073372D01*
X94488509Y61073372D01*
X94414970Y61036603D01*
X94378200Y60999833D01*
X94341430Y60926294D01*
X94341430Y60779216D01*
X94378200Y60705677D01*
X94414970Y60668908D01*
X94488509Y60632138D01*
X94672356Y60632138D01*
X94745895Y60668908D01*
X94782665Y60705677D01*
X94819434Y60779216D01*
X94819434Y60926294D01*
X94782665Y60999833D01*
X94745895Y61036603D01*
X94672356Y61073372D01*
X90727590Y60276982D02*
X90359895Y60019595D01*
X90727590Y59835748D02*
X89955430Y59835748D01*
X89955430Y60129904D01*
X89992200Y60203443D01*
X90028970Y60240212D01*
X90102509Y60276982D01*
X90212817Y60276982D01*
X90286356Y60240212D01*
X90323126Y60203443D01*
X90359895Y60129904D01*
X90359895Y59835748D01*
X90727590Y61012372D02*
X90727590Y60571138D01*
X90727590Y60791755D02*
X89955430Y60791755D01*
X90065739Y60718216D01*
X90139278Y60644677D01*
X90176048Y60571138D01*
X89203590Y60276982D02*
X88835895Y60019595D01*
X89203590Y59835748D02*
X88431430Y59835748D01*
X88431430Y60129904D01*
X88468200Y60203443D01*
X88504970Y60240212D01*
X88578509Y60276982D01*
X88688817Y60276982D01*
X88762356Y60240212D01*
X88799126Y60203443D01*
X88835895Y60129904D01*
X88835895Y59835748D01*
X88431430Y60975603D02*
X88431430Y60607908D01*
X88799126Y60571138D01*
X88762356Y60607908D01*
X88725587Y60681447D01*
X88725587Y60865294D01*
X88762356Y60938833D01*
X88799126Y60975603D01*
X88872665Y61012372D01*
X89056512Y61012372D01*
X89130051Y60975603D01*
X89166821Y60938833D01*
X89203590Y60865294D01*
X89203590Y60681447D01*
X89166821Y60607908D01*
X89130051Y60571138D01*
X100887590Y94004982D02*
X100519895Y93747595D01*
X100887590Y93563748D02*
X100115430Y93563748D01*
X100115430Y93857904D01*
X100152200Y93931443D01*
X100188970Y93968212D01*
X100262509Y94004982D01*
X100372817Y94004982D01*
X100446356Y93968212D01*
X100483126Y93931443D01*
X100519895Y93857904D01*
X100519895Y93563748D01*
X100887590Y94740372D02*
X100887590Y94299138D01*
X100887590Y94519755D02*
X100115430Y94519755D01*
X100225739Y94446216D01*
X100299278Y94372677D01*
X100336048Y94299138D01*
X100372817Y95402223D02*
X100887590Y95402223D01*
X100078661Y95218376D02*
X100630204Y95034528D01*
X100630204Y95512532D01*
X92062590Y80066982D02*
X91694895Y79809595D01*
X92062590Y79625748D02*
X91290430Y79625748D01*
X91290430Y79919904D01*
X91327200Y79993443D01*
X91363970Y80030212D01*
X91437509Y80066982D01*
X91547817Y80066982D01*
X91621356Y80030212D01*
X91658126Y79993443D01*
X91694895Y79919904D01*
X91694895Y79625748D01*
X91363970Y80361138D02*
X91327200Y80397908D01*
X91290430Y80471447D01*
X91290430Y80655294D01*
X91327200Y80728833D01*
X91363970Y80765603D01*
X91437509Y80802372D01*
X91511048Y80802372D01*
X91621356Y80765603D01*
X92062590Y80324369D01*
X92062590Y80802372D01*
X92065590Y81612982D02*
X91697895Y81355595D01*
X92065590Y81171748D02*
X91293430Y81171748D01*
X91293430Y81465904D01*
X91330200Y81539443D01*
X91366970Y81576212D01*
X91440509Y81612982D01*
X91550817Y81612982D01*
X91624356Y81576212D01*
X91661126Y81539443D01*
X91697895Y81465904D01*
X91697895Y81171748D01*
X91293430Y81870369D02*
X91293430Y82348372D01*
X91587587Y82090986D01*
X91587587Y82201294D01*
X91624356Y82274833D01*
X91661126Y82311603D01*
X91734665Y82348372D01*
X91918512Y82348372D01*
X91992051Y82311603D01*
X92028821Y82274833D01*
X92065590Y82201294D01*
X92065590Y81980677D01*
X92028821Y81907138D01*
X91992051Y81870369D01*
X91203442Y76144670D02*
X90946055Y76512365D01*
X90762208Y76144670D02*
X90762208Y76916830D01*
X91056364Y76916830D01*
X91129903Y76880060D01*
X91166672Y76843290D01*
X91203442Y76769751D01*
X91203442Y76659443D01*
X91166672Y76585904D01*
X91129903Y76549134D01*
X91056364Y76512365D01*
X90762208Y76512365D01*
X91938832Y76144670D02*
X91497598Y76144670D01*
X91718215Y76144670D02*
X91718215Y76916830D01*
X91644676Y76806521D01*
X91571137Y76732982D01*
X91497598Y76696212D01*
X92674222Y76144670D02*
X92232988Y76144670D01*
X92453605Y76144670D02*
X92453605Y76916830D01*
X92380066Y76806521D01*
X92306527Y76732982D01*
X92232988Y76696212D01*
X95045590Y83898982D02*
X94677895Y83641595D01*
X95045590Y83457748D02*
X94273430Y83457748D01*
X94273430Y83751904D01*
X94310200Y83825443D01*
X94346970Y83862212D01*
X94420509Y83898982D01*
X94530817Y83898982D01*
X94604356Y83862212D01*
X94641126Y83825443D01*
X94677895Y83751904D01*
X94677895Y83457748D01*
X95045590Y84634372D02*
X95045590Y84193138D01*
X95045590Y84413755D02*
X94273430Y84413755D01*
X94383739Y84340216D01*
X94457278Y84266677D01*
X94494048Y84193138D01*
X94346970Y84928528D02*
X94310200Y84965298D01*
X94273430Y85038837D01*
X94273430Y85222684D01*
X94310200Y85296223D01*
X94346970Y85332993D01*
X94420509Y85369762D01*
X94494048Y85369762D01*
X94604356Y85332993D01*
X95045590Y84891759D01*
X95045590Y85369762D01*
X97907590Y69420982D02*
X97539895Y69163595D01*
X97907590Y68979748D02*
X97135430Y68979748D01*
X97135430Y69273904D01*
X97172200Y69347443D01*
X97208970Y69384212D01*
X97282509Y69420982D01*
X97392817Y69420982D01*
X97466356Y69384212D01*
X97503126Y69347443D01*
X97539895Y69273904D01*
X97539895Y68979748D01*
X97907590Y70156372D02*
X97907590Y69715138D01*
X97907590Y69935755D02*
X97135430Y69935755D01*
X97245739Y69862216D01*
X97319278Y69788677D01*
X97356048Y69715138D01*
X97135430Y70634376D02*
X97135430Y70707915D01*
X97172200Y70781454D01*
X97208970Y70818223D01*
X97282509Y70854993D01*
X97429587Y70891762D01*
X97613434Y70891762D01*
X97760512Y70854993D01*
X97834051Y70818223D01*
X97870821Y70781454D01*
X97907590Y70707915D01*
X97907590Y70634376D01*
X97870821Y70560837D01*
X97834051Y70524067D01*
X97760512Y70487298D01*
X97613434Y70450528D01*
X97429587Y70450528D01*
X97282509Y70487298D01*
X97208970Y70524067D01*
X97172200Y70560837D01*
X97135430Y70634376D01*
M02*
