M48
;DRILL file {KiCad 4.0.0-rc2-stable} date 16/02/2016 17:07:49
;FORMAT={-:-/ absolute / metric / decimal}
FMAT,2
METRIC,TZ
T1C0.400
%
G90
G05
M71
T1
X85.975Y82.966
X86.006Y64.424
X86.196Y79.647
X86.47Y70.212
X87.716Y83.02
X87.76Y74.148
X88.392Y83.936
X88.676Y94.704
X88.732Y99.784
X88.969Y70.496
X88.97Y69.496
X88.986Y98.514
X89.24Y61.049
X90.374Y82.577
X91.269Y85.142
X91.497Y73.032
X92.178Y91.122
X92.711Y56.518
X93.532Y56.531
X93.754Y72.414
X93.819Y60.397
X94.044Y75.505
X94.32Y90.7
X94.638Y81.489
X95.17Y71.53
X95.739Y85.941
X95.83Y64.538
X95.891Y81.489
X96.054Y65.988
X96.098Y93.942
X96.352Y99.022
X96.352Y74.892
X96.955Y83.47
X96.997Y84.866
X97.114Y60.414
X97.729Y75.622
X97.805Y73.148
X97.888Y64.98
X98.029Y67.373
X98.215Y84.994
X98.535Y79.972
X98.638Y63.208
X98.965Y67.725
X99.208Y75.724
T0
M30
